<svg width="791" height="1074" viewBox="0 0 791 1074" fill="none" xmlns="http://www.w3.org/2000/svg">
<path d="M185.903 1073.03C185.903 1073.03 -11.3346 1073.54 9.91536 920.138C26.1444 802.979 58.2253 567.556 30.6193 448.976C3.01334 330.396 -59.0997 104.215 147.944 80.7906C354.989 57.3666 371.449 61.1316 508.519 22.1356C771.333 -52.6334 820.238 71.0776 775.57 257.162C729.799 447.84 786.676 349.435 786.676 463.696C786.676 577.957 803.65 1088.29 592.842 1054.83C382.034 1021.37 359.264 1073.03 185.902 1073.03L185.903 1073.03Z" fill="#CA3328"/>
<path d="M212.204 1012.37C212.204 1012.37 42.4983 1012.82 60.7813 876.835C74.7443 772.979 102.348 564.287 78.5953 459.171C54.8423 354.055 1.39931 153.555 179.544 132.791C357.689 112.027 371.851 115.364 489.789 80.7957C715.918 14.5167 757.997 124.181 719.564 289.136C680.182 458.164 729.12 370.932 729.12 472.22C729.12 573.508 743.725 1025.9 562.342 996.236C380.959 966.575 361.368 1012.37 212.204 1012.37Z" fill="url(#paint0_radial_11_444)"/>
<path d="M142.946 482.248C141.948 482.248 140.984 481.875 140.245 481.198C139.463 480.482 138.997 479.484 138.95 478.425L136.056 412.842C135.959 410.635 137.669 408.768 139.876 408.67L212.32 405.474L206.339 269.93L134.569 293.242C134.165 293.373 133.748 293.438 133.334 293.438C132.529 293.438 131.732 293.195 131.054 292.725C130.027 292.013 129.392 290.861 129.337 289.613L126.255 219.774C126.178 218.024 127.247 216.428 128.895 215.835L221.296 182.53C221.675 182.393 222.073 182.315 222.476 182.297L302.538 178.764C302.598 178.762 302.658 178.76 302.717 178.76C304.845 178.76 306.615 180.437 306.71 182.584L316.343 400.884L385.806 397.82C385.866 397.817 385.926 397.816 385.985 397.816C388.113 397.816 389.883 399.493 389.978 401.639L392.872 467.221C392.919 468.282 392.542 469.317 391.826 470.099C391.11 470.881 390.112 471.347 389.052 471.394L143.12 482.246C143.061 482.249 143.002 482.25 142.944 482.25L142.946 482.248Z" fill="#EC8622"/>
<path d="M302.716 182.758L312.525 405.055L385.985 401.814L388.879 467.396L142.948 478.248L140.054 412.666L216.494 409.293L210.105 264.502L133.336 289.438L130.254 219.597L222.655 186.292L302.717 182.759M302.716 174.758C302.599 174.758 302.481 174.761 302.363 174.766L222.301 178.299C221.495 178.335 220.7 178.492 219.941 178.765L127.54 212.07C124.245 213.258 122.106 216.45 122.26 219.949L125.342 289.79C125.452 292.286 126.722 294.587 128.775 296.011C130.13 296.951 131.724 297.437 133.334 297.437C134.163 297.437 134.997 297.308 135.805 297.046L202.574 275.359L208.147 401.654L139.699 404.674C137.579 404.768 135.584 405.699 134.151 407.264C132.718 408.829 131.966 410.899 132.06 413.019L134.954 478.601C135.143 482.895 138.684 486.248 142.94 486.248C143.059 486.248 143.179 486.245 143.299 486.24L389.23 475.388C391.35 475.294 393.345 474.363 394.778 472.798C396.211 471.233 396.963 469.163 396.869 467.043L393.975 401.461C393.786 397.167 390.245 393.814 385.989 393.814C385.87 393.814 385.75 393.817 385.63 393.822L320.162 396.711L310.706 182.406C310.612 180.286 309.681 178.291 308.116 176.858C306.638 175.505 304.71 174.759 302.714 174.759L302.716 174.758Z" fill="white"/>
<path d="M526.623 468.376C481.063 468.376 449.85 459.105 433.85 440.818C416.11 420.802 406.522 397.408 405.371 371.304C404.32 347.472 413.516 327.941 432.719 313.163C415.199 301.952 405.828 284.946 404.838 262.522C403.865 240.477 411.383 219.371 427.18 199.791C443.316 179.792 477.035 168.929 530.267 166.58C535.634 166.343 540.896 166.223 545.906 166.223C587.309 166.223 616.828 174.414 633.643 190.568C652.296 208.489 662.252 228.862 663.235 251.12C664.223 273.501 656.448 291.258 640.106 303.996C660.413 316.964 671.23 335.616 672.285 359.526C673.44 385.679 665.275 409.895 648.017 431.5C630.503 453.426 595.362 465.702 543.568 467.987C537.737 468.244 532.037 468.375 526.625 468.375L526.623 468.376ZM542.653 340.124C541.131 340.124 539.469 340.163 537.715 340.24C525.757 340.767 518.639 342.769 514.635 346.729C510.436 350.883 508.794 357.968 509.312 369.704C510.184 389.463 516.585 395.805 535.656 395.806H535.659C537.062 395.806 538.578 395.771 540.162 395.701C551.881 395.184 558.943 393.203 563.06 389.278C567.33 385.207 569.091 378.156 568.603 367.09C567.669 345.921 562.091 340.125 542.653 340.125V340.124ZM537.249 237.303C535.951 237.303 534.581 237.334 533.178 237.396C507.992 238.507 504.991 247.616 505.378 256.38C506.156 274.014 514.003 277.24 529.175 277.241H529.178C530.897 277.241 532.778 277.195 534.929 277.1C556.023 276.169 563.365 272.518 562.541 253.858C561.897 239.27 549.395 237.303 537.249 237.303Z" fill="#EC8622"/>
<path d="M545.905 170.223C586.378 170.223 614.797 178.011 630.87 193.453C648.916 210.791 658.307 230.218 659.237 251.297C660.261 274.506 651.439 292.176 632.773 304.307C655.51 316.744 667.206 335.215 668.287 359.702C669.396 384.827 661.671 407.996 644.89 429.004C628.109 450.012 594.278 461.746 543.389 463.991C537.589 464.247 531.998 464.375 526.622 464.375C482.067 464.375 452.096 455.596 436.859 438.183C419.571 418.678 410.474 396.252 409.366 371.127C408.286 346.64 418.522 327.201 440.075 312.81C420.2 302.38 409.858 285.555 408.833 262.346C407.903 241.266 415.121 221.107 430.292 202.303C445.463 183.499 478.702 172.859 530.442 170.576C535.775 170.341 540.934 170.223 545.905 170.223ZM529.175 281.241C531.07 281.241 533.047 281.187 535.106 281.096C555.335 280.203 567.552 276.678 566.537 253.682C565.899 239.216 555.658 233.303 537.249 233.303C535.878 233.303 534.463 233.336 533.001 233.4C511.92 234.33 500.696 241.013 501.382 256.557C502.285 277.021 512.457 281.241 529.175 281.241ZM535.656 399.806C537.156 399.806 538.714 399.768 540.338 399.697C564.185 398.645 573.689 391.612 572.599 366.912C571.544 343.01 563.528 336.124 542.653 336.124C541.027 336.124 539.323 336.166 537.539 336.244C513.053 337.324 504.188 344.329 505.316 369.88C506.331 392.882 515.335 399.806 535.656 399.806ZM545.912 162.223V170.223L545.91 162.223C540.834 162.223 535.513 162.344 530.09 162.584C475.645 164.986 440.964 176.335 424.066 197.28C407.638 217.641 399.824 239.651 400.841 262.699C401.805 284.546 410.279 301.559 426.071 313.427C408.639 328.578 400.34 348.056 401.374 371.48C402.567 398.516 412.485 422.736 430.855 443.47C439.462 453.298 452.129 460.706 468.504 465.489C484.15 470.059 503.704 472.376 526.623 472.376C532.094 472.376 537.854 472.244 543.743 471.984C569.809 470.834 591.947 467.171 609.542 461.096C627.824 454.784 641.82 445.667 651.142 433.997C669.021 411.614 677.478 386.499 676.28 359.35C675.243 335.855 665.314 317.171 646.723 303.662C661.301 290.429 668.191 272.747 667.229 250.944C666.2 227.625 655.832 206.341 636.412 187.684C627.436 179.061 615.068 172.55 599.651 168.331C584.837 164.278 566.756 162.223 545.912 162.223ZM529.175 273.241C521.672 273.241 516.912 272.277 514.194 270.208C513.119 269.389 509.846 266.898 509.374 256.204C509.103 250.051 511.358 247.625 513.601 246.063C517.465 243.372 524.111 241.8 533.354 241.392C534.699 241.333 536.009 241.303 537.249 241.303C556.381 241.303 558.273 247.875 558.545 254.034C559.205 268.993 555.203 272.201 534.753 273.103C532.661 273.195 530.836 273.241 529.175 273.241ZM535.656 391.806C517.519 391.806 514.033 385.969 513.308 369.528C512.707 355.907 515.383 351.616 517.448 349.574C520.65 346.407 527.146 344.711 537.891 344.237C539.586 344.162 541.188 344.124 542.653 344.124C551.27 344.124 556.599 345.43 559.423 348.233C562.48 351.266 564.175 357.492 564.606 367.264C565.176 380.176 562.421 384.359 560.299 386.382C556.978 389.548 550.523 391.24 539.985 391.705C538.459 391.772 537.002 391.807 535.655 391.807L535.656 391.806Z" fill="white"/>
<path d="M58.5464 495.795L757.586 414.289V613.143L58.5464 704.615V495.795Z" fill="#CA3328"/>
<path d="M175.14 634.659C164.589 634.659 156.704 631.018 151.707 623.837C146.155 615.926 142.566 605.046 141.046 591.508L135.881 545.54C135.807 544.881 135.998 544.22 136.411 543.701C136.825 543.183 137.427 542.85 138.086 542.776L172.127 538.952C172.22 538.941 172.314 538.936 172.406 538.936C172.97 538.936 173.52 539.126 173.966 539.482C174.484 539.896 174.817 540.498 174.891 541.157L179.851 585.312C181.126 596.661 182.801 600.827 183.982 602.323C185.284 603.972 186.985 604.741 189.336 604.741C189.759 604.741 190.207 604.715 190.668 604.663C194.332 604.252 197.3 602.349 199.741 598.845C201.729 595.981 202.695 592.251 202.609 587.762L197.093 538.664C196.939 537.292 197.926 536.055 199.298 535.9L233.339 532.076C233.432 532.065 233.526 532.06 233.618 532.06C234.182 532.06 234.732 532.25 235.178 532.606C235.696 533.02 236.029 533.623 236.103 534.281L246.159 623.798C246.313 625.17 245.326 626.407 243.954 626.562L217.915 629.488C217.821 629.499 217.728 629.504 217.635 629.504C216.855 629.504 216.114 629.139 215.638 628.508L210.656 621.891C203.473 628.741 193.567 632.912 181.157 634.307C179.068 634.541 177.043 634.661 175.139 634.661L175.14 634.659Z" fill="#EC8622"/>
<path d="M233.619 534.56L243.675 624.077L217.636 627.002L210.898 618.051C204.039 625.702 194.012 630.344 180.879 631.82C178.873 632.045 176.961 632.158 175.141 632.158C165.386 632.158 158.291 628.919 153.759 622.408C148.39 614.756 145.006 604.361 143.53 591.227L138.366 545.26L172.406 541.435L177.366 585.59C178.443 595.177 179.969 601.272 182.019 603.871C183.778 606.099 186.203 607.24 189.336 607.24C189.854 607.24 190.391 607.209 190.947 607.146C195.399 606.646 198.961 604.334 201.791 600.272C204.094 596.955 205.221 592.703 205.105 587.594L199.577 538.382L233.617 534.558M233.625 529.56C233.438 529.56 233.25 529.57 233.061 529.592L199.021 533.416C196.277 533.724 194.302 536.199 194.61 538.943L200.112 587.924C200.169 591.825 199.353 595.021 197.685 597.424C195.656 600.336 193.337 601.849 190.39 602.18C190.021 602.222 189.666 602.242 189.336 602.242C187.367 602.242 186.516 601.5 185.943 600.775C185.44 600.138 183.692 597.117 182.334 585.034L177.374 540.879C177.226 539.561 176.56 538.356 175.524 537.529C174.634 536.819 173.533 536.437 172.405 536.437C172.219 536.437 172.033 536.447 171.847 536.468L137.807 540.293C135.063 540.601 133.088 543.076 133.397 545.82L138.561 591.787C140.129 605.746 143.865 617.016 149.665 625.282C155.147 633.158 163.722 637.16 175.14 637.16C177.136 637.16 179.255 637.036 181.436 636.791C193.254 635.463 202.931 631.693 210.292 625.563L213.641 630.011C214.592 631.274 216.076 632.004 217.635 632.004C217.821 632.004 218.007 631.994 218.194 631.973L244.233 629.048C246.977 628.74 248.952 626.265 248.644 623.521L238.588 534.004C238.301 531.45 236.137 529.562 233.625 529.562V529.56Z" fill="white"/>
<path d="M256.808 625.1C255.552 625.1 254.47 624.158 254.327 622.88L244.271 533.362C244.117 531.99 245.104 530.754 246.476 530.599L272.667 527.656C272.761 527.645 272.854 527.641 272.947 527.641C273.723 527.641 274.463 528.003 274.939 528.63L279.935 535.219C287.245 528.378 296.77 524.26 308.293 522.966C310.241 522.747 312.139 522.636 313.932 522.636C324.474 522.636 332.453 526.428 337.645 533.906C343.349 542.242 347.008 553.337 348.532 566.896L353.569 611.73C353.643 612.389 353.452 613.051 353.039 613.57C352.626 614.089 352.023 614.421 351.364 614.495L317.324 618.318C317.23 618.329 317.135 618.333 317.042 618.333C315.786 618.333 314.704 617.39 314.561 616.112L309.592 571.883C308.258 560.011 306.356 556.162 305.341 554.925C303.977 553.326 302.212 552.565 299.817 552.565C299.37 552.565 298.895 552.593 298.406 552.648C292.028 553.365 288.272 559.287 287.323 564.943L293.339 618.497C293.413 619.156 293.222 619.817 292.809 620.336C292.396 620.855 291.793 621.187 291.134 621.261L257.092 625.084C256.997 625.095 256.903 625.1 256.81 625.1H256.808Z" fill="#EC8622"/>
<path d="M313.931 525.138C323.643 525.138 330.861 528.522 335.591 535.334C341.078 543.353 344.563 553.97 346.048 567.177L351.084 612.011L317.044 615.835L312.075 571.606C310.998 562.019 309.396 555.932 307.272 553.341C305.399 551.145 302.93 550.068 299.816 550.068C299.272 550.068 298.709 550.101 298.126 550.166C290.578 551.014 285.847 557.89 284.799 564.887L290.853 618.777L256.812 622.601L246.756 533.084L272.947 530.142L279.676 539.016C286.838 531.334 296.42 526.818 308.572 525.453C310.436 525.244 312.222 525.139 313.932 525.139M313.931 520.138C312.045 520.138 310.054 520.254 308.013 520.483C296.993 521.721 287.699 525.441 280.301 531.565L276.93 527.12C275.979 525.865 274.5 525.141 272.947 525.141C272.762 525.141 272.575 525.151 272.388 525.172L246.197 528.114C244.879 528.262 243.674 528.927 242.847 529.964C242.02 531 241.638 532.323 241.786 533.641L251.842 623.158C252.129 625.712 254.293 627.6 256.805 627.6C256.992 627.6 257.18 627.59 257.369 627.568L291.41 623.744C292.728 623.596 293.933 622.931 294.76 621.894C295.587 620.857 295.969 619.535 295.821 618.217L289.845 565.017C291.002 558.751 295.069 555.538 298.684 555.132C299.08 555.088 299.461 555.065 299.816 555.065C301.853 555.065 302.792 555.804 303.432 556.541C303.991 557.249 305.782 560.369 307.107 572.161L312.076 616.389C312.363 618.943 314.527 620.831 317.039 620.831C317.226 620.831 317.414 620.821 317.603 620.799L351.643 616.975C352.961 616.827 354.166 616.162 354.993 615.125C355.82 614.088 356.202 612.766 356.054 611.448L351.018 566.614C349.448 552.644 345.646 541.169 339.719 532.506C334.012 524.287 325.343 520.134 313.933 520.134L313.931 520.138Z" fill="white"/>
<path d="M393.358 609.967C382.329 609.967 373.698 606.299 367.704 599.063C360.876 590.819 356.634 579.698 355.096 566.006C353.561 552.341 355.237 540.603 360.077 531.119C365.096 521.286 374.821 515.493 388.98 513.902C391.858 513.579 394.711 513.415 397.463 513.415C403.717 513.415 409.692 514.26 415.277 515.93L411.823 485.191C411.749 484.532 411.94 483.871 412.353 483.352C412.767 482.834 413.37 482.501 414.028 482.427L447.993 478.612C448.088 478.601 448.182 478.596 448.275 478.596C449.531 478.596 450.613 479.539 450.756 480.817L464.069 599.317C464.223 600.689 463.236 601.926 461.864 602.081L430.164 605.643C430.069 605.654 429.976 605.659 429.883 605.659C428.799 605.659 427.823 604.954 427.496 603.898L426.557 600.86C418.927 605.517 409.92 608.452 399.73 609.596C397.532 609.843 395.388 609.968 393.357 609.968L393.358 609.967ZM406.099 540.581C405.479 540.581 404.846 540.617 404.217 540.687C400.197 541.138 397.314 542.567 395.646 544.932C394.467 546.651 393.292 550.988 394.5 561.733C395.723 572.62 397.814 576.553 399.354 577.936C401.141 579.587 403.464 580.378 406.485 580.378C407.174 580.378 407.907 580.335 408.663 580.25C412.467 579.823 415.791 578.139 418.023 575.508C420.303 572.82 421.286 569.411 420.863 565.651L419.329 551.989C418.562 545.166 413.246 540.581 406.1 540.581H406.099Z" fill="#EC8622"/>
<path d="M448.273 481.096L461.585 599.597L429.885 603.158L427.965 596.953C420.028 602.508 410.47 605.873 399.45 607.111C397.334 607.349 395.303 607.468 393.359 607.468C383.032 607.468 375.137 604.118 369.629 597.469C363.086 589.568 359.064 578.938 357.579 565.727C356.095 552.52 357.668 541.338 362.303 532.257C366.938 523.176 375.899 517.889 389.258 516.388C392.055 516.074 394.791 515.917 397.462 515.917C404.88 515.917 411.801 517.129 418.199 519.558L414.307 484.913L448.272 481.098M406.485 582.879C407.272 582.879 408.091 582.831 408.941 582.736C417.998 581.719 424.381 574.581 423.347 565.372L421.812 551.71C420.861 543.249 414.15 538.081 406.099 538.081C405.388 538.081 404.667 538.121 403.938 538.203C399.184 538.737 395.713 540.501 393.603 543.491C391.501 546.556 390.972 552.729 392.015 562.013C393.075 571.448 394.961 577.352 397.682 579.796C399.923 581.867 402.87 582.879 406.485 582.879ZM448.279 476.095C448.092 476.095 447.904 476.105 447.715 476.127L413.75 479.942C412.432 480.09 411.227 480.756 410.4 481.792C409.573 482.828 409.191 484.151 409.339 485.469L412.384 512.577C407.627 511.472 402.635 510.915 397.462 510.915C394.618 510.915 391.67 511.084 388.7 511.418C373.654 513.109 363.275 519.355 357.849 529.983C352.782 539.91 351.019 552.124 352.61 566.285C354.204 580.468 358.634 592.032 365.778 600.658C372.269 608.495 381.549 612.468 393.359 612.468C395.481 612.468 397.718 612.338 400.008 612.08C409.363 611.029 417.771 608.512 425.091 604.58L425.108 604.636C425.762 606.748 427.713 608.158 429.881 608.158C430.067 608.158 430.254 608.148 430.443 608.127L462.143 604.566C464.887 604.258 466.862 601.783 466.554 599.039L453.242 480.538C452.955 477.984 450.791 476.096 448.279 476.096V476.095ZM397.711 546.342C398.972 544.58 401.192 543.543 404.496 543.171C405.033 543.111 405.572 543.08 406.099 543.08C411.999 543.08 416.217 546.686 416.844 552.268L418.379 565.93C418.723 568.989 417.94 571.741 416.117 573.891C414.298 576.035 411.552 577.411 408.384 577.767C407.721 577.841 407.082 577.879 406.486 577.879C404.124 577.879 402.355 577.305 401.077 576.124C401.06 576.108 401.043 576.093 401.026 576.077C400.581 575.677 398.293 573.091 396.986 561.455C395.74 550.368 397.205 547.105 397.713 546.343L397.711 546.342Z" fill="white"/>
<path d="M512.05 596.699C498.412 596.699 488.032 593.587 481.196 587.449C472.435 579.591 467.174 568.303 465.555 553.903C463.945 539.565 466.538 527.377 473.266 517.676C480.122 507.789 493.18 501.891 513.184 499.643C517.608 499.146 521.808 498.894 525.667 498.894C539.595 498.894 550.044 502.181 556.725 508.663C565.032 516.879 570.03 528.112 571.598 542.066C572.026 545.876 572.17 549.26 572.042 552.413C571.991 553.646 571.049 554.658 569.823 554.796L537.895 558.383L568.604 563.604C569.911 563.827 570.816 565.029 570.669 566.345C569.95 572.801 567.367 578.021 562.991 581.862C551.818 592.135 537.36 594.518 524.688 595.942C524.686 595.942 524.683 595.942 524.681 595.942C520.204 596.444 515.954 596.699 512.047 596.699H512.05ZM506.109 561.953C507.355 565.083 508.64 566.418 509.583 566.979C512.192 568.624 515.161 569.408 518.714 569.408C519.663 569.408 520.665 569.349 521.691 569.234C521.694 569.234 521.696 569.234 521.699 569.234C526.276 568.719 529.729 567.817 531.684 565.108C532.683 563.497 533.606 561.732 534.502 559.714C534.695 559.279 535.002 558.921 535.375 558.666L506.109 561.953ZM519.311 526.161C518.353 526.161 517.327 526.222 516.26 526.342C511.635 526.862 508.14 528.497 505.573 531.343C504.543 532.443 503.816 534.223 503.388 536.667L530.25 533.649C529.121 530.428 528.011 528.898 527.191 528.173C525.114 526.819 522.534 526.16 519.309 526.16L519.311 526.161Z" fill="#EC8622"/>
<path d="M525.669 501.394C538.998 501.394 548.77 504.426 554.984 510.456C562.895 518.281 567.604 528.912 569.114 542.345C569.529 546.044 569.667 549.316 569.545 552.31L502.747 559.815C504.12 564.552 505.927 567.711 508.303 569.127C511.24 570.979 514.698 571.908 518.715 571.908C519.762 571.908 520.846 571.845 521.969 571.719L524.411 593.456C520.002 593.951 515.879 594.199 512.048 594.199C498.96 594.199 489.245 591.316 482.866 585.589C474.537 578.117 469.592 567.436 468.04 553.624C466.488 539.812 468.94 528.302 475.321 519.101C481.702 509.9 494.368 504.273 513.464 502.128C517.818 501.639 521.887 501.394 525.669 501.394ZM500.542 539.502L533.526 535.796C532.221 530.977 530.639 527.789 528.7 526.174C526.185 524.488 523.068 523.661 519.31 523.661C518.251 523.661 517.142 523.727 515.981 523.857C510.774 524.442 506.708 526.353 503.717 529.667C501.874 531.633 500.864 534.88 500.542 539.502ZM536.786 560.729L568.188 566.068C567.541 571.872 565.239 576.564 561.344 579.982C551.021 589.472 537.922 591.938 524.411 593.456L521.969 571.719C526.347 571.227 531.061 570.315 533.765 566.495C534.737 564.934 535.749 563.063 536.786 560.729ZM525.669 496.394C521.716 496.394 517.422 496.651 512.906 497.159C492.142 499.492 478.504 505.737 471.212 516.252C464.13 526.464 461.391 539.226 463.071 554.182C464.76 569.211 470.297 581.03 479.527 589.311C486.834 595.872 497.777 599.199 512.048 599.199C516.05 599.199 520.398 598.939 524.969 598.425C538.017 596.959 552.921 594.491 564.687 583.701C569.518 579.44 572.368 573.695 573.156 566.623C573.45 563.989 571.637 561.584 569.025 561.14L555.787 558.889L570.103 557.281C572.556 557.005 574.44 554.982 574.541 552.516C574.675 549.235 574.525 545.726 574.083 541.789C572.449 527.252 567.207 515.515 558.5 506.903C551.304 499.92 540.269 496.396 525.669 496.396V496.394ZM506.89 533.758C507.063 533.449 507.228 533.235 507.365 533.088C507.387 533.065 507.408 533.041 507.43 533.017C509.57 530.645 512.549 529.274 516.539 528.826C517.512 528.717 518.445 528.661 519.31 528.661C521.94 528.661 524.019 529.151 525.653 530.158C525.87 530.378 526.209 530.793 526.623 531.54L506.889 533.757L506.89 533.758ZM510.031 564.029L530.76 561.7C530.387 562.4 530.005 563.067 529.61 563.708C528.171 565.627 525.287 566.315 521.411 566.751C520.478 566.856 519.572 566.909 518.716 566.909C515.649 566.909 513.116 566.252 510.972 564.899C510.936 564.877 510.9 564.855 510.864 564.833C510.711 564.742 510.416 564.521 510.031 564.029Z" fill="white"/>
<path d="M584.469 588.292C583.906 588.292 583.355 588.102 582.909 587.746C582.391 587.332 582.058 586.73 581.984 586.071L571.927 496.554C571.773 495.182 572.76 493.945 574.132 493.79L600.321 490.847C600.415 490.836 600.508 490.831 600.6 490.831C601.399 490.831 602.157 491.214 602.629 491.871L607.067 498.037C614.096 491.465 623.595 487.469 635.333 486.15C637.676 485.886 639.936 485.754 642.051 485.754C652.656 485.754 660.512 489.079 665.399 495.637C671.011 503.235 674.639 514.964 676.498 531.503C676.572 532.162 676.381 532.823 675.968 533.342C675.554 533.861 674.951 534.193 674.293 534.267L640.253 538.09C640.158 538.101 640.064 538.106 639.971 538.106C638.715 538.106 637.633 537.163 637.49 535.885C636.052 523.077 633.881 519.281 632.715 518.157C631.041 516.543 629.085 515.759 626.735 515.759C626.32 515.759 625.887 515.784 625.449 515.833C618.574 516.605 615.221 522.754 614.985 528.208L620.993 581.687C621.147 583.059 620.16 584.296 618.788 584.451L584.749 588.275C584.655 588.286 584.562 588.291 584.47 588.291L584.469 588.292Z" fill="#EC8622"/>
<path d="M642.053 488.255C651.881 488.255 658.996 491.227 663.396 497.132C668.714 504.331 672.226 515.858 674.015 531.783L639.975 535.607C638.805 525.193 636.936 518.753 634.449 516.358C632.324 514.308 629.75 513.26 626.735 513.26C626.225 513.26 625.704 513.29 625.169 513.35C617.47 514.215 612.713 520.863 612.479 528.303L618.508 581.968L584.469 585.793L574.413 496.276L600.603 493.333L606.762 501.89C607.038 501.631 607.306 501.294 607.583 501.035C614.369 494.08 623.766 489.967 635.616 488.637C637.877 488.383 640.025 488.256 642.055 488.256M642.053 483.255C639.845 483.255 637.491 483.394 635.056 483.667C623.909 484.919 614.662 488.506 607.495 494.349L604.661 490.411C603.715 489.097 602.2 488.332 600.604 488.332C600.418 488.332 600.232 488.342 600.045 488.363L573.855 491.306C571.111 491.614 569.136 494.089 569.445 496.833L579.501 586.35C579.649 587.668 580.314 588.873 581.351 589.7C582.241 590.41 583.342 590.792 584.47 590.792C584.656 590.792 584.842 590.782 585.028 590.761L619.067 586.936C621.811 586.628 623.786 584.153 623.478 581.409L617.493 528.13C617.749 523.625 620.362 518.921 625.729 518.318C626.076 518.279 626.415 518.259 626.737 518.259C628.431 518.259 629.779 518.798 630.979 519.955C631.235 520.201 633.498 522.727 635.007 536.164C635.294 538.718 637.458 540.606 639.97 540.606C640.157 540.606 640.345 540.596 640.534 540.574L674.574 536.75C677.318 536.442 679.293 533.967 678.985 531.223C677.077 514.235 673.294 502.111 667.419 494.159C662.022 486.917 653.492 483.253 642.054 483.253L642.053 483.255Z" fill="white"/>
<path d="M135.596 943.991C134.535 943.97 133.527 943.527 132.792 942.762C132.057 941.997 131.657 940.971 131.679 939.91L133.025 874.279C133.069 872.098 134.852 870.361 137.023 870.361C137.051 870.361 209.606 871.848 209.606 871.848L212.387 736.201L139.262 754.832C138.936 754.915 138.604 754.956 138.274 754.956C137.38 754.956 136.502 754.656 135.787 754.089C134.808 753.313 134.249 752.123 134.275 750.874L135.708 680.978C135.744 679.227 136.914 677.704 138.597 677.217L232.955 649.947C233.316 649.843 233.69 649.79 234.066 649.79C234.093 649.79 314.271 651.434 314.271 651.434C315.332 651.455 316.34 651.898 317.075 652.663C317.81 653.428 318.21 654.454 318.188 655.515L313.709 873.982L383.226 875.408C385.434 875.453 387.188 877.28 387.143 879.489L385.797 945.12C385.753 947.301 383.97 949.038 381.799 949.038C381.771 949.038 135.596 943.991 135.596 943.991Z" fill="#EC8622"/>
<path d="M234.065 653.79L314.188 655.433L309.627 877.899L383.143 879.406L381.797 945.036L135.678 939.991L137.024 874.359L213.523 875.928L216.494 731.026L138.275 750.954L139.708 681.059L234.066 653.789M234.065 645.79C233.314 645.79 232.566 645.896 231.844 646.105L137.486 673.375C134.122 674.347 131.781 677.395 131.709 680.896L130.276 750.791C130.225 753.289 131.344 755.668 133.301 757.221C134.731 758.356 136.488 758.955 138.275 758.955C138.934 758.955 139.597 758.874 140.25 758.707L208.28 741.375L205.689 867.766L137.189 866.362C137.133 866.361 137.077 866.359 137.022 866.359C132.68 866.359 129.116 869.834 129.027 874.196L127.681 939.827C127.59 944.244 131.098 947.899 135.515 947.989L381.634 953.035C381.689 953.036 381.744 953.036 381.798 953.036C383.861 953.036 385.846 952.24 387.338 950.809C388.869 949.34 389.753 947.323 389.797 945.201L391.143 879.57C391.234 875.153 387.726 871.498 383.309 871.408L317.792 870.065L322.189 655.597C322.28 651.18 318.772 647.525 314.355 647.435L234.232 645.792C234.177 645.791 234.123 645.79 234.068 645.79H234.065Z" fill="white"/>
<path d="M543.634 955.691C541.181 955.691 538.654 955.665 536.122 955.613C481.173 954.486 444.926 942.982 428.39 921.419C411.979 900.302 403.921 876.338 404.457 850.211C404.945 826.361 415.381 807.465 435.499 793.957C418.74 781.638 410.486 764.062 410.947 741.622C411.398 719.561 420.261 698.984 437.291 680.464C453.735 662.579 485.283 653.886 533.738 653.886C536.526 653.886 539.409 653.917 542.306 653.977C592.086 654.998 626.274 665.296 643.916 684.587C661.375 703.676 669.995 724.649 669.538 746.923C669.079 769.321 660.174 786.54 643.044 798.196C662.473 812.448 672.063 831.759 671.571 855.686C671.035 881.862 661.324 905.5 642.709 925.945C624.737 945.684 591.404 955.691 543.634 955.691ZM536.079 827.728C514.704 827.728 508.729 833.662 508.285 855.325C507.85 876.52 514.38 882.785 537.393 883.258C538.188 883.275 538.968 883.283 539.731 883.283C560.685 883.283 567.202 877.034 567.622 856.54C568.08 834.156 562.1 828.238 538.531 827.755C537.696 827.738 536.878 827.728 536.079 827.728ZM538.627 724.81C525.474 724.81 511.984 726.851 511.674 741.982C511.286 760.923 519.656 764.152 539.827 764.566C540.954 764.589 542.058 764.602 543.135 764.602C560.635 764.602 568.505 761.505 568.881 743.154C569.01 736.884 567.022 732.609 562.625 729.698C558.057 726.674 550.66 725.037 540.642 724.831C539.961 724.817 539.288 724.81 538.627 724.81Z" fill="#EC8622"/>
<path d="M533.737 657.886C536.511 657.886 539.339 657.916 542.225 657.975C591.023 658.975 624.077 668.82 640.966 687.286C657.855 705.753 665.973 725.746 665.54 746.841C665.064 770.068 655.119 787.133 635.71 798.034C657.596 811.913 668.076 831.1 667.574 855.604C667.058 880.75 657.854 903.372 639.752 923.252C622.545 942.151 590.503 951.691 543.635 951.691C541.197 951.691 538.722 951.665 536.204 951.614C482.292 950.509 447.343 939.56 431.563 918.983C415.57 898.404 407.94 875.438 408.455 850.293C408.957 825.788 420.427 807.051 442.864 794.08C423.704 782.388 414.469 764.929 414.945 741.703C415.377 720.608 423.882 700.957 440.235 683.172C455.677 666.378 486.727 657.887 533.736 657.886M543.135 768.602C561.369 768.602 572.435 764.937 572.88 743.237C573.199 727.682 561.82 721.265 540.723 720.833C540.015 720.818 539.314 720.81 538.627 720.81C518.855 720.81 507.983 726.867 507.674 741.899C507.206 764.7 519.501 768.15 539.743 768.565C540.898 768.589 542.03 768.602 543.133 768.602M539.731 887.283C561.851 887.283 571.131 880.488 571.621 856.622C572.15 830.837 563.331 824.262 538.613 823.755C537.752 823.737 536.905 823.728 536.081 823.728C513.462 823.728 504.792 830.569 504.286 855.242C503.779 879.96 513.659 886.772 537.311 887.257C538.134 887.274 538.941 887.283 539.731 887.283ZM533.737 649.886C484.101 649.886 451.591 659.003 434.347 677.756C416.639 697.015 407.421 718.474 406.948 741.539C406.5 763.403 413.858 780.927 428.851 793.791C410.477 807.785 400.938 826.687 400.458 850.128C399.903 877.186 408.238 901.997 425.231 923.872C434.115 935.448 448.235 944.317 467.2 950.237C485.317 955.893 508.478 959.047 536.04 959.612C538.6 959.664 541.155 959.691 543.635 959.691C567.704 959.691 588.381 957.18 605.09 952.229C622.446 947.085 636.099 939.148 645.668 928.638C664.954 907.457 675.015 882.94 675.572 855.768C676.054 832.257 667.352 812.97 649.672 798.289C665.074 786.024 673.091 768.824 673.539 747.005C674.018 723.668 665.045 701.759 646.87 681.886C637.466 671.604 623.662 663.706 605.84 658.411C588.724 653.326 567.376 650.488 542.389 649.975C539.464 649.915 536.553 649.885 533.738 649.885L533.737 649.886ZM543.135 760.602C542.13 760.602 541.074 760.59 539.909 760.566C532.654 760.417 524.667 759.879 520.437 757.008C519.069 756.08 515.437 753.614 515.674 742.062C515.776 737.105 515.946 728.81 538.628 728.81C539.261 728.81 539.907 728.816 540.56 728.829C565.164 729.333 564.981 738.27 564.882 743.071C564.676 753.097 562.021 756.129 560.041 757.537C557.062 759.656 551.848 760.602 543.135 760.602ZM539.731 879.283C538.994 879.283 538.242 879.274 537.475 879.258C527.001 879.043 520.528 877.501 517.107 874.404C514.91 872.416 512.02 868.284 512.284 855.405C512.491 845.3 514.115 839.147 517.394 836.039C520.497 833.098 526.435 831.728 536.081 831.728C536.852 831.728 537.643 831.737 538.449 831.753C549.465 831.979 555.832 833.452 559.096 836.529C561.175 838.489 563.905 842.687 563.623 856.457C563.247 874.801 558.558 879.281 539.732 879.281L539.731 879.283Z" fill="white"/>
<path d="M401.59 96.9085C410.966 96.9085 418.566 89.3081 418.566 79.9326C418.566 70.557 410.966 62.9565 401.59 62.9565C392.215 62.9565 384.614 70.557 384.614 79.9326C384.614 89.3081 392.215 96.9085 401.59 96.9085Z" fill="#A43126"/>
<path d="M417.26 76.6676C417.26 85.6826 409.952 92.9906 400.938 92.9906C391.924 92.9906 384.615 85.6826 384.615 76.6676C384.615 67.6526 391.923 60.3456 400.938 60.3456C409.953 60.3456 417.26 67.6536 417.26 76.6676Z" fill="#FFDE43"/>
<path d="M413.996 76.6676C413.996 83.8796 408.149 89.7256 400.938 89.7256C393.727 89.7256 387.88 83.8796 387.88 76.6676C387.88 69.4556 393.727 63.6096 400.938 63.6096C408.149 63.6096 413.996 69.4556 413.996 76.6676Z" fill="url(#paint1_radial_11_444)"/>
<path d="M324.58 108.008C333.956 108.008 341.556 100.407 341.556 91.0316C341.556 81.656 333.956 74.0555 324.58 74.0555C315.205 74.0555 307.604 81.656 307.604 91.0316C307.604 100.407 315.205 108.008 324.58 108.008Z" fill="#A43126"/>
<path d="M340.25 87.7675C340.25 96.7825 332.942 104.091 323.928 104.091C314.914 104.091 307.605 96.7825 307.605 87.7675C307.605 78.7525 314.913 71.4456 323.928 71.4456C332.943 71.4456 340.25 78.7535 340.25 87.7675Z" fill="#FFDE43"/>
<path d="M336.985 87.7676C336.985 94.9796 331.138 100.826 323.927 100.826C316.716 100.826 310.869 94.9796 310.869 87.7676C310.869 80.5556 316.716 74.7096 323.927 74.7096C331.138 74.7096 336.985 80.5556 336.985 87.7676Z" fill="url(#paint2_radial_11_444)"/>
<path d="M243.914 119.107C253.29 119.107 260.89 111.506 260.89 102.131C260.89 92.755 253.29 85.1545 243.914 85.1545C234.539 85.1545 226.938 92.755 226.938 102.131C226.938 111.506 234.539 119.107 243.914 119.107Z" fill="#A43126"/>
<path d="M259.584 98.8665C259.584 107.882 252.276 115.19 243.262 115.19C234.248 115.19 226.939 107.882 226.939 98.8665C226.939 89.8515 234.247 82.5446 243.262 82.5446C252.277 82.5446 259.584 89.8525 259.584 98.8665Z" fill="#FFDE43"/>
<path d="M256.32 98.8666C256.32 106.079 250.473 111.925 243.262 111.925C236.051 111.925 230.204 106.079 230.204 98.8666C230.204 91.6546 236.051 85.8086 243.262 85.8086C250.473 85.8086 256.32 91.6546 256.32 98.8666Z" fill="url(#paint3_radial_11_444)"/>
<path d="M145.543 130.206C154.919 130.206 162.519 122.605 162.519 113.23C162.519 103.854 154.919 96.2535 145.543 96.2535C136.168 96.2535 128.567 103.854 128.567 113.23C128.567 122.605 136.168 130.206 145.543 130.206Z" fill="#A43126"/>
<path d="M161.213 109.966C161.213 118.981 153.905 126.289 144.891 126.289C135.877 126.289 128.568 118.981 128.568 109.966C128.568 100.951 135.876 93.6436 144.891 93.6436C153.906 93.6436 161.213 100.952 161.213 109.966Z" fill="#FFDE43"/>
<path d="M157.948 109.966C157.948 117.178 152.101 123.024 144.89 123.024C137.679 123.024 131.832 117.178 131.832 109.966C131.832 102.754 137.679 96.9076 144.89 96.9076C152.101 96.9076 157.948 102.754 157.948 109.966Z" fill="url(#paint4_radial_11_444)"/>
<path d="M62.2783 172.038C71.6538 172.038 79.2543 164.437 79.2543 155.062C79.2543 145.686 71.6538 138.086 62.2783 138.086C52.9027 138.086 45.3022 145.686 45.3022 155.062C45.3022 164.437 52.9027 172.038 62.2783 172.038Z" fill="#A43126"/>
<path d="M77.9482 151.798C77.9482 160.813 70.6403 168.121 61.6263 168.121C52.6123 168.121 45.3032 160.813 45.3032 151.798C45.3032 142.783 52.6113 135.476 61.6263 135.476C70.6413 135.476 77.9482 142.784 77.9482 151.798Z" fill="#FFDE43"/>
<path d="M74.6832 151.798C74.6832 159.01 68.8362 164.856 61.6252 164.856C54.4142 164.856 48.5673 159.01 48.5673 151.798C48.5673 144.586 54.4142 138.74 61.6252 138.74C68.8362 138.74 74.6832 144.586 74.6832 151.798Z" fill="url(#paint5_radial_11_444)"/>
<path d="M23.4743 257.717C32.8499 257.717 40.4503 250.116 40.4503 240.741C40.4503 231.365 32.8499 223.765 23.4743 223.765C14.0987 223.765 6.49829 231.365 6.49829 240.741C6.49829 250.116 14.0987 257.717 23.4743 257.717Z" fill="#A43126"/>
<path d="M39.1442 237.477C39.1442 246.492 31.8363 253.8 22.8223 253.8C13.8083 253.8 6.49927 246.492 6.49927 237.477C6.49927 228.462 13.8073 221.155 22.8223 221.155C31.8373 221.155 39.1442 228.463 39.1442 237.477Z" fill="#FFDE43"/>
<path d="M35.8793 237.477C35.8793 244.689 30.0323 250.535 22.8213 250.535C15.6103 250.535 9.76331 244.689 9.76331 237.477C9.76331 230.265 15.6103 224.419 22.8213 224.419C30.0323 224.419 35.8793 230.265 35.8793 237.477Z" fill="url(#paint6_radial_11_444)"/>
<path d="M30.9523 348.62C40.3279 348.62 47.9283 341.019 47.9283 331.644C47.9283 322.268 40.3279 314.668 30.9523 314.668C21.5767 314.668 13.9763 322.268 13.9763 331.644C13.9763 341.019 21.5767 348.62 30.9523 348.62Z" fill="#A43126"/>
<path d="M46.6223 328.379C46.6223 337.394 39.3143 344.702 30.3003 344.702C21.2863 344.702 13.9773 337.394 13.9773 328.379C13.9773 319.364 21.2853 312.057 30.3003 312.057C39.3153 312.057 46.6223 319.365 46.6223 328.379Z" fill="#FFDE43"/>
<path d="M43.3573 328.379C43.3573 335.591 37.5103 341.437 30.2993 341.437C23.0883 341.437 17.2413 335.591 17.2413 328.379C17.2413 321.167 23.0883 315.321 30.2993 315.321C37.5103 315.321 43.3573 321.167 43.3573 328.379Z" fill="url(#paint7_radial_11_444)"/>
<path d="M48.5673 450.852C57.9429 450.852 65.5433 443.251 65.5433 433.876C65.5433 424.5 57.9429 416.9 48.5673 416.9C39.1917 416.9 31.5913 424.5 31.5913 433.876C31.5913 443.251 39.1917 450.852 48.5673 450.852Z" fill="#A43126"/>
<path d="M64.2373 430.612C64.2373 439.627 56.9293 446.935 47.9153 446.935C38.9013 446.935 31.5923 439.627 31.5923 430.612C31.5923 421.597 38.9003 414.29 47.9153 414.29C56.9303 414.29 64.2373 421.598 64.2373 430.612Z" fill="#FFDE43"/>
<path d="M60.9723 430.612C60.9723 437.824 55.1253 443.669 47.9143 443.669C40.7033 443.669 34.8563 437.824 34.8563 430.612C34.8563 423.4 40.7033 417.553 47.9143 417.553C55.1253 417.553 60.9723 423.4 60.9723 430.612Z" fill="url(#paint8_radial_11_444)"/>
<path d="M54.3903 765.352C63.7659 765.352 71.3663 757.751 71.3663 748.376C71.3663 739 63.7659 731.4 54.3903 731.4C45.0147 731.4 37.4143 739 37.4143 748.376C37.4143 757.751 45.0147 765.352 54.3903 765.352Z" fill="#A43126"/>
<path d="M70.0602 745.112C70.0602 754.127 62.7523 761.435 53.7383 761.435C44.7243 761.435 37.4153 754.127 37.4153 745.112C37.4153 736.097 44.7233 728.79 53.7383 728.79C62.7533 728.79 70.0602 736.098 70.0602 745.112Z" fill="#FFDE43"/>
<path d="M66.7963 745.112C66.7963 752.324 60.9493 758.169 53.7383 758.169C46.5273 758.169 40.6803 752.324 40.6803 745.112C40.6803 737.9 46.5273 732.053 53.7383 732.053C60.9493 732.053 66.7963 737.9 66.7963 745.112Z" fill="url(#paint9_radial_11_444)"/>
<path d="M43.9973 854.389C53.3728 854.389 60.9733 846.788 60.9733 837.413C60.9733 828.037 53.3728 820.437 43.9973 820.437C34.6217 820.437 27.0212 828.037 27.0212 837.413C27.0212 846.788 34.6217 854.389 43.9973 854.389Z" fill="#A43126"/>
<path d="M59.6672 834.148C59.6672 843.163 52.3592 850.471 43.3452 850.471C34.3312 850.471 27.0222 843.163 27.0222 834.148C27.0222 825.133 34.3302 817.826 43.3452 817.826C52.3602 817.826 59.6672 825.134 59.6672 834.148Z" fill="#FFDE43"/>
<path d="M56.4023 834.148C56.4023 841.36 50.5552 847.206 43.3442 847.206C36.1332 847.206 30.2863 841.36 30.2863 834.148C30.2863 826.936 36.1332 821.09 43.3442 821.09C50.5552 821.09 56.4023 826.936 56.4023 834.148Z" fill="url(#paint10_radial_11_444)"/>
<path d="M34.8564 950.512C44.232 950.512 51.8324 942.911 51.8324 933.536C51.8324 924.16 44.232 916.56 34.8564 916.56C25.4808 916.56 17.8804 924.16 17.8804 933.536C17.8804 942.911 25.4808 950.512 34.8564 950.512Z" fill="#A43126"/>
<path d="M50.5264 930.272C50.5264 939.287 43.2183 946.595 34.2043 946.595C25.1903 946.595 17.8813 939.287 17.8813 930.272C17.8813 921.257 25.1893 913.95 34.2043 913.95C43.2193 913.95 50.5264 921.258 50.5264 930.272Z" fill="#FFDE43"/>
<path d="M47.2614 930.272C47.2614 937.484 41.4144 943.33 34.2034 943.33C26.9924 943.33 21.1454 937.484 21.1454 930.272C21.1454 923.06 26.9924 917.214 34.2034 917.214C41.4144 917.214 47.2614 923.06 47.2614 930.272Z" fill="url(#paint11_radial_11_444)"/>
<path d="M76.6423 1030.65C86.0179 1030.65 93.6182 1023.05 93.6182 1013.68C93.6182 1004.3 86.0179 996.701 76.6423 996.701C67.2667 996.701 59.6663 1004.3 59.6663 1013.68C59.6663 1023.05 67.2667 1030.65 76.6423 1030.65Z" fill="#A43126"/>
<path d="M92.3123 1010.41C92.3123 1019.43 85.0042 1026.74 75.9902 1026.74C66.9762 1026.74 59.6672 1019.43 59.6672 1010.41C59.6672 1001.4 66.9752 994.091 75.9902 994.091C85.0052 994.091 92.3123 1001.4 92.3123 1010.41Z" fill="#FFDE43"/>
<path d="M89.0483 1010.41C89.0483 1017.62 83.2012 1023.47 75.9902 1023.47C68.7792 1023.47 62.9323 1017.62 62.9323 1010.41C62.9323 1003.2 68.7792 997.355 75.9902 997.355C83.2012 997.355 89.0483 1003.2 89.0483 1010.41Z" fill="url(#paint12_radial_11_444)"/>
<path d="M168.955 1060.03C178.331 1060.03 185.931 1052.43 185.931 1043.06C185.931 1033.68 178.331 1026.08 168.955 1026.08C159.58 1026.08 151.979 1033.68 151.979 1043.06C151.979 1052.43 159.58 1060.03 168.955 1060.03Z" fill="#A43126"/>
<path d="M184.625 1039.79C184.625 1048.81 177.317 1056.12 168.303 1056.12C159.289 1056.12 151.98 1048.81 151.98 1039.79C151.98 1030.78 159.288 1023.47 168.303 1023.47C177.318 1023.47 184.625 1030.78 184.625 1039.79Z" fill="#FFDE43"/>
<path d="M181.361 1039.79C181.361 1047 175.514 1052.85 168.303 1052.85C161.092 1052.85 155.245 1047 155.245 1039.79C155.245 1032.58 161.092 1026.73 168.303 1026.73C175.514 1026.73 181.361 1032.58 181.361 1039.79Z" fill="url(#paint13_radial_11_444)"/>
<path d="M265.164 1058.07C274.54 1058.07 282.14 1050.47 282.14 1041.1C282.14 1031.72 274.54 1024.12 265.164 1024.12C255.789 1024.12 248.188 1031.72 248.188 1041.1C248.188 1050.47 255.789 1058.07 265.164 1058.07Z" fill="#A43126"/>
<path d="M280.834 1037.83C280.834 1046.85 273.526 1054.16 264.512 1054.16C255.498 1054.16 248.189 1046.85 248.189 1037.83C248.189 1028.82 255.497 1021.51 264.512 1021.51C273.527 1021.51 280.834 1028.82 280.834 1037.83Z" fill="#FFDE43"/>
<path d="M277.569 1037.83C277.569 1045.05 271.722 1050.89 264.511 1050.89C257.3 1050.89 251.453 1045.05 251.453 1037.83C251.453 1030.62 257.3 1024.78 264.511 1024.78C271.722 1024.78 277.569 1030.62 277.569 1037.83Z" fill="url(#paint14_radial_11_444)"/>
<path d="M371.913 1046.98C381.289 1046.98 388.889 1039.38 388.889 1030C388.889 1020.62 381.289 1013.02 371.913 1013.02C362.538 1013.02 354.937 1020.62 354.937 1030C354.937 1039.38 362.538 1046.98 371.913 1046.98Z" fill="#A43126"/>
<path d="M387.583 1026.73C387.583 1035.75 380.275 1043.06 371.261 1043.06C362.247 1043.06 354.938 1035.75 354.938 1026.73C354.938 1017.72 362.246 1010.41 371.261 1010.41C380.276 1010.41 387.583 1017.72 387.583 1026.73Z" fill="#FFDE43"/>
<path d="M384.319 1026.73C384.319 1033.95 378.472 1039.79 371.261 1039.79C364.05 1039.79 358.203 1033.95 358.203 1026.73C358.203 1019.52 364.05 1013.68 371.261 1013.68C378.472 1013.68 384.319 1019.52 384.319 1026.73Z" fill="url(#paint15_radial_11_444)"/>
<path d="M486.155 1039.79C495.531 1039.79 503.131 1032.19 503.131 1022.82C503.131 1013.44 495.531 1005.84 486.155 1005.84C476.78 1005.84 469.179 1013.44 469.179 1022.82C469.179 1032.19 476.78 1039.79 486.155 1039.79Z" fill="#A43126"/>
<path d="M501.824 1019.55C501.824 1028.57 494.516 1035.88 485.502 1035.88C476.488 1035.88 469.179 1028.57 469.179 1019.55C469.179 1010.54 476.487 1003.23 485.502 1003.23C494.517 1003.23 501.824 1010.54 501.824 1019.55Z" fill="#FFDE43"/>
<path d="M498.56 1019.55C498.56 1026.76 492.713 1032.61 485.502 1032.61C478.291 1032.61 472.444 1026.76 472.444 1019.55C472.444 1012.34 478.291 1006.49 485.502 1006.49C492.713 1006.49 498.56 1012.34 498.56 1019.55Z" fill="url(#paint16_radial_11_444)"/>
<path d="M616.32 1046.64C625.696 1046.64 633.296 1039.04 633.296 1029.66C633.296 1020.28 625.696 1012.68 616.32 1012.68C606.945 1012.68 599.344 1020.28 599.344 1029.66C599.344 1039.04 606.945 1046.64 616.32 1046.64Z" fill="#A43126"/>
<path d="M631.99 1026.39C631.99 1035.41 624.682 1042.72 615.668 1042.72C606.654 1042.72 599.345 1035.41 599.345 1026.39C599.345 1017.38 606.653 1010.07 615.668 1010.07C624.683 1010.07 631.99 1017.38 631.99 1026.39Z" fill="#FFDE43"/>
<path d="M628.726 1026.39C628.726 1033.61 622.879 1039.45 615.668 1039.45C608.457 1039.45 602.61 1033.61 602.61 1026.39C602.61 1019.18 608.457 1013.34 615.668 1013.34C622.879 1013.34 628.726 1019.18 628.726 1026.39Z" fill="url(#paint17_radial_11_444)"/>
<path d="M689.748 997.355C699.124 997.355 706.724 989.754 706.724 980.379C706.724 971.003 699.124 963.403 689.748 963.403C680.373 963.403 672.772 971.003 672.772 980.379C672.772 989.754 680.373 997.355 689.748 997.355Z" fill="#A43126"/>
<path d="M705.418 977.115C705.418 986.13 698.11 993.438 689.096 993.438C680.082 993.438 672.773 986.13 672.773 977.115C672.773 968.1 680.081 960.793 689.096 960.793C698.111 960.793 705.418 968.101 705.418 977.115Z" fill="#FFDE43"/>
<path d="M702.154 977.115C702.154 984.327 696.307 990.173 689.096 990.173C681.885 990.173 676.038 984.327 676.038 977.115C676.038 969.903 681.885 964.057 689.096 964.057C696.307 964.057 702.154 969.903 702.154 977.115Z" fill="url(#paint18_radial_11_444)"/>
<path d="M723.699 914.27C733.075 914.27 740.675 906.669 740.675 897.294C740.675 887.918 733.075 880.318 723.699 880.318C714.324 880.318 706.723 887.918 706.723 897.294C706.723 906.669 714.324 914.27 723.699 914.27Z" fill="#A43126"/>
<path d="M739.369 894.03C739.369 903.045 732.061 910.353 723.047 910.353C714.033 910.353 706.724 903.045 706.724 894.03C706.724 885.015 714.032 877.708 723.047 877.708C732.062 877.708 739.369 885.016 739.369 894.03Z" fill="#FFDE43"/>
<path d="M736.105 894.03C736.105 901.242 730.258 907.088 723.047 907.088C715.836 907.088 709.989 901.242 709.989 894.03C709.989 886.818 715.836 880.972 723.047 880.972C730.258 880.972 736.105 886.818 736.105 894.03Z" fill="url(#paint19_radial_11_444)"/>
<path d="M746.486 809.443C755.862 809.443 763.462 801.842 763.462 792.467C763.462 783.091 755.862 775.491 746.486 775.491C737.111 775.491 729.51 783.091 729.51 792.467C729.51 801.842 737.111 809.443 746.486 809.443Z" fill="#A43126"/>
<path d="M762.156 789.203C762.156 798.218 754.848 805.526 745.834 805.526C736.82 805.526 729.511 798.218 729.511 789.203C729.511 780.188 736.819 772.881 745.834 772.881C754.849 772.881 762.156 780.189 762.156 789.203Z" fill="#FFDE43"/>
<path d="M758.892 789.203C758.892 796.415 753.045 802.26 745.834 802.26C738.623 802.26 732.776 796.415 732.776 789.203C732.776 781.991 738.623 776.145 745.834 776.145C753.045 776.145 758.892 781.991 758.892 789.203Z" fill="url(#paint20_radial_11_444)"/>
<path d="M758.892 704.616C768.268 704.616 775.868 697.015 775.868 687.64C775.868 678.264 768.268 670.664 758.892 670.664C749.517 670.664 741.916 678.264 741.916 687.64C741.916 697.015 749.517 704.616 758.892 704.616Z" fill="#A43126"/>
<path d="M774.562 684.375C774.562 693.39 767.254 700.698 758.24 700.698C749.226 700.698 741.917 693.39 741.917 684.375C741.917 675.36 749.225 668.053 758.24 668.053C767.255 668.053 774.562 675.361 774.562 684.375Z" fill="#FFDE43"/>
<path d="M771.297 684.375C771.297 691.587 765.45 697.433 758.239 697.433C751.028 697.433 745.181 691.587 745.181 684.375C745.181 677.163 751.028 671.317 758.239 671.317C765.45 671.317 771.297 677.163 771.297 684.375Z" fill="url(#paint21_radial_11_444)"/>
<path d="M758.239 606.557C767.615 606.557 775.215 598.956 775.215 589.581C775.215 580.205 767.615 572.605 758.239 572.605C748.864 572.605 741.263 580.205 741.263 589.581C741.263 598.956 748.864 606.557 758.239 606.557Z" fill="#A43126"/>
<path d="M773.909 586.317C773.909 595.332 766.601 602.64 757.587 602.64C748.573 602.64 741.264 595.332 741.264 586.317C741.264 577.302 748.572 569.995 757.587 569.995C766.602 569.995 773.909 577.303 773.909 586.317Z" fill="#FFDE43"/>
<path d="M770.644 586.317C770.644 593.529 764.797 599.375 757.586 599.375C750.375 599.375 744.528 593.529 744.528 586.317C744.528 579.105 750.375 573.259 757.586 573.259C764.797 573.259 770.644 579.105 770.644 586.317Z" fill="url(#paint22_radial_11_444)"/>
<path d="M752.812 499.238C762.188 499.238 769.788 491.637 769.788 482.262C769.788 472.886 762.188 465.286 752.812 465.286C743.437 465.286 735.836 472.886 735.836 482.262C735.836 491.637 743.437 499.238 752.812 499.238Z" fill="#A43126"/>
<path d="M768.482 478.998C768.482 488.013 761.174 495.321 752.16 495.321C743.146 495.321 735.837 488.013 735.837 478.998C735.837 469.983 743.145 462.676 752.16 462.676C761.175 462.676 768.482 469.984 768.482 478.998Z" fill="#FFDE43"/>
<path d="M765.217 478.998C765.217 486.21 759.37 492.056 752.159 492.056C744.948 492.056 739.101 486.21 739.101 478.998C739.101 471.786 744.948 465.94 752.159 465.94C759.37 465.94 765.217 471.786 765.217 478.998Z" fill="url(#paint23_radial_11_444)"/>
<path d="M65.5434 553.626C74.919 553.626 82.5193 546.025 82.5193 536.65C82.5193 527.274 74.919 519.674 65.5434 519.674C56.1678 519.674 48.5674 527.274 48.5674 536.65C48.5674 546.025 56.1678 553.626 65.5434 553.626Z" fill="#A43126"/>
<path d="M81.2124 533.386C81.2124 542.401 73.9044 549.709 64.8904 549.709C55.8764 549.709 48.5674 542.401 48.5674 533.386C48.5674 524.371 55.8754 517.064 64.8904 517.064C73.9054 517.064 81.2124 524.372 81.2124 533.386Z" fill="#FFDE43"/>
<path d="M77.9484 533.386C77.9484 540.598 72.1014 546.444 64.8904 546.444C57.6794 546.444 51.8324 540.598 51.8324 533.386C51.8324 526.174 57.6794 520.328 64.8904 520.328C72.1014 520.328 77.9484 526.174 77.9484 533.386Z" fill="url(#paint24_radial_11_444)"/>
<path d="M62.9313 659.489C72.3069 659.489 79.9073 651.888 79.9073 642.513C79.9073 633.137 72.3069 625.537 62.9313 625.537C53.5557 625.537 45.9553 633.137 45.9553 642.513C45.9553 651.888 53.5557 659.489 62.9313 659.489Z" fill="#A43126"/>
<path d="M78.6013 639.249C78.6013 648.264 71.2933 655.572 62.2793 655.572C53.2653 655.572 45.9563 648.264 45.9563 639.249C45.9563 630.234 53.2643 622.927 62.2793 622.927C71.2943 622.927 78.6013 630.235 78.6013 639.249Z" fill="#FFDE43"/>
<path d="M75.3373 639.249C75.3373 646.461 69.4903 652.307 62.2793 652.307C55.0683 652.307 49.2213 646.461 49.2213 639.249C49.2213 632.037 55.0683 626.191 62.2793 626.191C69.4903 626.191 75.3373 632.037 75.3373 639.249Z" fill="url(#paint25_radial_11_444)"/>
<path d="M464.079 81.8916C473.455 81.8916 481.055 74.2912 481.055 64.9156C481.055 55.54 473.455 47.9396 464.079 47.9396C454.704 47.9396 447.103 55.54 447.103 64.9156C447.103 74.2912 454.704 81.8916 464.079 81.8916Z" fill="#A43126"/>
<path d="M479.748 61.6516C479.748 70.6666 472.44 77.9746 463.426 77.9746C454.412 77.9746 447.103 70.6666 447.103 61.6516C447.103 52.6366 454.411 45.3296 463.426 45.3296C472.441 45.3296 479.748 52.6376 479.748 61.6516Z" fill="#FFDE43"/>
<path d="M476.484 61.6516C476.484 68.8636 470.637 74.7096 463.426 74.7096C456.215 74.7096 450.368 68.8636 450.368 61.6516C450.368 54.4396 456.215 48.5936 463.426 48.5936C470.637 48.5936 476.484 54.4396 476.484 61.6516Z" fill="url(#paint26_radial_11_444)"/>
<path d="M533.608 63.6106C542.984 63.6106 550.584 56.0102 550.584 46.6346C550.584 37.259 542.984 29.6586 533.608 29.6586C524.233 29.6586 516.632 37.259 516.632 46.6346C516.632 56.0102 524.233 63.6106 533.608 63.6106Z" fill="#A43126"/>
<path d="M549.278 43.3706C549.278 52.3856 541.97 59.6936 532.956 59.6936C523.942 59.6936 516.633 52.3856 516.633 43.3706C516.633 34.3556 523.941 27.0486 532.956 27.0486C541.971 27.0486 549.278 34.3566 549.278 43.3706Z" fill="#FFDE43"/>
<path d="M546.013 43.3706C546.013 50.5826 540.166 56.4286 532.955 56.4286C525.744 56.4286 519.897 50.5826 519.897 43.3706C519.897 36.1586 525.744 30.3126 532.955 30.3126C540.166 30.3126 546.013 36.1586 546.013 43.3706Z" fill="url(#paint27_radial_11_444)"/>
<path d="M603.577 54.4696C612.953 54.4696 620.553 46.8692 620.553 37.4936C620.553 28.118 612.953 20.5176 603.577 20.5176C594.202 20.5176 586.601 28.118 586.601 37.4936C586.601 46.8692 594.202 54.4696 603.577 54.4696Z" fill="#A43126"/>
<path d="M619.247 34.2296C619.247 43.2446 611.939 50.5526 602.925 50.5526C593.911 50.5526 586.602 43.2446 586.602 34.2296C586.602 25.2146 593.91 17.9076 602.925 17.9076C611.94 17.9076 619.247 25.2156 619.247 34.2296Z" fill="#FFDE43"/>
<path d="M615.982 34.2296C615.982 41.4416 610.135 47.2876 602.924 47.2876C595.713 47.2876 589.866 41.4416 589.866 34.2296C589.866 27.0176 595.713 21.1716 602.924 21.1716C610.135 21.1716 615.982 27.0176 615.982 34.2296Z" fill="url(#paint28_radial_11_444)"/>
<path d="M673.546 57.7347C682.922 57.7347 690.522 50.1343 690.522 40.7587C690.522 31.3831 682.922 23.7827 673.546 23.7827C664.171 23.7827 656.57 31.3831 656.57 40.7587C656.57 50.1343 664.171 57.7347 673.546 57.7347Z" fill="#A43126"/>
<path d="M689.216 37.4937C689.216 46.5087 681.908 53.8167 672.894 53.8167C663.88 53.8167 656.571 46.5087 656.571 37.4937C656.571 28.4787 663.879 21.1716 672.894 21.1716C681.909 21.1716 689.216 28.4797 689.216 37.4937Z" fill="#FFDE43"/>
<path d="M685.952 37.4937C685.952 44.7057 680.105 50.5517 672.894 50.5517C665.683 50.5517 659.836 44.7057 659.836 37.4937C659.836 30.2817 665.683 24.4357 672.894 24.4357C680.105 24.4357 685.952 30.2817 685.952 37.4937Z" fill="url(#paint29_radial_11_444)"/>
<path d="M737.795 98.2146C747.171 98.2146 754.771 90.6142 754.771 81.2386C754.771 71.863 747.171 64.2626 737.795 64.2626C728.42 64.2626 720.819 71.863 720.819 81.2386C720.819 90.6142 728.42 98.2146 737.795 98.2146Z" fill="#A43126"/>
<path d="M753.465 77.9736C753.465 86.9886 746.157 94.2966 737.143 94.2966C728.129 94.2966 720.82 86.9886 720.82 77.9736C720.82 68.9586 728.128 61.6516 737.143 61.6516C746.158 61.6516 753.465 68.9596 753.465 77.9736Z" fill="#FFDE43"/>
<path d="M750.2 77.9736C750.2 85.1856 744.353 91.0316 737.142 91.0316C729.931 91.0316 724.084 85.1856 724.084 77.9736C724.084 70.7616 729.931 64.9156 737.142 64.9156C744.353 64.9156 750.2 70.7616 750.2 77.9736Z" fill="url(#paint30_radial_11_444)"/>
<path d="M760.943 170.733C770.319 170.733 777.919 163.132 777.919 153.757C777.919 144.381 770.319 136.781 760.943 136.781C751.568 136.781 743.967 144.381 743.967 153.757C743.967 163.132 751.568 170.733 760.943 170.733Z" fill="#A43126"/>
<path d="M776.613 150.492C776.613 159.507 769.305 166.815 760.291 166.815C751.277 166.815 743.968 159.507 743.968 150.492C743.968 141.477 751.276 134.17 760.291 134.17C769.306 134.17 776.613 141.478 776.613 150.492Z" fill="#FFDE43"/>
<path d="M773.348 150.492C773.348 157.704 767.501 163.55 760.29 163.55C753.079 163.55 747.232 157.704 747.232 150.492C747.232 143.28 753.079 137.434 760.29 137.434C767.501 137.434 773.348 143.28 773.348 150.492Z" fill="url(#paint31_radial_11_444)"/>
<path d="M753.465 259.676C762.841 259.676 770.441 252.075 770.441 242.7C770.441 233.324 762.841 225.724 753.465 225.724C744.09 225.724 736.489 233.324 736.489 242.7C736.489 252.075 744.09 259.676 753.465 259.676Z" fill="#A43126"/>
<path d="M769.135 239.436C769.135 248.451 761.827 255.759 752.813 255.759C743.799 255.759 736.49 248.451 736.49 239.436C736.49 230.421 743.798 223.114 752.813 223.114C761.828 223.114 769.135 230.422 769.135 239.436Z" fill="#FFDE43"/>
<path d="M765.87 239.436C765.87 246.648 760.023 252.494 752.812 252.494C745.601 252.494 739.754 246.648 739.754 239.436C739.754 232.224 745.601 226.378 752.812 226.378C760.023 226.378 765.87 232.224 765.87 239.436Z" fill="url(#paint32_radial_11_444)"/>
<path d="M732.166 376.096C741.542 376.096 749.142 368.495 749.142 359.12C749.142 349.744 741.542 342.144 732.166 342.144C722.791 342.144 715.19 349.744 715.19 359.12C715.19 368.495 722.791 376.096 732.166 376.096Z" fill="#A43126"/>
<path d="M747.836 355.856C747.836 364.871 740.528 372.179 731.514 372.179C722.5 372.179 715.191 364.871 715.191 355.856C715.191 346.841 722.499 339.534 731.514 339.534C740.529 339.534 747.836 346.842 747.836 355.856Z" fill="#FFDE43"/>
<path d="M744.572 355.856C744.572 363.068 738.725 368.914 731.514 368.914C724.303 368.914 718.456 363.068 718.456 355.856C718.456 348.644 724.303 342.798 731.514 342.798C738.725 342.798 744.572 348.644 744.572 355.856Z" fill="url(#paint33_radial_11_444)"/>
<defs>
<radialGradient id="paint0_radial_11_444" cx="0" cy="0" r="1" gradientUnits="userSpaceOnUse" gradientTransform="translate(392.208 536.773) scale(413.38 413.38)">
<stop stop-color="#FCFDFF"/>
<stop offset="0.183" stop-color="#FBFAF9"/>
<stop offset="0.407" stop-color="#F9F5EA"/>
<stop offset="0.653" stop-color="#F5EBD1"/>
<stop offset="0.913" stop-color="#F0DEAF"/>
<stop offset="1" stop-color="#EFD9A2"/>
</radialGradient>
<radialGradient id="paint1_radial_11_444" cx="0" cy="0" r="1" gradientUnits="userSpaceOnUse" gradientTransform="translate(400.937 76.6676) scale(13.058 13.058)">
<stop stop-color="white"/>
<stop offset="0.146" stop-color="#FEFEFF" stop-opacity="0.986"/>
<stop offset="0.275" stop-color="#FEFEFF" stop-opacity="0.944"/>
<stop offset="0.396" stop-color="#FEFEFF" stop-opacity="0.874"/>
<stop offset="0.514" stop-color="#FEFEFF" stop-opacity="0.774"/>
<stop offset="0.628" stop-color="#FDFEFF" stop-opacity="0.646"/>
<stop offset="0.741" stop-color="#FDFDFF" stop-opacity="0.488"/>
<stop offset="0.852" stop-color="#FCFDFF" stop-opacity="0.302"/>
<stop offset="0.958" stop-color="#FCFDFF" stop-opacity="0.091"/>
<stop offset="1" stop-color="#FCFDFF" stop-opacity="0"/>
</radialGradient>
<radialGradient id="paint2_radial_11_444" cx="0" cy="0" r="1" gradientUnits="userSpaceOnUse" gradientTransform="translate(323.927 87.7676) scale(13.058 13.058)">
<stop stop-color="white"/>
<stop offset="0.146" stop-color="#FEFEFF" stop-opacity="0.986"/>
<stop offset="0.275" stop-color="#FEFEFF" stop-opacity="0.944"/>
<stop offset="0.396" stop-color="#FEFEFF" stop-opacity="0.874"/>
<stop offset="0.514" stop-color="#FEFEFF" stop-opacity="0.774"/>
<stop offset="0.628" stop-color="#FDFEFF" stop-opacity="0.646"/>
<stop offset="0.741" stop-color="#FDFDFF" stop-opacity="0.488"/>
<stop offset="0.852" stop-color="#FCFDFF" stop-opacity="0.302"/>
<stop offset="0.958" stop-color="#FCFDFF" stop-opacity="0.091"/>
<stop offset="1" stop-color="#FCFDFF" stop-opacity="0"/>
</radialGradient>
<radialGradient id="paint3_radial_11_444" cx="0" cy="0" r="1" gradientUnits="userSpaceOnUse" gradientTransform="translate(243.261 98.8666) scale(13.058 13.058)">
<stop stop-color="white"/>
<stop offset="0.146" stop-color="#FEFEFF" stop-opacity="0.986"/>
<stop offset="0.275" stop-color="#FEFEFF" stop-opacity="0.944"/>
<stop offset="0.396" stop-color="#FEFEFF" stop-opacity="0.874"/>
<stop offset="0.514" stop-color="#FEFEFF" stop-opacity="0.774"/>
<stop offset="0.628" stop-color="#FDFEFF" stop-opacity="0.646"/>
<stop offset="0.741" stop-color="#FDFDFF" stop-opacity="0.488"/>
<stop offset="0.852" stop-color="#FCFDFF" stop-opacity="0.302"/>
<stop offset="0.958" stop-color="#FCFDFF" stop-opacity="0.091"/>
<stop offset="1" stop-color="#FCFDFF" stop-opacity="0"/>
</radialGradient>
<radialGradient id="paint4_radial_11_444" cx="0" cy="0" r="1" gradientUnits="userSpaceOnUse" gradientTransform="translate(144.89 109.966) scale(13.058 13.058)">
<stop stop-color="white"/>
<stop offset="0.146" stop-color="#FEFEFF" stop-opacity="0.986"/>
<stop offset="0.275" stop-color="#FEFEFF" stop-opacity="0.944"/>
<stop offset="0.396" stop-color="#FEFEFF" stop-opacity="0.874"/>
<stop offset="0.514" stop-color="#FEFEFF" stop-opacity="0.774"/>
<stop offset="0.628" stop-color="#FDFEFF" stop-opacity="0.646"/>
<stop offset="0.741" stop-color="#FDFDFF" stop-opacity="0.488"/>
<stop offset="0.852" stop-color="#FCFDFF" stop-opacity="0.302"/>
<stop offset="0.958" stop-color="#FCFDFF" stop-opacity="0.091"/>
<stop offset="1" stop-color="#FCFDFF" stop-opacity="0"/>
</radialGradient>
<radialGradient id="paint5_radial_11_444" cx="0" cy="0" r="1" gradientUnits="userSpaceOnUse" gradientTransform="translate(61.6252 151.798) scale(13.058 13.058)">
<stop stop-color="white"/>
<stop offset="0.146" stop-color="#FEFEFF" stop-opacity="0.986"/>
<stop offset="0.275" stop-color="#FEFEFF" stop-opacity="0.944"/>
<stop offset="0.396" stop-color="#FEFEFF" stop-opacity="0.874"/>
<stop offset="0.514" stop-color="#FEFEFF" stop-opacity="0.774"/>
<stop offset="0.628" stop-color="#FDFEFF" stop-opacity="0.646"/>
<stop offset="0.741" stop-color="#FDFDFF" stop-opacity="0.488"/>
<stop offset="0.852" stop-color="#FCFDFF" stop-opacity="0.302"/>
<stop offset="0.958" stop-color="#FCFDFF" stop-opacity="0.091"/>
<stop offset="1" stop-color="#FCFDFF" stop-opacity="0"/>
</radialGradient>
<radialGradient id="paint6_radial_11_444" cx="0" cy="0" r="1" gradientUnits="userSpaceOnUse" gradientTransform="translate(22.8213 237.477) scale(13.058 13.058)">
<stop stop-color="white"/>
<stop offset="0.146" stop-color="#FEFEFF" stop-opacity="0.986"/>
<stop offset="0.275" stop-color="#FEFEFF" stop-opacity="0.944"/>
<stop offset="0.396" stop-color="#FEFEFF" stop-opacity="0.874"/>
<stop offset="0.514" stop-color="#FEFEFF" stop-opacity="0.774"/>
<stop offset="0.628" stop-color="#FDFEFF" stop-opacity="0.646"/>
<stop offset="0.741" stop-color="#FDFDFF" stop-opacity="0.488"/>
<stop offset="0.852" stop-color="#FCFDFF" stop-opacity="0.302"/>
<stop offset="0.958" stop-color="#FCFDFF" stop-opacity="0.091"/>
<stop offset="1" stop-color="#FCFDFF" stop-opacity="0"/>
</radialGradient>
<radialGradient id="paint7_radial_11_444" cx="0" cy="0" r="1" gradientUnits="userSpaceOnUse" gradientTransform="translate(30.2993 328.379) scale(13.058)">
<stop stop-color="white"/>
<stop offset="0.146" stop-color="#FEFEFF" stop-opacity="0.986"/>
<stop offset="0.275" stop-color="#FEFEFF" stop-opacity="0.944"/>
<stop offset="0.396" stop-color="#FEFEFF" stop-opacity="0.874"/>
<stop offset="0.514" stop-color="#FEFEFF" stop-opacity="0.774"/>
<stop offset="0.628" stop-color="#FDFEFF" stop-opacity="0.646"/>
<stop offset="0.741" stop-color="#FDFDFF" stop-opacity="0.488"/>
<stop offset="0.852" stop-color="#FCFDFF" stop-opacity="0.302"/>
<stop offset="0.958" stop-color="#FCFDFF" stop-opacity="0.091"/>
<stop offset="1" stop-color="#FCFDFF" stop-opacity="0"/>
</radialGradient>
<radialGradient id="paint8_radial_11_444" cx="0" cy="0" r="1" gradientUnits="userSpaceOnUse" gradientTransform="translate(47.9143 430.611) scale(13.058 13.058)">
<stop stop-color="white"/>
<stop offset="0.146" stop-color="#FEFEFF" stop-opacity="0.986"/>
<stop offset="0.275" stop-color="#FEFEFF" stop-opacity="0.944"/>
<stop offset="0.396" stop-color="#FEFEFF" stop-opacity="0.874"/>
<stop offset="0.514" stop-color="#FEFEFF" stop-opacity="0.774"/>
<stop offset="0.628" stop-color="#FDFEFF" stop-opacity="0.646"/>
<stop offset="0.741" stop-color="#FDFDFF" stop-opacity="0.488"/>
<stop offset="0.852" stop-color="#FCFDFF" stop-opacity="0.302"/>
<stop offset="0.958" stop-color="#FCFDFF" stop-opacity="0.091"/>
<stop offset="1" stop-color="#FCFDFF" stop-opacity="0"/>
</radialGradient>
<radialGradient id="paint9_radial_11_444" cx="0" cy="0" r="1" gradientUnits="userSpaceOnUse" gradientTransform="translate(53.7383 745.111) scale(13.058)">
<stop stop-color="white"/>
<stop offset="0.146" stop-color="#FEFEFF" stop-opacity="0.986"/>
<stop offset="0.275" stop-color="#FEFEFF" stop-opacity="0.944"/>
<stop offset="0.396" stop-color="#FEFEFF" stop-opacity="0.874"/>
<stop offset="0.514" stop-color="#FEFEFF" stop-opacity="0.774"/>
<stop offset="0.628" stop-color="#FDFEFF" stop-opacity="0.646"/>
<stop offset="0.741" stop-color="#FDFDFF" stop-opacity="0.488"/>
<stop offset="0.852" stop-color="#FCFDFF" stop-opacity="0.302"/>
<stop offset="0.958" stop-color="#FCFDFF" stop-opacity="0.091"/>
<stop offset="1" stop-color="#FCFDFF" stop-opacity="0"/>
</radialGradient>
<radialGradient id="paint10_radial_11_444" cx="0" cy="0" r="1" gradientUnits="userSpaceOnUse" gradientTransform="translate(43.3443 834.148) scale(13.058 13.058)">
<stop stop-color="white"/>
<stop offset="0.146" stop-color="#FEFEFF" stop-opacity="0.986"/>
<stop offset="0.275" stop-color="#FEFEFF" stop-opacity="0.944"/>
<stop offset="0.396" stop-color="#FEFEFF" stop-opacity="0.874"/>
<stop offset="0.514" stop-color="#FEFEFF" stop-opacity="0.774"/>
<stop offset="0.628" stop-color="#FDFEFF" stop-opacity="0.646"/>
<stop offset="0.741" stop-color="#FDFDFF" stop-opacity="0.488"/>
<stop offset="0.852" stop-color="#FCFDFF" stop-opacity="0.302"/>
<stop offset="0.958" stop-color="#FCFDFF" stop-opacity="0.091"/>
<stop offset="1" stop-color="#FCFDFF" stop-opacity="0"/>
</radialGradient>
<radialGradient id="paint11_radial_11_444" cx="0" cy="0" r="1" gradientUnits="userSpaceOnUse" gradientTransform="translate(34.2034 930.272) scale(13.058 13.058)">
<stop stop-color="white"/>
<stop offset="0.146" stop-color="#FEFEFF" stop-opacity="0.986"/>
<stop offset="0.275" stop-color="#FEFEFF" stop-opacity="0.944"/>
<stop offset="0.396" stop-color="#FEFEFF" stop-opacity="0.874"/>
<stop offset="0.514" stop-color="#FEFEFF" stop-opacity="0.774"/>
<stop offset="0.628" stop-color="#FDFEFF" stop-opacity="0.646"/>
<stop offset="0.741" stop-color="#FDFDFF" stop-opacity="0.488"/>
<stop offset="0.852" stop-color="#FCFDFF" stop-opacity="0.302"/>
<stop offset="0.958" stop-color="#FCFDFF" stop-opacity="0.091"/>
<stop offset="1" stop-color="#FCFDFF" stop-opacity="0"/>
</radialGradient>
<radialGradient id="paint12_radial_11_444" cx="0" cy="0" r="1" gradientUnits="userSpaceOnUse" gradientTransform="translate(75.9893 1010.41) scale(13.058 13.058)">
<stop stop-color="white"/>
<stop offset="0.146" stop-color="#FEFEFF" stop-opacity="0.986"/>
<stop offset="0.275" stop-color="#FEFEFF" stop-opacity="0.944"/>
<stop offset="0.396" stop-color="#FEFEFF" stop-opacity="0.874"/>
<stop offset="0.514" stop-color="#FEFEFF" stop-opacity="0.774"/>
<stop offset="0.628" stop-color="#FDFEFF" stop-opacity="0.646"/>
<stop offset="0.741" stop-color="#FDFDFF" stop-opacity="0.488"/>
<stop offset="0.852" stop-color="#FCFDFF" stop-opacity="0.302"/>
<stop offset="0.958" stop-color="#FCFDFF" stop-opacity="0.091"/>
<stop offset="1" stop-color="#FCFDFF" stop-opacity="0"/>
</radialGradient>
<radialGradient id="paint13_radial_11_444" cx="0" cy="0" r="1" gradientUnits="userSpaceOnUse" gradientTransform="translate(168.303 1039.79) scale(13.058 13.058)">
<stop stop-color="white"/>
<stop offset="0.146" stop-color="#FEFEFF" stop-opacity="0.986"/>
<stop offset="0.275" stop-color="#FEFEFF" stop-opacity="0.944"/>
<stop offset="0.396" stop-color="#FEFEFF" stop-opacity="0.874"/>
<stop offset="0.514" stop-color="#FEFEFF" stop-opacity="0.774"/>
<stop offset="0.628" stop-color="#FDFEFF" stop-opacity="0.646"/>
<stop offset="0.741" stop-color="#FDFDFF" stop-opacity="0.488"/>
<stop offset="0.852" stop-color="#FCFDFF" stop-opacity="0.302"/>
<stop offset="0.958" stop-color="#FCFDFF" stop-opacity="0.091"/>
<stop offset="1" stop-color="#FCFDFF" stop-opacity="0"/>
</radialGradient>
<radialGradient id="paint14_radial_11_444" cx="0" cy="0" r="1" gradientUnits="userSpaceOnUse" gradientTransform="translate(264.511 1037.83) scale(13.058 13.058)">
<stop stop-color="white"/>
<stop offset="0.146" stop-color="#FEFEFF" stop-opacity="0.986"/>
<stop offset="0.275" stop-color="#FEFEFF" stop-opacity="0.944"/>
<stop offset="0.396" stop-color="#FEFEFF" stop-opacity="0.874"/>
<stop offset="0.514" stop-color="#FEFEFF" stop-opacity="0.774"/>
<stop offset="0.628" stop-color="#FDFEFF" stop-opacity="0.646"/>
<stop offset="0.741" stop-color="#FDFDFF" stop-opacity="0.488"/>
<stop offset="0.852" stop-color="#FCFDFF" stop-opacity="0.302"/>
<stop offset="0.958" stop-color="#FCFDFF" stop-opacity="0.091"/>
<stop offset="1" stop-color="#FCFDFF" stop-opacity="0"/>
</radialGradient>
<radialGradient id="paint15_radial_11_444" cx="0" cy="0" r="1" gradientUnits="userSpaceOnUse" gradientTransform="translate(371.26 1026.73) scale(13.058 13.058)">
<stop stop-color="white"/>
<stop offset="0.146" stop-color="#FEFEFF" stop-opacity="0.986"/>
<stop offset="0.275" stop-color="#FEFEFF" stop-opacity="0.944"/>
<stop offset="0.396" stop-color="#FEFEFF" stop-opacity="0.874"/>
<stop offset="0.514" stop-color="#FEFEFF" stop-opacity="0.774"/>
<stop offset="0.628" stop-color="#FDFEFF" stop-opacity="0.646"/>
<stop offset="0.741" stop-color="#FDFDFF" stop-opacity="0.488"/>
<stop offset="0.852" stop-color="#FCFDFF" stop-opacity="0.302"/>
<stop offset="0.958" stop-color="#FCFDFF" stop-opacity="0.091"/>
<stop offset="1" stop-color="#FCFDFF" stop-opacity="0"/>
</radialGradient>
<radialGradient id="paint16_radial_11_444" cx="0" cy="0" r="1" gradientUnits="userSpaceOnUse" gradientTransform="translate(485.502 1019.55) scale(13.058)">
<stop stop-color="white"/>
<stop offset="0.146" stop-color="#FEFEFF" stop-opacity="0.986"/>
<stop offset="0.275" stop-color="#FEFEFF" stop-opacity="0.944"/>
<stop offset="0.396" stop-color="#FEFEFF" stop-opacity="0.874"/>
<stop offset="0.514" stop-color="#FEFEFF" stop-opacity="0.774"/>
<stop offset="0.628" stop-color="#FDFEFF" stop-opacity="0.646"/>
<stop offset="0.741" stop-color="#FDFDFF" stop-opacity="0.488"/>
<stop offset="0.852" stop-color="#FCFDFF" stop-opacity="0.302"/>
<stop offset="0.958" stop-color="#FCFDFF" stop-opacity="0.091"/>
<stop offset="1" stop-color="#FCFDFF" stop-opacity="0"/>
</radialGradient>
<radialGradient id="paint17_radial_11_444" cx="0" cy="0" r="1" gradientUnits="userSpaceOnUse" gradientTransform="translate(615.668 1026.39) scale(13.058)">
<stop stop-color="white"/>
<stop offset="0.146" stop-color="#FEFEFF" stop-opacity="0.986"/>
<stop offset="0.275" stop-color="#FEFEFF" stop-opacity="0.944"/>
<stop offset="0.396" stop-color="#FEFEFF" stop-opacity="0.874"/>
<stop offset="0.514" stop-color="#FEFEFF" stop-opacity="0.774"/>
<stop offset="0.628" stop-color="#FDFEFF" stop-opacity="0.646"/>
<stop offset="0.741" stop-color="#FDFDFF" stop-opacity="0.488"/>
<stop offset="0.852" stop-color="#FCFDFF" stop-opacity="0.302"/>
<stop offset="0.958" stop-color="#FCFDFF" stop-opacity="0.091"/>
<stop offset="1" stop-color="#FCFDFF" stop-opacity="0"/>
</radialGradient>
<radialGradient id="paint18_radial_11_444" cx="0" cy="0" r="1" gradientUnits="userSpaceOnUse" gradientTransform="translate(689.095 977.115) scale(13.058)">
<stop stop-color="white"/>
<stop offset="0.146" stop-color="#FEFEFF" stop-opacity="0.986"/>
<stop offset="0.275" stop-color="#FEFEFF" stop-opacity="0.944"/>
<stop offset="0.396" stop-color="#FEFEFF" stop-opacity="0.874"/>
<stop offset="0.514" stop-color="#FEFEFF" stop-opacity="0.774"/>
<stop offset="0.628" stop-color="#FDFEFF" stop-opacity="0.646"/>
<stop offset="0.741" stop-color="#FDFDFF" stop-opacity="0.488"/>
<stop offset="0.852" stop-color="#FCFDFF" stop-opacity="0.302"/>
<stop offset="0.958" stop-color="#FCFDFF" stop-opacity="0.091"/>
<stop offset="1" stop-color="#FCFDFF" stop-opacity="0"/>
</radialGradient>
<radialGradient id="paint19_radial_11_444" cx="0" cy="0" r="1" gradientUnits="userSpaceOnUse" gradientTransform="translate(723.046 894.03) scale(13.058)">
<stop stop-color="white"/>
<stop offset="0.146" stop-color="#FEFEFF" stop-opacity="0.986"/>
<stop offset="0.275" stop-color="#FEFEFF" stop-opacity="0.944"/>
<stop offset="0.396" stop-color="#FEFEFF" stop-opacity="0.874"/>
<stop offset="0.514" stop-color="#FEFEFF" stop-opacity="0.774"/>
<stop offset="0.628" stop-color="#FDFEFF" stop-opacity="0.646"/>
<stop offset="0.741" stop-color="#FDFDFF" stop-opacity="0.488"/>
<stop offset="0.852" stop-color="#FCFDFF" stop-opacity="0.302"/>
<stop offset="0.958" stop-color="#FCFDFF" stop-opacity="0.091"/>
<stop offset="1" stop-color="#FCFDFF" stop-opacity="0"/>
</radialGradient>
<radialGradient id="paint20_radial_11_444" cx="0" cy="0" r="1" gradientUnits="userSpaceOnUse" gradientTransform="translate(745.834 789.203) scale(13.058)">
<stop stop-color="white"/>
<stop offset="0.146" stop-color="#FEFEFF" stop-opacity="0.986"/>
<stop offset="0.275" stop-color="#FEFEFF" stop-opacity="0.944"/>
<stop offset="0.396" stop-color="#FEFEFF" stop-opacity="0.874"/>
<stop offset="0.514" stop-color="#FEFEFF" stop-opacity="0.774"/>
<stop offset="0.628" stop-color="#FDFEFF" stop-opacity="0.646"/>
<stop offset="0.741" stop-color="#FDFDFF" stop-opacity="0.488"/>
<stop offset="0.852" stop-color="#FCFDFF" stop-opacity="0.302"/>
<stop offset="0.958" stop-color="#FCFDFF" stop-opacity="0.091"/>
<stop offset="1" stop-color="#FCFDFF" stop-opacity="0"/>
</radialGradient>
<radialGradient id="paint21_radial_11_444" cx="0" cy="0" r="1" gradientUnits="userSpaceOnUse" gradientTransform="translate(758.239 684.375) scale(13.058 13.058)">
<stop stop-color="white"/>
<stop offset="0.146" stop-color="#FEFEFF" stop-opacity="0.986"/>
<stop offset="0.275" stop-color="#FEFEFF" stop-opacity="0.944"/>
<stop offset="0.396" stop-color="#FEFEFF" stop-opacity="0.874"/>
<stop offset="0.514" stop-color="#FEFEFF" stop-opacity="0.774"/>
<stop offset="0.628" stop-color="#FDFEFF" stop-opacity="0.646"/>
<stop offset="0.741" stop-color="#FDFDFF" stop-opacity="0.488"/>
<stop offset="0.852" stop-color="#FCFDFF" stop-opacity="0.302"/>
<stop offset="0.958" stop-color="#FCFDFF" stop-opacity="0.091"/>
<stop offset="1" stop-color="#FCFDFF" stop-opacity="0"/>
</radialGradient>
<radialGradient id="paint22_radial_11_444" cx="0" cy="0" r="1" gradientUnits="userSpaceOnUse" gradientTransform="translate(757.586 586.317) scale(13.058 13.058)">
<stop stop-color="white"/>
<stop offset="0.146" stop-color="#FEFEFF" stop-opacity="0.986"/>
<stop offset="0.275" stop-color="#FEFEFF" stop-opacity="0.944"/>
<stop offset="0.396" stop-color="#FEFEFF" stop-opacity="0.874"/>
<stop offset="0.514" stop-color="#FEFEFF" stop-opacity="0.774"/>
<stop offset="0.628" stop-color="#FDFEFF" stop-opacity="0.646"/>
<stop offset="0.741" stop-color="#FDFDFF" stop-opacity="0.488"/>
<stop offset="0.852" stop-color="#FCFDFF" stop-opacity="0.302"/>
<stop offset="0.958" stop-color="#FCFDFF" stop-opacity="0.091"/>
<stop offset="1" stop-color="#FCFDFF" stop-opacity="0"/>
</radialGradient>
<radialGradient id="paint23_radial_11_444" cx="0" cy="0" r="1" gradientUnits="userSpaceOnUse" gradientTransform="translate(752.159 478.998) scale(13.058 13.058)">
<stop stop-color="white"/>
<stop offset="0.146" stop-color="#FEFEFF" stop-opacity="0.986"/>
<stop offset="0.275" stop-color="#FEFEFF" stop-opacity="0.944"/>
<stop offset="0.396" stop-color="#FEFEFF" stop-opacity="0.874"/>
<stop offset="0.514" stop-color="#FEFEFF" stop-opacity="0.774"/>
<stop offset="0.628" stop-color="#FDFEFF" stop-opacity="0.646"/>
<stop offset="0.741" stop-color="#FDFDFF" stop-opacity="0.488"/>
<stop offset="0.852" stop-color="#FCFDFF" stop-opacity="0.302"/>
<stop offset="0.958" stop-color="#FCFDFF" stop-opacity="0.091"/>
<stop offset="1" stop-color="#FCFDFF" stop-opacity="0"/>
</radialGradient>
<radialGradient id="paint24_radial_11_444" cx="0" cy="0" r="1" gradientUnits="userSpaceOnUse" gradientTransform="translate(64.8904 533.386) scale(13.058)">
<stop stop-color="white"/>
<stop offset="0.146" stop-color="#FEFEFF" stop-opacity="0.986"/>
<stop offset="0.275" stop-color="#FEFEFF" stop-opacity="0.944"/>
<stop offset="0.396" stop-color="#FEFEFF" stop-opacity="0.874"/>
<stop offset="0.514" stop-color="#FEFEFF" stop-opacity="0.774"/>
<stop offset="0.628" stop-color="#FDFEFF" stop-opacity="0.646"/>
<stop offset="0.741" stop-color="#FDFDFF" stop-opacity="0.488"/>
<stop offset="0.852" stop-color="#FCFDFF" stop-opacity="0.302"/>
<stop offset="0.958" stop-color="#FCFDFF" stop-opacity="0.091"/>
<stop offset="1" stop-color="#FCFDFF" stop-opacity="0"/>
</radialGradient>
<radialGradient id="paint25_radial_11_444" cx="0" cy="0" r="1" gradientUnits="userSpaceOnUse" gradientTransform="translate(62.2783 639.249) scale(13.058)">
<stop stop-color="white"/>
<stop offset="0.146" stop-color="#FEFEFF" stop-opacity="0.986"/>
<stop offset="0.275" stop-color="#FEFEFF" stop-opacity="0.944"/>
<stop offset="0.396" stop-color="#FEFEFF" stop-opacity="0.874"/>
<stop offset="0.514" stop-color="#FEFEFF" stop-opacity="0.774"/>
<stop offset="0.628" stop-color="#FDFEFF" stop-opacity="0.646"/>
<stop offset="0.741" stop-color="#FDFDFF" stop-opacity="0.488"/>
<stop offset="0.852" stop-color="#FCFDFF" stop-opacity="0.302"/>
<stop offset="0.958" stop-color="#FCFDFF" stop-opacity="0.091"/>
<stop offset="1" stop-color="#FCFDFF" stop-opacity="0"/>
</radialGradient>
<radialGradient id="paint26_radial_11_444" cx="0" cy="0" r="1" gradientUnits="userSpaceOnUse" gradientTransform="translate(463.426 61.6516) scale(13.058 13.058)">
<stop stop-color="white"/>
<stop offset="0.146" stop-color="#FEFEFF" stop-opacity="0.986"/>
<stop offset="0.275" stop-color="#FEFEFF" stop-opacity="0.944"/>
<stop offset="0.396" stop-color="#FEFEFF" stop-opacity="0.874"/>
<stop offset="0.514" stop-color="#FEFEFF" stop-opacity="0.774"/>
<stop offset="0.628" stop-color="#FDFEFF" stop-opacity="0.646"/>
<stop offset="0.741" stop-color="#FDFDFF" stop-opacity="0.488"/>
<stop offset="0.852" stop-color="#FCFDFF" stop-opacity="0.302"/>
<stop offset="0.958" stop-color="#FCFDFF" stop-opacity="0.091"/>
<stop offset="1" stop-color="#FCFDFF" stop-opacity="0"/>
</radialGradient>
<radialGradient id="paint27_radial_11_444" cx="0" cy="0" r="1" gradientUnits="userSpaceOnUse" gradientTransform="translate(532.955 43.3706) scale(13.058 13.058)">
<stop stop-color="white"/>
<stop offset="0.146" stop-color="#FEFEFF" stop-opacity="0.986"/>
<stop offset="0.275" stop-color="#FEFEFF" stop-opacity="0.944"/>
<stop offset="0.396" stop-color="#FEFEFF" stop-opacity="0.874"/>
<stop offset="0.514" stop-color="#FEFEFF" stop-opacity="0.774"/>
<stop offset="0.628" stop-color="#FDFEFF" stop-opacity="0.646"/>
<stop offset="0.741" stop-color="#FDFDFF" stop-opacity="0.488"/>
<stop offset="0.852" stop-color="#FCFDFF" stop-opacity="0.302"/>
<stop offset="0.958" stop-color="#FCFDFF" stop-opacity="0.091"/>
<stop offset="1" stop-color="#FCFDFF" stop-opacity="0"/>
</radialGradient>
<radialGradient id="paint28_radial_11_444" cx="0" cy="0" r="1" gradientUnits="userSpaceOnUse" gradientTransform="translate(602.924 34.2296) scale(13.058 13.058)">
<stop stop-color="white"/>
<stop offset="0.146" stop-color="#FEFEFF" stop-opacity="0.986"/>
<stop offset="0.275" stop-color="#FEFEFF" stop-opacity="0.944"/>
<stop offset="0.396" stop-color="#FEFEFF" stop-opacity="0.874"/>
<stop offset="0.514" stop-color="#FEFEFF" stop-opacity="0.774"/>
<stop offset="0.628" stop-color="#FDFEFF" stop-opacity="0.646"/>
<stop offset="0.741" stop-color="#FDFDFF" stop-opacity="0.488"/>
<stop offset="0.852" stop-color="#FCFDFF" stop-opacity="0.302"/>
<stop offset="0.958" stop-color="#FCFDFF" stop-opacity="0.091"/>
<stop offset="1" stop-color="#FCFDFF" stop-opacity="0"/>
</radialGradient>
<radialGradient id="paint29_radial_11_444" cx="0" cy="0" r="1" gradientUnits="userSpaceOnUse" gradientTransform="translate(672.894 37.4937) scale(13.058 13.058)">
<stop stop-color="white"/>
<stop offset="0.146" stop-color="#FEFEFF" stop-opacity="0.986"/>
<stop offset="0.275" stop-color="#FEFEFF" stop-opacity="0.944"/>
<stop offset="0.396" stop-color="#FEFEFF" stop-opacity="0.874"/>
<stop offset="0.514" stop-color="#FEFEFF" stop-opacity="0.774"/>
<stop offset="0.628" stop-color="#FDFEFF" stop-opacity="0.646"/>
<stop offset="0.741" stop-color="#FDFDFF" stop-opacity="0.488"/>
<stop offset="0.852" stop-color="#FCFDFF" stop-opacity="0.302"/>
<stop offset="0.958" stop-color="#FCFDFF" stop-opacity="0.091"/>
<stop offset="1" stop-color="#FCFDFF" stop-opacity="0"/>
</radialGradient>
<radialGradient id="paint30_radial_11_444" cx="0" cy="0" r="1" gradientUnits="userSpaceOnUse" gradientTransform="translate(737.142 77.9736) scale(13.058 13.058)">
<stop stop-color="white"/>
<stop offset="0.146" stop-color="#FEFEFF" stop-opacity="0.986"/>
<stop offset="0.275" stop-color="#FEFEFF" stop-opacity="0.944"/>
<stop offset="0.396" stop-color="#FEFEFF" stop-opacity="0.874"/>
<stop offset="0.514" stop-color="#FEFEFF" stop-opacity="0.774"/>
<stop offset="0.628" stop-color="#FDFEFF" stop-opacity="0.646"/>
<stop offset="0.741" stop-color="#FDFDFF" stop-opacity="0.488"/>
<stop offset="0.852" stop-color="#FCFDFF" stop-opacity="0.302"/>
<stop offset="0.958" stop-color="#FCFDFF" stop-opacity="0.091"/>
<stop offset="1" stop-color="#FCFDFF" stop-opacity="0"/>
</radialGradient>
<radialGradient id="paint31_radial_11_444" cx="0" cy="0" r="1" gradientUnits="userSpaceOnUse" gradientTransform="translate(760.29 150.492) scale(13.058 13.058)">
<stop stop-color="white"/>
<stop offset="0.146" stop-color="#FEFEFF" stop-opacity="0.986"/>
<stop offset="0.275" stop-color="#FEFEFF" stop-opacity="0.944"/>
<stop offset="0.396" stop-color="#FEFEFF" stop-opacity="0.874"/>
<stop offset="0.514" stop-color="#FEFEFF" stop-opacity="0.774"/>
<stop offset="0.628" stop-color="#FDFEFF" stop-opacity="0.646"/>
<stop offset="0.741" stop-color="#FDFDFF" stop-opacity="0.488"/>
<stop offset="0.852" stop-color="#FCFDFF" stop-opacity="0.302"/>
<stop offset="0.958" stop-color="#FCFDFF" stop-opacity="0.091"/>
<stop offset="1" stop-color="#FCFDFF" stop-opacity="0"/>
</radialGradient>
<radialGradient id="paint32_radial_11_444" cx="0" cy="0" r="1" gradientUnits="userSpaceOnUse" gradientTransform="translate(752.812 239.436) scale(13.058 13.058)">
<stop stop-color="white"/>
<stop offset="0.146" stop-color="#FEFEFF" stop-opacity="0.986"/>
<stop offset="0.275" stop-color="#FEFEFF" stop-opacity="0.944"/>
<stop offset="0.396" stop-color="#FEFEFF" stop-opacity="0.874"/>
<stop offset="0.514" stop-color="#FEFEFF" stop-opacity="0.774"/>
<stop offset="0.628" stop-color="#FDFEFF" stop-opacity="0.646"/>
<stop offset="0.741" stop-color="#FDFDFF" stop-opacity="0.488"/>
<stop offset="0.852" stop-color="#FCFDFF" stop-opacity="0.302"/>
<stop offset="0.958" stop-color="#FCFDFF" stop-opacity="0.091"/>
<stop offset="1" stop-color="#FCFDFF" stop-opacity="0"/>
</radialGradient>
<radialGradient id="paint33_radial_11_444" cx="0" cy="0" r="1" gradientUnits="userSpaceOnUse" gradientTransform="translate(731.514 355.856) scale(13.058 13.058)">
<stop stop-color="white"/>
<stop offset="0.146" stop-color="#FEFEFF" stop-opacity="0.986"/>
<stop offset="0.275" stop-color="#FEFEFF" stop-opacity="0.944"/>
<stop offset="0.396" stop-color="#FEFEFF" stop-opacity="0.874"/>
<stop offset="0.514" stop-color="#FEFEFF" stop-opacity="0.774"/>
<stop offset="0.628" stop-color="#FDFEFF" stop-opacity="0.646"/>
<stop offset="0.741" stop-color="#FDFDFF" stop-opacity="0.488"/>
<stop offset="0.852" stop-color="#FCFDFF" stop-opacity="0.302"/>
<stop offset="0.958" stop-color="#FCFDFF" stop-opacity="0.091"/>
<stop offset="1" stop-color="#FCFDFF" stop-opacity="0"/>
</radialGradient>
</defs>
</svg>
