<svg width="3134" height="4252" viewBox="0 0 3134 4252" fill="none" xmlns="http://www.w3.org/2000/svg">
<path opacity="0.27" d="M1282.78 2299.95L1281.5 2298.25L1280.76 2296.13L1280.35 2293.37L1280.47 2290.69L1281.1 2288.22L1282.17 2286.19L1283.48 2285L1284.69 2284.83L1286.37 2285.68L1287.45 2287.16L1288.28 2289.46L1288.65 2292.17L1288.52 2294.68H1288.48L1287.8 2297.4L1286.87 2299.19L1285.5 2300.42L1284.07 2300.63L1282.78 2299.95ZM1493.65 0L1384.78 2135.31L1328.49 0H1099.9L1382.29 2132.66L908.424 0.0479736L601.088 0.039917L1379.45 2131.84L335.948 0H0V249.716L1376.89 2133.21L0 859.688V1427.95L1373.81 2135.63L0 1771.95V2346.01L1372.7 2140L0 2776.12V3347.8L1371.78 2145.16L0 3875.26V4251.49H290.953L1371.8 2150.64L573.82 4251.45H847.843L1372.86 2155.61L1043.78 4251.49H1271.92L1374.76 2159.44L1425.52 4251.49H1667.36L1377.28 2162.23L1853.53 4251.45H2117.14L1379.92 2162.64L2410.98 4251.45H2846.52L1382.89 2161.87L3133.72 3842.96V3139.52L1385.08 2158.9L3133.72 2540.92V1898.32L1386.84 2154.7L3133.72 1403.53V696.085L3132.4 624.299L1387.88 2149.45L3085.91 0.0479736H2527.78L1387.57 2144.43L2211.23 0.0479736H1919.02L1386.7 2138.86L1728.07 0H1493.65Z" fill="#FAAF40"/>
</svg>
