<svg xmlns="http://www.w3.org/2000/svg" xmlns:xlink="http://www.w3.org/1999/xlink" xmlns:inkscape="http://www.inkscape.org/namespaces/inkscape" version="1.1" width="889.975" height="438.211" viewBox="0 0 889.975 438.211">
<defs>
<clipPath id="clip_1">
<path transform="matrix(1,0,0,-1,0,438.211)" d="M0 438.211H889.975V0H0Z"/>
</clipPath>
</defs>
<g clip-path="url(#clip_1)">
<path transform="matrix(1,0,0,-1,46.1591,87.04739)" d="M0 0V49.059C-5.356 47.528-9.652 44.909-12.888 41.202-15.064 37.669-17.241 34.169-19.421 30.697-19.892 30.697-20.124 30.99-20.124 31.578L-19.685 34.758-16.948 50.91C-16.77 52.043-16.477 52.612-16.063 52.612-15.771 52.612-15.361 52.401-14.829 51.982-14.593 51.804-14.301 51.625-13.948 51.446-13.595 51.268-13.18 51.174-12.709 51.174H24.895C25.48 51.174 26.219 51.446 27.1 51.982 27.51 52.401 27.896 52.612 28.249 52.612 28.838 52.612 29.13 52.047 29.13 50.923L31.956 34.758 32.395 31.578C32.395 30.99 32.131 30.697 31.603 30.697 30.308 34.226 28.188 37.698 25.248 41.112 22.008 44.881 17.683 47.528 12.271 49.059V0C12.271-2.716 12.815-4.548 13.903-5.49 14.991-6.436 16.685-6.907 18.979-6.907 19.978-6.907 20.481-7.26 20.481-7.959 20.481-8.551 20.006-8.848 19.068-8.848H6.091-6.887C-7.768-8.848-8.21-8.551-8.21-7.959-8.21-7.26-7.711-6.907-6.708-6.907-4.471-6.907-2.855-6.464-1.852-5.579-.617-4.515 0-2.656 0 0" fill="#231f20"/>
<path transform="matrix(1,0,0,-1,86.2354,88.6582)" d="M0 0V45.725C0 48.434-1.19 50.021-3.573 50.492-5.961 50.963-7.151 51.406-7.151 51.816-7.151 52.108-7.077 52.376-6.931 52.612-6.785 52.843-6.298 52.965-5.474 52.965H6.18 17.83C18.95 52.965 19.507 52.579 19.507 51.816 19.507 51.406 18.301 50.963 15.889 50.492 13.477 50.021 12.271 48.434 12.271 45.725V25.423H34.25V45.725C34.25 48.434 33.044 50.021 30.632 50.492 28.216 50.963 27.01 51.406 27.01 51.816 27.01 52.579 27.571 52.965 28.687 52.965H40.341 51.995C53.111 52.965 53.672 52.579 53.672 51.816 53.672 51.406 52.478 50.963 50.094 50.492 47.711 50.021 46.521 48.434 46.521 45.725V0C46.521-2.708 47.711-4.296 50.094-4.767 52.478-5.238 53.672-5.681 53.672-6.091 53.672-6.387 53.639-6.59 53.582-6.708 53.347-7.061 52.815-7.24 51.995-7.24H40.341 28.687C27.571-7.24 27.01-6.858 27.01-6.091 27.01-5.681 28.216-5.238 30.632-4.767 33.044-4.296 34.25-2.708 34.25 0V23.303H12.271V0C12.271-2.708 13.477-4.296 15.889-4.767 18.301-5.238 19.507-5.681 19.507-6.091 19.507-6.858 18.95-7.24 17.83-7.24H6.18-5.474C-6.59-7.24-7.151-6.858-7.151-6.091-7.151-5.681-5.961-5.238-3.573-4.767-1.19-4.296 0-2.708 0 0" fill="#231f20"/>
<path transform="matrix(1,0,0,-1,149.3496,88.6582)" d="M0 0V45.725C0 48.434-1.19 50.021-3.573 50.492-5.961 50.963-7.151 51.406-7.151 51.816-7.151 52.108-7.077 52.376-6.931 52.612-6.785 52.843-6.298 52.965-5.474 52.965H6.18 36.37L40.516 36.106 41.048 33.808C41.048 33.337 40.751 33.101 40.162 33.101 39.927 33.101 39.606 33.576 39.192 34.53 38.368 36.492 37.397 38.453 36.281 40.414 34.161 44.097 31.692 46.74 28.866 48.348 25.744 50.131 21.716 51.024 16.774 51.024H12.271V25.423H14.386C17.33 25.423 19.815 26.466 21.85 28.557 23.876 30.645 24.895 33.247 24.895 36.37 24.895 37.076 24.935 37.616 25.025 38.002 25.114 38.384 25.451 38.575 26.04 38.575 26.568 38.575 26.836 38.165 26.836 37.34V10.33C26.836 9.502 26.568 9.091 26.04 9.091 25.277 9.091 24.895 9.826 24.895 11.3 24.895 15.125 23.908 18.081 21.935 20.168 19.961 22.26 17.448 23.303 14.386 23.303H12.271V.922C12.271-1.21 12.77-2.777 13.769-3.784 14.772-4.791 16.567-5.295 19.157-5.295 25.159-5.295 30.247-3.297 34.425 .707 37.897 4 40.369 8.178 41.839 13.241 42.371 14.89 42.842 15.714 43.252 15.714 43.784 15.714 44.048 15.389 44.048 14.744L43.695 12.181 40.077-7.24H6.18-5.474C-6.59-7.24-7.151-6.858-7.151-6.091-7.151-5.681-5.961-5.238-3.573-4.767-1.19-4.296 0-2.708 0 0" fill="#231f20"/>
<path transform="matrix(1,0,0,-1,230.4713,87.04739)" d="M0 0V49.059C-5.356 47.528-9.652 44.909-12.888 41.202-15.064 37.669-17.245 34.169-19.421 30.697-19.892 30.697-20.128 30.99-20.128 31.578L-19.685 34.758-16.948 50.91C-16.77 52.043-16.477 52.612-16.067 52.612-15.771 52.612-15.361 52.401-14.829 51.982-14.593 51.804-14.301 51.625-13.948 51.446-13.595 51.268-13.184 51.174-12.709 51.174H24.895C25.48 51.174 26.219 51.446 27.1 51.982 27.51 52.401 27.896 52.612 28.249 52.612 28.834 52.612 29.13 52.047 29.13 50.923L31.956 34.758 32.395 31.578C32.395 30.99 32.131 30.697 31.603 30.697 30.307 34.226 28.188 37.698 25.248 41.112 22.008 44.881 17.683 47.528 12.271 49.059V0C12.271-2.716 12.815-4.548 13.903-5.49 14.991-6.436 16.685-6.907 18.979-6.907 19.978-6.907 20.481-7.26 20.481-7.959 20.481-8.551 20.006-8.848 19.068-8.848H6.091-6.887C-7.768-8.848-8.21-8.551-8.21-7.959-8.21-7.26-7.711-6.907-6.708-6.907-4.475-6.907-2.855-6.464-1.852-5.579-.617-4.515 0-2.656 0 0" fill="#231f20"/>
<path transform="matrix(1,0,0,-1,270.3705,88.6582)" d="M0 0V45.725C0 48.434-1.19 50.021-3.573 50.492-5.961 50.963-7.151 51.406-7.151 51.816-7.151 52.108-7.077 52.376-6.931 52.612-6.785 52.843-6.298 52.965-5.474 52.965H6.18 17.83C18.95 52.965 19.507 52.579 19.507 51.816 19.507 51.406 18.301 50.963 15.889 50.492 13.477 50.021 12.271 48.434 12.271 45.725V0C12.271-2.708 13.477-4.296 15.889-4.767 18.301-5.238 19.507-5.681 19.507-6.091 19.507-6.858 18.95-7.24 17.83-7.24H6.18-5.474C-6.59-7.24-7.151-6.858-7.151-6.091-7.151-5.681-5.961-5.238-3.573-4.767-1.19-4.296 0-2.708 0 0" fill="#231f20"/>
<path transform="matrix(1,0,0,-1,311.779,35.694398)" d="M0 0 16.636-42.091 32.943 0H38.408 50.046C51.162 0 51.718-.382 51.718-1.149 51.718-1.559 50.513-2.002 48.101-2.473 45.685-2.944 44.479-4.531 44.479-7.24V-52.965C44.479-55.673 45.685-57.261 48.101-57.732 50.513-58.203 51.718-58.646 51.718-59.056 51.718-59.819 51.158-60.201 50.041-60.201H38.388 26.738C25.618-60.201 25.061-59.819 25.061-59.056 25.061-58.646 26.251-58.203 28.635-57.732 31.018-57.261 32.208-55.673 32.208-52.965V-7.061L11.905-59.762 11.378-60.201 10.671-59.937-9.189-9.181-9.368-45.319C-9.368-48.864-8.925-51.58-8.044-53.469-7.337-55.007-6.277-56.157-4.864-56.924-4.04-57.399-3.07-57.736-1.953-57.943-.832-58.15-.276-58.52-.276-59.052-.276-59.819-.893-60.201-2.128-60.201H-10.338-18.548C-19.783-60.201-20.4-59.819-20.4-59.052-20.4-58.52-19.872-58.167-18.812-57.992-17.752-57.813-16.754-57.46-15.812-56.928-14.459-56.217-13.383-54.979-12.588-53.209-11.792-51.438-11.398-48.811-11.398-45.327V-6.282C-12.279-4.804-13.205-3.76-14.179-3.139-15.15-2.518-16.518-2.12-18.28-1.941-19.283-1.941-19.844-1.62-19.957-.97-19.957-.325-19.572 0-18.792 0H-9.368Z" fill="#231f20"/>
<path transform="matrix(1,0,0,-1,373.2073,88.6582)" d="M0 0V45.725C0 48.434-1.19 50.021-3.573 50.492-5.961 50.963-7.151 51.406-7.151 51.816-7.151 52.108-7.077 52.376-6.931 52.612-6.781 52.843-6.298 52.965-5.474 52.965H6.18 36.366L40.516 36.106 41.048 33.808C41.048 33.337 40.751 33.101 40.162 33.101 39.927 33.101 39.606 33.576 39.192 34.53 38.368 36.492 37.397 38.453 36.28 40.414 34.161 44.097 31.692 46.74 28.866 48.348 25.748 50.131 21.716 51.024 16.774 51.024H12.271V25.423H14.386C17.33 25.423 19.815 26.466 21.849 28.557 23.876 30.645 24.895 33.247 24.895 36.37 24.895 37.076 24.935 37.616 25.025 38.002 25.114 38.384 25.451 38.575 26.04 38.575 26.568 38.575 26.836 38.165 26.836 37.34V10.33C26.836 9.502 26.568 9.091 26.04 9.091 25.277 9.091 24.895 9.826 24.895 11.3 24.895 15.125 23.908 18.081 21.935 20.168 19.961 22.26 17.448 23.303 14.386 23.303H12.271V.922C12.271-1.21 12.77-2.777 13.769-3.784 14.772-4.791 16.567-5.295 19.157-5.295 25.159-5.295 30.247-3.297 34.425 .707 37.897 4 40.369 8.178 41.839 13.241 42.371 14.89 42.842 15.714 43.252 15.714 43.784 15.714 44.048 15.389 44.048 14.744L43.695 12.181 40.077-7.24H6.18-5.474C-6.59-7.24-7.151-6.858-7.151-6.091-7.151-5.681-5.961-5.238-3.573-4.767-1.19-4.296 0-2.708 0 0" fill="#231f20"/>
<path transform="matrix(1,0,0,-1,421.8431,95.2789)" d="M0 0V24.542C0 25.423 .292 25.865 .881 25.865 1.295 25.865 1.575 25.435 1.722 24.586 1.868 23.73 1.969 23.096 2.03 22.686 3.269 15.917 5.059 10.768 7.414 7.24 10.533 2.591 14.89 .264 20.481 .264 24.716 .264 28.013 1.295 30.368 3.354 32.719 5.413 33.897 8.178 33.897 11.654 33.897 16.477 31.014 20.156 25.248 22.686 19.831 24.688 14.447 26.718 9.091 28.777 3.269 31.838 .353 36.455 .353 42.635 .353 47.812 2.176 52.141 5.827 55.612 9.473 59.084 13.919 60.822 19.157 60.822 21.805 60.822 24.274 60.469 26.572 59.762 28.866 58.938 31.189 58.114 33.544 57.289 34.721 57.289 35.485 57.817 35.838 58.877 36.017 59.466 36.309 59.762 36.723 59.762 37.43 59.762 37.779 59.23 37.779 58.171L39.281 41.49 39.545 38.575C39.545 37.986 39.31 37.694 38.839 37.694 38.721 37.694 37.986 39.488 36.634 43.078 34.632 48.373 32.427 52.198 30.015 54.553 27.189 57.318 23.539 58.703 19.068 58.703 15.889 58.703 13.314 57.935 11.345 56.408 9.372 54.878 8.385 52.494 8.385 49.258 8.385 45.429 11.329 42.428 17.212 40.252 22.686 38.25 28.159 36.248 33.633 34.25 39.517 30.896 42.461 25.776 42.461 18.889 42.461 13.006 40.353 8.076 36.146 4.105 31.94 .134 26.69-1.852 20.392-1.852 17.683-1.852 15.064-1.413 12.535-.528 10.005 .353 7.443 1.263 4.856 2.209 3.618 2.209 2.704 1.705 2.12 .707 1.531-.296 1.06-.796 .707-.796 .236-.796 0-.528 0 0" fill="#231f20"/>
<path transform="matrix(1,0,0,-1,480.2788,65.7952)" d="M0 0C0 8.531 2.826 15.828 8.474 21.89 14.358 28.188 21.862 31.339 30.982 31.339 40.045 31.339 47.548 28.188 53.493 21.89 59.202 15.828 62.056 8.531 62.056 0 62.056-8.535 59.202-15.832 53.493-21.894 47.548-28.188 40.045-31.339 30.982-31.339 21.923-31.339 14.419-28.188 8.474-21.894 2.826-15.889 0-8.592 0 0M13.684 0C13.684-9.242 15.227-16.421 18.317-21.537 21.407-26.657 25.63-29.219 30.982-29.219 36.337-29.219 40.56-26.657 43.65-21.537 46.74-16.421 48.287-9.242 48.287 0 48.287 9.238 46.74 16.421 43.65 21.537 40.56 26.657 36.337 29.219 30.982 29.219 25.63 29.219 21.407 26.657 18.317 21.537 15.227 16.421 13.684 9.238 13.684 0" fill="#231f20"/>
<path transform="matrix(1,0,0,-1,548.9556,88.81409)" d="M0 0V45.859C0 48.576-1.19 50.167-3.573 50.638-5.961 51.113-7.151 51.556-7.151 51.97-7.151 52.263-7.077 52.527-6.931 52.766-6.785 53.002-6.298 53.119-5.474 53.119H6.18 36.455L40.605 36.26 41.137 33.966C41.137 33.491 40.84 33.259 40.252 33.259 40.016 33.259 39.691 33.735 39.281 34.685 38.457 36.646 37.486 38.607 36.37 40.568 34.25 44.255 31.777 46.899 28.955 48.503 25.833 50.285 21.805 51.178 16.859 51.178H12.271V25.577H14.386C17.33 25.577 19.815 26.625 21.849 28.712 23.876 30.799 24.895 33.406 24.895 36.524 24.895 37.231 24.935 37.775 25.025 38.156 25.114 38.538 25.451 38.733 26.04 38.733 26.568 38.733 26.836 38.319 26.836 37.495V10.484C26.836 9.66 26.568 9.25 26.04 9.25 25.277 9.25 24.895 9.985 24.895 11.455 24.895 15.28 23.908 18.236 21.935 20.327 19.961 22.414 17.448 23.462 14.386 23.462H12.271V.154C12.271-2.55 13.477-4.142 15.889-4.613 18.301-5.084 19.507-5.526 19.507-5.936 19.507-6.7 18.95-7.082 17.83-7.082H6.18C-.179-7.082-3.987-7.025-5.25-6.907-6.517-6.789-7.151-6.521-7.151-6.107-7.151-5.697-5.961-5.254-3.573-4.783-1.19-4.312 0-2.716 0 0" fill="#231f20"/>
<path transform="matrix(1,0,0,-1,612.2452,88.6582)" d="M0 0V45.725C0 48.434-1.19 50.021-3.573 50.492-5.961 50.963-7.151 51.406-7.151 51.816-7.151 52.108-7.077 52.376-6.931 52.612-6.781 52.843-6.298 52.965-5.474 52.965H6.18 17.83C18.95 52.965 19.507 52.579 19.507 51.816 19.507 51.406 18.301 50.963 15.889 50.492 13.477 50.021 12.271 48.434 12.271 45.725V0C12.271-2.708 13.477-4.296 15.889-4.767 18.301-5.238 19.507-5.681 19.507-6.091 19.507-6.858 18.95-7.24 17.83-7.24H6.18-5.474C-6.59-7.24-7.151-6.858-7.151-6.091-7.151-5.681-5.961-5.238-3.573-4.767-1.19-4.296 0-2.708 0 0" fill="#231f20"/>
<path transform="matrix(1,0,0,-1,645.8766,82.0766)" d="M0 0C0-3.192 .56-5.79 1.677-7.796 2.558-9.331 3.736-10.452 5.21-11.162 5.677-11.402 6.546-11.593 7.812-11.739 9.079-11.885 9.709-12.255 9.709-12.843 9.709-13.497 9.327-13.822 8.564-13.822L-.97-13.643-10.505-13.822C-11.329-13.822-11.739-13.497-11.739-12.851-11.739-12.32-11.138-11.982-9.932-11.832-8.726-11.686-7.796-11.467-7.151-11.17-5.681-10.464-4.531-9.38-3.707-7.906-2.591-5.904-2.03-3.289-2.03-.049V38.526C-3.326 40.524-4.56 41.937-5.737 42.761-6.915 43.585-8.21 44.085-9.623 44.263-11.032 44.442-11.739 44.824-11.739 45.413-11.739 46.058-11.386 46.383-10.679 46.383H-1.677 7.768L37.783 6.659 37.958 32.788C37.958 35.964 37.397 38.554 36.28 40.556 35.399 42.087 34.222 43.204 32.748 43.91 32.277 44.146 31.396 44.337 30.1 44.483 28.805 44.629 28.159 44.998 28.159 45.587 28.159 46.119 28.57 46.383 29.394 46.383H38.928 48.462C49.286 46.383 49.696 46.058 49.696 45.413 49.696 44.881 49.095 44.544 47.889 44.397 46.683 44.251 45.754 44.028 45.108 43.736 43.577 43.029 42.4 41.941 41.575 40.471 40.459 38.53 39.898 35.911 39.898 32.618V-12.827C39.898-14.768 39.663-15.738 39.192-15.738 38.839-15.738 38.457-15.475 38.047-14.943 37.633-14.411 37.308-13.968 37.076-13.615L.179 35.964Z" fill="#231f20"/>
<path transform="matrix(1,0,0,-1,704.0475,88.6582)" d="M0 0V45.725C0 48.434-1.19 50.021-3.573 50.492-5.961 50.963-7.151 51.406-7.151 51.816-7.151 52.108-7.077 52.376-6.931 52.612-6.785 52.843-6.298 52.965-5.474 52.965H6.18 20.392C30.1 52.965 37.868 49.993 43.695 44.048 49.168 38.457 51.905 31.367 51.905 22.775 51.905 13.477 49.461 6.148 44.576 .796 39.691-4.56 33.247-7.24 25.244-7.24H6.18-5.474C-6.59-7.24-7.151-6.858-7.151-6.091-7.151-5.681-5.961-5.238-3.573-4.767-1.19-4.296 0-2.708 0 0M12.271 51.024V3.675C12.271 .597 13.107-1.669 14.784-3.118 16.461-4.572 18.918-5.295 22.158-5.295 27.278-5.295 31.339-3.106 34.34 1.279 37.572 6.014 39.192 12.766 39.192 21.529 39.192 31.006 37.442 38.29 33.942 43.382 30.437 48.474 25.63 51.024 19.507 51.024Z" fill="#231f20"/>
<path transform="matrix(1,0,0,-1,762.4846,88.6582)" d="M0 0V45.725C0 48.434-1.19 50.021-3.573 50.492-5.961 50.963-7.151 51.406-7.151 51.816-7.151 52.108-7.077 52.376-6.931 52.612-6.785 52.843-6.298 52.965-5.474 52.965H6.18 17.83C18.95 52.965 19.507 52.579 19.507 51.816 19.507 51.406 18.301 50.963 15.889 50.492 13.477 50.021 12.271 48.434 12.271 45.725V0C12.271-2.708 13.477-4.296 15.889-4.767 18.301-5.238 19.507-5.681 19.507-6.091 19.507-6.858 18.95-7.24 17.83-7.24H6.18-5.474C-6.59-7.24-7.151-6.858-7.151-6.091-7.151-5.681-5.961-5.238-3.573-4.767-1.19-4.296 0-2.708 0 0" fill="#231f20"/>
<path transform="matrix(1,0,0,-1,820.0375,73.122409)" d="M0 0H-19.304C-20.075-2.237-20.847-4.531-21.618-6.887-22.39-9.242-22.775-11.329-22.775-13.152-22.775-15.743-22.069-17.716-20.656-19.068-19.068-20.067-17.476-21.07-15.889-22.069-15.889-22.54-16.124-22.775-16.595-22.775H-26.129-36.017C-36.601-22.775-36.898-22.511-36.898-21.979-36.898-21.452-36.309-21.037-35.131-20.745-32.484-20.156-30.072-18.183-27.896-14.829-26.186-12.242-24.452-8.503-22.686-3.618L-12.007 25.423C-11.593 26.543-11.386 27.396-11.386 27.985-11.386 28.752-11.946 29.487-13.063 30.198-13.651 30.551-13.948 30.815-13.948 30.994-13.948 31.107-13.343 31.627-12.137 32.537-10.931 33.45-9.725 34.543-8.519 35.809-7.313 37.076-6.31 38.282-5.518 39.431-4.722 40.581-4.268 41.157-4.15 41.157-3.971 41.157-3.768 40.95-3.529 40.54-3.297 40.126-3.062 39.598-2.826 38.948L18.362-15.446C19.421-18.272 20.879-20.051 22.731-20.79 24.586-21.525 25.512-21.951 25.512-22.069 25.512-22.54 25.216-22.775 24.627-22.775H12.799 .97C.325-22.775 0-22.479 0-21.89 0-21.598 .97-21.216 2.911-20.745 4.856-20.274 5.827-19.096 5.827-17.212 5.827-15.86 5.169-13.477 3.857-10.062 1.344-3.533 .057-.179 0 0M-18.796 1.588H-.97L-10.245 25.35Z" fill="#231f20"/>
<path transform="matrix(1,0,0,-1,433.3761,348.48213)" d="M0 0C0-31.193 25.285-56.477 56.477-56.477 87.666-56.477 112.955-31.193 112.955 0V221.93H0Z" fill="#e33030"/>
<path transform="matrix(1,0,0,-1,723.3759,201.6877)" d="M0 0C34.153 0 48.336-24.164 48.336-40.978H-48.336C-48.336-24.164-35.728 0 0 0M-49.911-69.873V-69.873H140.278C145.532 20.493 83.536 83.017-7.881 83.017-101.922 83.017-162.342 9.989-162.342-63.047-162.342-143.953-96.672-203.317-2.099-203.317 32.504-203.317 65.561-198.253 89.241-181.662 116.528-162.546 117.722-123.098 88.701-108.111 77.868-102.239 62.909-105.699 46.805-114.185 35.639-120.061 20.42-123.463 6.302-123.463-20.002-123.463-43.455-112.094-48.775-82.976H-51.698L-74.291-75.103V-69.873Z" fill="#e33030"/>
<path transform="matrix(1,0,0,-1,313.605,118.67178)" d="M0 0C-79.862 0-117.689-80.386-117.689-122.416H-130.297C-130.297-60.948-88.267-33.101-88.267-15.767-88.267-11.56-89.319-7.881-102.978-7.881H-201.226V-229.808C-201.226-261.004-175.937-286.285-144.748-286.285-113.552-286.285-88.267-261.004-88.267-229.808V-158.668C-88.267-110.336-74.084-90.894-48.336-90.894-20.493-90.894-10.509-112.435-10.509-162.347V-281.083H102.446V-135.028C102.446-64.095 81.961 0 0 0" fill="#e33030"/>
<path transform="matrix(1,0,0,-1,104.3354,138.2218)" d="M0 0-.227-248.977C-.236-259.132-8.478-267.359-18.634-267.347L-59.929-267.31C-70.084-267.302-78.311-259.059-78.303-248.904L-78.075 .073C-78.063 10.232-69.824 18.459-59.669 18.447L-18.374 18.41C-8.218 18.398 .008 10.159 0 0" fill="#a3dce6"/>
<path transform="matrix(1,0,0,-1,38.7175,386.8209)" d="M0 0 .004 3.22 16.059 14.297 .012 14.313V16.851L20.148 16.835V13.984L3.841 2.538 20.136 2.522V-.016Z" fill="#231f20"/>
<path transform="matrix(1,0,0,-1,56.4107,346.89979)" d="M0 0 2.477-.004 2.465-14.252-17.667-14.232-17.659-.11H-15.243L-15.251-11.694-8.868-11.702-8.86-1.73H-6.416L-6.42-11.702-.012-11.71Z" fill="#231f20"/>
<path transform="matrix(1,0,0,-1,38.7642,337.5558)" d="M0 0 16.108 1.535 .061 6.168 .069 8.827 16.181 13.432 .012 15.056V17.72L20.148 15.41 20.144 12.003 4.028 7.528 20.136 2.769 20.132-.633-.004-2.725Z" fill="#231f20"/>
<path transform="matrix(1,0,0,-1,51.9206,309.9599)" d="M0 0C2.85-.004 4.897 2.351 4.901 5.571 4.901 8.113 3.48 9.969 1.377 9.977 .008 9.977-1.259 8.799-1.665 7.065L-2.538 3.285C-3.252 .187-5.206-1.917-7.808-1.912-11.154-1.908-13.505 .881-13.505 4.905-13.501 8.685-11.264 11.719-8.166 12.088L-7.427 9.303C-9.656 9.181-11.142 7.26-11.146 4.783-11.15 2.424-9.912 .751-8.052 .747-6.444 .747-5.388 2.051-4.95 4.032L-4.081 7.934C-3.46 10.785-1.413 12.701 1.19 12.697 4.848 12.697 7.382 9.782 7.378 5.506 7.378 .861 4.584-2.668 .621-2.907Z" fill="#231f20"/>
<path transform="matrix(1,0,0,-1,45.1371,277.2083)" d="M0 0C-2.233 .004-3.845-1.604-3.845-3.833L-3.849-9.534 3.833-9.542 3.837-3.963C3.837-1.673 2.225 0 0 0M-.061 2.607C3.658 2.607 6.286-.158 6.286-4.061L6.278-9.542 13.802-9.55V-12.092L-6.33-12.072-6.322-3.959C-6.322-.114-3.715 2.611-.061 2.607" fill="#231f20"/>
<path transform="matrix(1,0,0,-1,51.1008,258.0924)" d="M0 0-9.047-3.492-.004-7ZM2.416 .93 2.412-7.93 7.861-10.046 7.857-13.018-12.271-4.82-12.267-2.095 7.877 6.001 7.873 3.029Z" fill="#231f20"/>
<path transform="matrix(1,0,0,-1,45.1761,233.1427)" d="M0 0C-2.229 0-3.845-1.608-3.845-3.837L-3.853-9.538 3.833-9.546 3.837-3.971C3.841-1.677 2.229-.004 0 0M-.061 2.599C3.659 2.599 6.29-.162 6.286-4.065L6.282-9.55 13.806-9.554V-12.096L-6.33-12.076-6.326-3.959C-6.318-.122-3.715 2.603-.061 2.599" fill="#231f20"/>
<path transform="matrix(1,0,0,-1,56.5349,208.9564)" d="M0 0 2.477-.004 2.465-14.252-17.671-14.232-17.655-.11H-15.243L-15.251-11.694-8.872-11.702-8.86-1.73H-6.412L-6.42-11.702-.008-11.706Z" fill="#231f20"/>
<path transform="matrix(1,0,0,-1,48.3124,192.621)" d="M0 0C0 2.233-1.454 3.719-3.439 3.723-5.421 3.723-6.939 2.241-6.939 .13L-6.948-6.31-.008-6.314ZM10.724 6.87 10.72 3.711 2.412-.491 2.408-6.322 10.712-6.326 10.708-8.864-9.424-8.848-9.42 .012C-9.416 3.728-6.968 6.326-3.496 6.326-.832 6.322 1.21 4.804 2.046 2.355Z" fill="#231f20"/>
<path transform="matrix(1,0,0,-1,71.3557,386.84809)" d="M0 0 20.132-.02 20.136 2.522 0 2.542Z" fill="#231f20"/>
<path transform="matrix(1,0,0,-1,71.3638,375.4799)" d="M0 0 .004 3.22 16.063 14.297 .012 14.313V16.851L20.148 16.835V13.984L3.841 2.534 20.136 2.522V-.016Z" fill="#231f20"/>
<path transform="matrix(1,0,0,-1,89.0672,324.7457)" d="M0 0 2.477-.004 2.465-14.252-17.667-14.232-17.659-.106-15.243-.11-15.251-11.694-8.868-11.702-8.86-1.726-6.416-1.73-6.42-11.702-.012-11.71Z" fill="#231f20"/>
<path transform="matrix(1,0,0,-1,81.4996,302.64979)" d="M0 0C-4.341 .004-7.593-2.964-7.601-7.175L-7.605-12.072 7.516-12.084 7.52-7.187C7.52-2.976 4.333 0 0 0M0 2.733C5.888 2.725 10.066-1.364 10.058-6.943L10.05-14.63-10.082-14.61-10.074-6.923C-10.074-1.348-5.884 2.737 0 2.733" fill="#231f20"/>
<path transform="matrix(1,0,0,-1,71.4414,292.0665)" d="M0 0 .004 2.538 11.958 2.53C15.426 2.526 17.907 4.877 17.911 8.101 17.915 11.321 15.438 13.68 11.97 13.68L.012 13.692V16.23L12.096 16.218C16.928 16.218 20.514 12.803 20.514 8.097 20.51 3.386 16.973-.016 12.141-.012Z" fill="#231f20"/>
<path transform="matrix(1,0,0,-1,91.9773,258.2243)" d="M0 0C-.004-5.636-4.41-9.782-10.419-9.778-16.49-9.77-20.887-5.681-20.879-.041-20.875 4.296-18.085 7.946-14.118 8.685L-13.128 5.713C-16.104 5.348-18.337 2.871-18.341-.106-18.341-4.13-14.999-7.049-10.476-7.049-5.953-7.057-2.603-4.024-2.603 .004-2.599 3.224-4.921 5.705-8.048 5.957L-7.179 8.868C-2.964 8.182 .004 4.337 0 0" fill="#231f20"/>
<path transform="matrix(1,0,0,-1,83.7642,230.732)" d="M0 0-9.051-3.492-.008-7ZM2.412 .93 2.408-7.93 7.861-10.046 7.853-13.018-12.271-4.82V-2.095L7.873 6.001V3.029Z" fill="#231f20"/>
<path transform="matrix(1,0,0,-1,73.9958,204.6043)" d="M0 0-.004-7.309 17.651-7.325V-9.863L-.008-9.847-.016-17.225-2.493-17.221-2.473 0Z" fill="#231f20"/>
<path transform="matrix(1,0,0,-1,71.5275,197.252)" d="M0 0 20.136-.02V2.522L.004 2.538Z" fill="#231f20"/>
<path transform="matrix(1,0,0,-1,81.621,169.10391)" d="M0 0C-4.588 .004-7.902-3.123-7.91-7.333-7.91-11.548-4.601-14.675-.016-14.683 4.507-14.687 7.825-11.56 7.829-7.349 7.833-3.135 4.519 0 0 0M-.016-17.407C-6.091-17.403-10.452-13.156-10.448-7.333-10.444-1.51-6.099 2.733 0 2.725 6.074 2.721 10.435-1.527 10.431-7.349 10.427-13.172 6.05-17.411-.016-17.407" fill="#231f20"/>
<path transform="matrix(1,0,0,-1,71.5616,158.15232)" d="M0 0 .004 3.22 16.059 14.297 .012 14.313 .016 16.855 20.148 16.835V13.984L3.845 2.538 20.136 2.522V-.016Z" fill="#231f20"/>
</g>
</svg>
