<svg width="588" height="880" viewBox="0 0 588 880" fill="none" xmlns="http://www.w3.org/2000/svg">
<path d="M391.076 425.599C403.417 424.047 416.065 422.375 426.444 414.759C435.056 408.439 441.622 398.332 446.975 387.278C456.434 367.745 462.488 344.776 464.626 320.303C466.392 300.09 465.631 278.31 471.995 260.844C478.408 243.245 491.618 232.228 506.286 228.545C520.954 224.862 556.897 225.56 572.33 231.79C557.402 247.721 541.396 266.631 541.375 294.46C541.351 325.999 541.006 357.827 535.168 387.061C529.329 416.295 517.41 443.1 498.263 457.042C479.116 470.984 432.139 472.196 411.937 451.529" fill="#E14F25"/>
<path d="M391.076 425.599C403.417 424.047 416.065 422.375 426.444 414.759C435.056 408.439 441.622 398.332 446.975 387.278C456.434 367.745 462.488 344.776 464.626 320.303C466.392 300.09 465.631 278.31 471.995 260.844C478.408 243.245 491.618 232.228 506.286 228.545C520.954 224.862 556.897 225.56 572.33 231.79C557.402 247.721 541.396 266.631 541.375 294.46C541.351 325.999 541.006 357.827 535.168 387.061C529.329 416.295 517.41 443.1 498.263 457.042C479.116 470.984 432.139 472.196 411.937 451.529" stroke="black" stroke-width="2" stroke-miterlimit="10"/>
<path opacity="0.4" d="M391.076 425.599C403.417 424.047 416.065 422.375 426.444 414.759C435.056 408.439 441.622 398.332 446.975 387.278C456.434 367.745 462.488 344.776 464.626 320.303C466.392 300.09 465.631 278.31 471.995 260.844C478.408 243.245 491.618 232.228 506.286 228.545C520.954 224.862 556.897 225.56 572.33 231.79C557.402 247.721 541.396 266.631 541.375 294.46C541.351 325.999 541.006 357.827 535.168 387.061C529.329 416.295 517.41 443.1 498.263 457.042C479.116 470.984 432.139 472.196 411.937 451.529" stroke="black" stroke-width="2" stroke-miterlimit="10"/>
<path d="M572.33 231.79C563.242 241.489 554.422 251.697 548.567 263.736C545.485 270.073 543.282 276.821 542.196 283.789C541.227 290.005 542.982 298.302 537.974 303.105C533.214 307.67 529.802 301.803 528.56 297.628C526.762 291.589 525.756 285.316 525.558 279.019C525.363 272.814 526.841 266.55 526.024 260.384C525.965 259.939 519.99 263.606 519.529 263.994C517.588 265.631 515.863 267.555 514.189 269.458C510.421 273.743 507.075 278.399 504.219 283.338C503.094 285.283 501.835 287.448 499.68 288.085C497.087 288.852 494.301 286.873 493.292 284.364C492.282 281.855 492.625 279.02 493.17 276.371C494.657 269.135 497.564 262.206 501.607 256.028C503.598 252.985 505.858 249.89 508.494 247.368C511.117 244.859 515.663 243.426 519.151 242.607C507.924 245.243 496.587 246.886 485.167 248.398C484.366 248.504 483.513 248.603 482.782 248.259C481.734 247.766 481.26 246.456 481.435 245.311C481.61 244.166 482.305 243.168 483.074 242.301C485.643 239.405 488.093 236.433 491.264 234.153C496.411 230.451 502.568 228.173 508.862 227.492C519.692 226.32 530.617 225.959 541.498 226.5C551.747 227.01 562.508 227.868 572.126 231.706C572.195 231.733 572.263 231.761 572.332 231.788L572.33 231.79Z" fill="#FFF6D6" stroke="black" stroke-width="2" stroke-miterlimit="10"/>
<g style="mix-blend-mode:multiply" opacity="0.25">
<path d="M445.9 389.786C459.033 365.314 462.824 336.416 468.296 308.687C467.073 314.882 472.463 329.771 473.717 336.323C476.05 348.523 479.452 360.656 486.024 371.311C492.229 381.371 500.928 389.651 507.744 399.308C519.823 416.421 519.685 430.162 507.624 446.515C498.423 458.99 487.866 465.384 472.352 466.672C458.69 467.806 444.785 465.907 431.927 461.154C420.988 457.11 409.356 448.377 410.538 436.774C411.429 428.026 419.218 421.923 425.705 415.987C434.279 408.141 440.794 399.298 445.899 389.787L445.9 389.786Z" fill="#AD3624"/>
</g>
<path d="M236.308 833.086C230.641 841.038 224.775 850.757 228.118 859.919C230.839 867.379 238.7 871.499 245.91 874.932C259.209 881.264 275.621 876.424 287.12 867.272C288.282 866.347 289.412 865.38 290.435 864.305C293.091 861.514 294.945 858.084 296.768 854.698C300.183 848.355 303.598 842.012 307.013 835.669C311.517 827.303 316.248 818.668 323.871 812.944C329.511 808.709 336.483 806.283 341.552 801.39C343.53 799.481 343.387 796.343 343.103 793.618C342.383 786.718 341.664 779.818 340.944 772.918C340.467 768.343 282.095 779.127 275.533 783.213C269.405 787.029 265.349 793.513 261.128 799.158C252.736 810.382 244.44 821.674 236.308 833.086Z" fill="#F3F3F3" stroke="black" stroke-width="3" stroke-miterlimit="10"/>
<path d="M247.041 866.649C256.247 868.885 265.973 866.314 273.703 861.231C281.516 856.038 287.267 848.494 292.651 840.871C298.174 833.187 303.123 825.187 307.898 816.945C312.636 808.826 318.895 800.248 328.242 797.287C319.499 801.539 314.429 809.862 310.074 818.172C303.466 830.909 295.86 843.261 286.28 854.039C276.839 864.738 261.059 872.164 247.041 866.649Z" fill="black"/>
<path d="M243.533 836.718C253.382 833.622 265.225 836.21 272.617 843.493C263.579 838.819 253.685 836.667 243.533 836.718Z" fill="black"/>
<path d="M246.578 828.495C256.815 826.465 268.397 829.918 275.496 837.652C266.614 832.413 256.815 829.507 246.578 828.495Z" fill="black"/>
<path d="M480.19 819.188C487.674 824.918 495.909 832.348 496.035 842.933C496.136 851.551 490.72 858.876 485.639 865.246C476.266 876.995 460.552 878.737 447.655 874.151C446.352 873.688 445.062 873.168 443.83 872.497C440.629 870.755 437.907 868.045 435.228 865.367C430.209 860.35 425.192 855.334 420.173 850.317C413.554 843.701 406.65 836.904 398.212 834.21C391.969 832.217 385.174 832.584 379.206 829.697C376.877 828.57 375.972 825.349 375.324 822.488C373.682 815.242 372.04 807.996 370.398 800.75C369.309 795.946 423.09 783.265 430.077 784.737C436.603 786.112 442.219 791.011 447.703 795C458.606 802.929 469.449 810.965 480.19 819.188Z" fill="#F3F3F3" stroke="black" stroke-width="3" stroke-miterlimit="10"/>
<path d="M481.951 857.352C475.781 864.381 465.471 866.996 456.388 865.117C447.155 863.308 439.317 857.704 432.022 852.169C428.418 849.355 424.9 846.429 421.508 843.366C411.45 834.843 403.498 821.629 389.318 820.191C398.742 819.514 406.917 825.977 413.46 832.011C420.094 838.22 426.807 844.163 433.976 849.636C440.984 855.043 448.301 860.465 456.934 862.689C465.327 864.843 474.949 863.26 481.951 857.352Z" fill="black"/>
<path d="M475.161 825.763C465.972 829.833 458.425 836.388 452.346 844.327C455.802 834.758 464.961 826.935 475.161 825.763Z" fill="black"/>
<path d="M469.843 818.704C460.976 823.932 453.758 831.14 447.953 839.602C451.072 829.663 459.664 821.184 469.843 818.704Z" fill="black"/>
<path d="M316.459 606.339L266.754 604.662C261.928 604.535 258.071 606.378 258.183 608.756L259.98 789.799C260.092 792.177 269.375 797.54 274.201 797.667L319.943 793.567C324.769 793.694 333.318 788.373 333.205 785.995L325.437 610.894C325.325 608.516 321.284 606.467 316.458 606.34L316.459 606.339Z" fill="#67B0CC" stroke="black" stroke-width="2" stroke-miterlimit="10"/>
<path d="M350.163 785.085C347.036 777.068 343.909 769.05 340.783 761.033C339.642 758.107 338.138 754.84 334.584 753.525C328.59 751.307 322.878 756.133 318.009 759.437C310.04 764.846 298.494 766.903 288.035 764.778C282.211 763.595 276.778 761.217 270.863 760.417C264.948 759.617 257.909 761 255.63 765.252C254.107 768.094 255.101 771.381 255.923 774.45C258.652 784.64 259.238 795.126 257.651 805.357C262.48 806.04 267.368 806.415 272.251 806.476C288.896 806.687 305.081 803.281 321.01 799.901C332.235 797.519 344.46 794.576 350.163 785.083V785.085Z" fill="#2B8FAE" stroke="black" stroke-width="2" stroke-miterlimit="10"/>
<path d="M315.716 635.929L268.353 633.885C262.998 633.654 258.662 631.454 258.716 628.997L246.67 440.505C246.725 438.048 251.15 436.226 256.505 436.457L336.323 439.902C341.678 440.133 346.014 442.333 345.96 444.79L325.552 631.882C325.497 634.339 321.071 636.161 315.716 635.93V635.929Z" fill="#67B0CC" stroke="black" stroke-width="2" stroke-miterlimit="10"/>
<path d="M326.044 627.395C326.225 637.193 324.372 646.591 318.837 655.836C316.04 660.507 311.806 665.886 304.673 665.814C285.948 665.623 269.903 650.64 263.552 639.232C254.631 623.208 257.47 604.645 269.885 589.794C284.134 593.578 298.384 597.362 312.633 601.146C318.675 602.751 325.869 605.43 326.11 610.039C326.218 612.113 324.761 614.075 325.063 616.146C325.782 621.078 325.107 624.814 324.254 629.508C323.233 635.129 324.824 641.508 325.257 647.21C325.675 652.714 325.569 659.101 319.642 662.314C315.601 664.504 309.789 664.471 304.911 663.078C300.033 661.685 295.916 659.117 292.105 656.457" fill="#67B0CC"/>
<path d="M271.932 468.025C272.33 476.293 272.043 484.537 271.632 492.788C271.416 495.073 271.369 500.013 270.712 502.194C269.167 507.776 262.919 509.654 257.973 510.886C259.831 509.965 261.714 509.111 263.449 508.064C267.059 506.087 269.377 503.094 269.215 498.84L269.502 492.67C270.003 484.424 270.627 476.198 271.932 468.025Z" fill="black"/>
<path d="M354.524 570.499L403.826 553.054C408.243 551.6 412.132 552.857 412.467 555.846L444.169 781.643C444.504 784.633 436.951 793.801 432.533 795.255L389.69 802.439C385.273 803.893 376.427 799.567 376.092 796.577L347.101 578.577C346.766 575.587 350.106 571.951 354.523 570.497L354.524 570.499Z" fill="#74B5D7" stroke="black" stroke-width="2" stroke-miterlimit="10"/>
<path d="M366.297 809.327C366.926 799.748 367.555 790.17 368.184 780.591C368.414 777.095 368.864 773.119 371.54 770.58C376.052 766.299 382.097 769.648 387.046 771.637C395.146 774.893 405.43 773.422 413.742 767.82C418.371 764.701 422.368 760.426 427.171 757.688C431.973 754.95 438.275 754.191 441.271 758.018C443.274 760.576 443.259 764.412 443.336 767.959C443.59 779.737 445.73 791.151 449.645 801.601C445.732 803.868 441.691 805.825 437.577 807.444C423.551 812.965 409.005 814.467 394.681 815.917C384.588 816.938 373.507 817.677 366.297 809.327Z" fill="#32A0CB" stroke="black" stroke-width="2" stroke-miterlimit="10"/>
<path d="M414.262 635.964L363.548 633.238C358.587 633.168 354.282 631.045 353.982 628.52L322.84 437.473C322.54 434.948 326.353 432.94 331.314 433.01L405.259 434.055C410.22 434.125 414.526 436.248 414.826 438.773L422.737 631.502C423.037 634.027 419.224 636.035 414.263 635.965L414.262 635.964Z" fill="#74B5D7" stroke="black" stroke-width="2" stroke-miterlimit="10"/>
<path d="M357.96 640.452C358.074 640.555 358.185 640.662 358.285 640.779C358.852 641.442 359.396 641.95 360.17 642.392C361.703 643.266 363.41 643.761 365.079 644.298C381.741 649.661 402.175 648.476 417.945 640.823C419.89 639.879 421.951 638.653 422.63 636.6C423.686 633.405 420.901 630.287 420.323 626.971C419.297 621.083 413.798 617.201 408.761 613.983C401.954 609.635 394.715 605.145 386.643 604.851C382.233 604.69 377.896 605.836 373.939 607.733C371.918 608.702 369.99 609.858 368.147 611.131C367.213 611.776 366.301 612.452 365.407 613.153C364.989 613.481 364.582 613.904 364.13 614.181C363.674 614.46 363.358 614.429 362.811 614.504C360.803 614.779 358.944 615.759 357.461 617.125C356.754 617.776 356.719 618.482 356.202 619.249C355.661 620.053 354.873 620.75 354.728 621.758C354.611 622.575 354.965 623.353 355.011 624.16C355.055 624.922 354.773 625.624 354.69 626.366C354.598 627.188 354.622 628.041 354.684 628.864C354.739 629.598 354.845 630.327 354.951 631.056C355.011 631.469 355.071 631.883 355.131 632.296C355.287 633.372 355.465 634.445 355.665 635.513C355.854 636.522 356.065 637.536 356.479 638.476C356.674 638.919 356.916 639.343 357.212 639.726C357.429 640.007 357.703 640.221 357.958 640.453L357.96 640.452Z" fill="#74B5D7"/>
<path d="M384.017 481.161C387.978 491.404 391.17 501.884 394.147 512.439L393.475 511.742C397.39 513.06 401.095 514.976 404.434 517.368C407.759 519.774 410.743 522.664 413.046 526.009C407.295 520.31 400.343 516.127 392.827 513.713C392.488 513.604 392.245 513.336 392.155 513.016C391.364 510.394 390.6 507.764 389.87 505.125C387.656 497.2 385.592 489.253 384.017 481.161Z" fill="black"/>
<path d="M337.821 162.252C321.43 162.484 308.169 174.091 308.201 188.178C308.233 202.264 321.546 213.496 337.937 213.264C354.328 213.032 367.589 201.425 367.557 187.338C367.525 173.252 354.212 162.02 337.821 162.252ZM337.926 208.133C324.832 208.318 314.197 199.346 314.172 188.093C314.146 176.84 324.74 167.568 337.834 167.382C350.928 167.197 361.563 176.169 361.588 187.422C361.614 198.675 351.02 207.947 337.926 208.133Z" fill="#EC1C24" stroke="black" stroke-width="2" stroke-linecap="round" stroke-linejoin="round"/>
<path d="M419.297 405.263C419.297 405.263 296.945 406.994 256.161 407.571C251.053 407.643 248.893 403.581 246.856 399.604C222.305 351.673 251.578 254.97 261.896 206.473C262.827 202.098 266.057 198.315 271.165 198.243C304.209 197.775 370.297 196.84 403.341 196.373C408.449 196.301 411.335 200.084 412.647 204.341C414.017 208.783 415.238 213.269 416.393 217.768C417.807 223.275 419.116 228.807 420.359 234.353C421.77 240.649 423.094 246.964 424.349 253.291C425.701 260.106 426.971 266.936 428.167 273.779C429.4 280.843 430.553 287.921 431.617 295.012C432.674 302.057 433.643 309.114 434.503 316.186C435.325 322.943 436.048 329.714 436.629 336.497C437.161 342.7 437.577 348.916 437.799 355.14C437.991 360.525 438.046 365.922 437.817 371.312C437.467 379.555 436.559 388.215 432.427 395.677C429.945 400.16 424.993 405.185 419.295 405.266L419.297 405.263Z" fill="#DD1F26" stroke="black" stroke-width="2" stroke-linecap="round" stroke-linejoin="round"/>
<path d="M249.382 280.726C270.852 287.088 293.216 288.085 315.432 288.59C341.255 289.184 367.475 289.33 392.674 283.129C403.406 280.378 413.879 276.39 423.538 270.867C392.178 292.456 352.042 292.883 315.341 291.611C293.071 290.742 270.32 288.932 249.382 280.726Z" fill="black"/>
<path d="M331.383 261.786C330.841 310.58 326.793 360.239 338.962 408.037C322.683 363.469 326.356 308.383 331.383 261.786Z" fill="black"/>
<path d="M245.104 358.58C281.543 368.423 319.556 367.971 357.005 367.156C375.632 366.67 394.801 367.273 412.491 360.649C415.963 359.259 419.337 357.607 422.562 355.65C416.492 360.199 409.415 363.262 402.135 365.344C387.493 369.372 372.133 369.576 357.089 370.187C349.559 370.44 342.02 370.611 334.475 370.708C304.367 370.872 273.635 368.896 245.104 358.58Z" fill="black"/>
<path d="M269.815 201.225C269.138 227.072 283.061 251.525 308.993 258.889C334.925 266.254 364.09 259.034 386.145 243.685C399.573 234.339 404.259 222.05 406.558 206.438" fill="#DD1F26"/>
<path d="M269.815 201.225C269.655 221.817 279.375 243.104 297.821 253.231C323.769 266.784 356.149 260.789 380.509 246.337C396.805 237.351 403.622 224.426 406.557 206.438C404.532 225.017 397.818 238.16 381.392 247.786C354.273 264.836 311.763 271.006 286.788 247.173C274.593 235.357 268.9 217.94 269.815 201.226V201.225Z" fill="black"/>
<path d="M210.528 391.24C201.399 385.334 197.595 371.631 202.074 360.789L233.35 285.075C237.829 274.232 248.963 270.193 258.091 276.098C267.22 282.004 271.024 295.707 266.545 306.549L235.269 382.263C230.79 393.106 219.656 397.145 210.528 391.24Z" fill="#E14F25" stroke="black" stroke-width="2" stroke-miterlimit="10"/>
<path opacity="0.4" d="M210.528 391.24C201.399 385.334 197.595 371.631 202.074 360.789L233.35 285.075C237.829 274.232 248.963 270.193 258.091 276.098C267.22 282.004 271.024 295.707 266.545 306.549L235.269 382.263C230.79 393.106 219.656 397.145 210.528 391.24Z" stroke="black" stroke-width="2" stroke-miterlimit="10"/>
<g style="mix-blend-mode:multiply" opacity="0.46">
<path d="M241.536 295.084C246.181 296.21 250.159 297.909 254.038 300.678C255.619 301.806 257.36 302.752 259.028 303.743C260.953 304.886 263.666 307.049 265.953 307.153C264.912 310.834 263.038 314.197 261.757 317.791C260.446 321.47 258.649 324.818 256.807 328.247C257.893 326.225 247.661 323.088 246.561 322.602C242.031 320.602 237.842 317.51 233.25 315.774C231.073 314.951 228.76 314.449 226.438 314.298C225.123 314.212 220.201 313.822 219.295 314.937C223.084 310.276 223.631 304.142 227.677 299.72C227.856 299.524 228.558 299.53 228.781 299.421C231.234 298.217 233.687 297.013 236.14 295.809C236.997 295.388 237.87 294.962 238.747 294.82C239.724 294.662 240.643 294.868 241.536 295.084Z" fill="#AD3624"/>
</g>
<path d="M235.131 438.829C232.29 431.71 243.495 392.304 246.121 384.921C251.966 368.492 256.849 352.908 259.558 335.626C264.517 303.983 262.232 234.748 305.396 227.873C310.588 227.046 315.886 227.658 321.139 227.47C336.638 226.913 350.985 219.645 365.376 214.646C367.237 214 369.116 213.349 371.074 213.121C373.388 212.851 375.94 213.401 378.219 213.709C381.854 214.199 385.474 214.794 389.085 215.43C391.621 215.876 392.459 216.383 394.451 218.088C396.297 219.667 398.142 221.246 399.988 222.825C402.26 224.769 404.547 226.727 407.096 228.318C409.362 229.732 411.178 230.095 412.737 232.293C416.914 238.182 420.687 244.381 425.516 249.792C428.816 253.49 432.75 257.087 433.73 261.921C434.466 265.55 433.387 269.282 432.265 272.823C429.377 281.929 426.123 290.925 422.515 299.782C420.743 304.133 418.884 308.45 416.942 312.731C416.083 314.623 415.126 316.334 414.835 318.355C414.505 320.65 414.659 323.038 414.346 325.354C412.77 336.896 413.498 349.069 413.511 360.757C413.53 378.616 417.003 415.252 417.99 433.082C418.121 435.448 384.949 441.77 382.493 442.216C366.815 445.067 350.962 446.961 335.057 447.895C303.94 449.722 236.665 441.194 235.257 439.075C235.208 439.002 235.167 438.921 235.13 438.831L235.131 438.829Z" fill="white" stroke="black" stroke-width="2" stroke-miterlimit="10"/>
<path d="M299.285 226.02C302.296 243.12 318.716 255.856 335.979 252.826C344.357 251.613 351.519 246.494 357.393 240.579C363.356 234.535 368.423 227.562 372.379 219.931C366.089 235.042 353.49 252.068 336.312 254.933C317.993 257.978 300.881 244.406 299.285 226.02Z" fill="black"/>
<path d="M428.352 379.599C417.086 380.305 407.5 370.151 407.052 357.035L403.921 265.448C403.472 252.332 412.322 241.024 423.588 240.318C434.854 239.612 444.44 249.766 444.888 262.882L448.02 354.469C448.469 367.585 439.618 378.893 428.352 379.599Z" fill="#CF4727" stroke="black" stroke-width="2" stroke-miterlimit="10"/>
<path opacity="0.4" d="M428.352 379.599C417.086 380.305 407.5 370.151 407.052 357.035L403.921 265.448C403.472 252.332 412.322 241.024 423.588 240.318C434.854 239.612 444.44 249.766 444.888 262.882L448.02 354.469C448.469 367.585 439.618 378.893 428.352 379.599Z" stroke="black" stroke-width="2" stroke-miterlimit="10"/>
<g style="mix-blend-mode:multiply" opacity="0.46">
<path d="M404.811 318.511C405.849 323.696 406.167 329.024 405.754 334.295C411.905 332.727 418.214 331.778 424.554 331.466C427.53 331.32 430.522 331.314 433.479 331.685C438.595 332.326 442.705 333.581 447.064 336.334C445.485 330.515 448.44 324.648 446.432 318.946C446.343 318.693 445.542 318.415 445.354 318.225C443.276 316.127 441.198 314.029 439.119 311.931C438.393 311.198 437.651 310.453 436.74 309.969C435.724 309.429 434.563 309.246 433.424 309.085C424.985 307.891 415.765 307.611 408.621 312.26C407.413 313.046 406.263 313.992 405.556 315.247" fill="#AD3624"/>
</g>
<path d="M406.059 319.464C421.568 314.666 435.91 316.258 451.799 322.622C451.295 299.261 449.238 275.792 445.656 252.537C444.038 242.032 434.593 236.231 427.325 231.823C424.958 230.388 398.332 218.069 398.328 218.743" fill="white"/>
<path d="M406.059 319.464C421.568 314.666 435.91 316.258 451.799 322.622C451.295 299.261 449.238 275.792 445.656 252.537C444.038 242.032 434.593 236.231 427.325 231.823C424.958 230.388 398.332 218.069 398.328 218.743" stroke="black" stroke-width="2" stroke-miterlimit="10"/>
<path d="M406.059 319.464C421.568 314.666 435.91 316.258 451.799 322.622C451.295 299.261 449.238 275.792 445.656 252.537C444.038 242.032 434.593 236.231 427.325 231.823C422.709 229.024 417.44 227.008 412.543 224.767C405.243 221.426 397.866 218.293 390.234 215.815" fill="white"/>
<path d="M406.059 319.464C421.568 314.666 435.91 316.258 451.799 322.622C451.295 299.261 449.238 275.792 445.656 252.537C444.038 242.032 434.593 236.231 427.325 231.823C422.709 229.024 417.44 227.008 412.543 224.767C405.243 221.426 397.866 218.293 390.234 215.815" stroke="black" stroke-width="2" stroke-miterlimit="10"/>
<path d="M261.221 313.4C245.786 303.989 238.029 303.258 219.478 302.658C227.951 280.811 238.061 259.508 249.672 239.041C254.917 229.796 266.206 225.591 275.2 224.453C278.129 224.082 316.152 217.758 315.927 218.396" fill="white"/>
<path d="M261.221 313.4C245.786 303.989 238.029 303.258 219.478 302.658C227.951 280.811 238.061 259.508 249.672 239.041C254.917 229.796 266.206 225.591 275.2 224.453C278.129 224.082 316.152 217.758 315.927 218.396" stroke="black" stroke-width="2" stroke-miterlimit="10"/>
<path d="M269.784 278.5C262.329 299.27 263.372 321.689 258.147 342.955C260.426 321.334 259.541 298.289 269.784 278.5Z" fill="black"/>
<path d="M268.354 223.928C285.809 218.459 303.288 212.205 320.631 205.223C294.017 239.955 274.027 275.401 261.727 309.673C248.807 285.226 252.31 257.536 268.354 223.928Z" fill="#EC1C24" stroke="black" stroke-width="2" stroke-linecap="round" stroke-linejoin="round"/>
<path d="M263.664 290.904C261.478 281.426 265.699 271.938 268.509 263.035C273.888 248.126 281.066 233.792 290.332 220.918C281.343 237.578 273.367 254.721 267.137 272.598C265.06 278.506 262.939 284.546 263.664 290.904Z" fill="black"/>
<path d="M410.429 221.004C410.196 220.046 400.081 217.982 398.743 217.564C394.851 216.35 390.979 215.072 387.13 213.733C383.572 212.496 380.057 210.805 376.515 209.646C373.259 208.581 369.568 209.27 366.202 210.091C367.795 213.077 371.682 212.609 374.145 214.301C376.608 215.993 377.007 220.288 378.245 223.052C382.26 232.019 385.875 241.175 389.057 250.489C392.164 259.584 394.857 268.831 397.088 278.198C398.16 282.696 399.125 287.222 399.979 291.771C400.424 294.142 403.255 302.671 402.093 304.708C416.52 279.408 418.104 252.509 410.43 221.003L410.429 221.004Z" fill="#EC1C24" stroke="black" stroke-width="2" stroke-linecap="round" stroke-linejoin="round"/>
<path d="M390.92 218.746C399.059 227.004 401.796 239.008 403.788 250.043C405.77 261.178 407.193 272.905 404.541 284.056C405.466 272.691 403.738 261.556 401.688 250.416C399.738 239.343 397.642 228.052 390.92 218.746Z" fill="black"/>
<path d="M370.291 214.666C369.527 214.305 363.716 226.443 360.573 232.399C359.772 233.917 359.144 235.034 358.817 235.44C351.224 244.858 337.927 252.253 325.554 249.775C323.979 249.46 322.439 248.978 320.969 248.329C313.539 245.046 311.169 238.486 306.659 232.441C307.598 233.699 310.527 226.857 310.818 226.056C312.594 221.168 312.809 216.121 313.46 211.024C313.783 208.494 317.177 207.969 319.726 208.056C327.386 208.329 335.08 208.154 342.72 207.52C345.348 207.302 347.164 206.373 349.557 205.493C352.729 204.327 356.614 204.552 359.935 204.7C361.019 204.748 362.164 204.85 363.046 205.481C363.753 205.987 364.199 206.769 364.655 207.508C366.187 209.993 368.066 212.264 370.221 214.233" fill="#E14F25"/>
<path d="M370.291 214.666C369.527 214.305 363.716 226.443 360.573 232.399C359.772 233.917 359.144 235.034 358.817 235.44C351.224 244.858 337.927 252.253 325.554 249.775C323.979 249.46 322.439 248.978 320.969 248.329C313.539 245.046 311.169 238.486 306.659 232.441C307.598 233.699 310.527 226.857 310.818 226.056C312.594 221.168 312.809 216.121 313.46 211.024C313.783 208.494 317.177 207.969 319.726 208.056C327.386 208.329 335.08 208.154 342.72 207.52C345.348 207.302 347.164 206.373 349.557 205.493C352.729 204.327 356.614 204.552 359.935 204.7C361.019 204.748 362.164 204.85 363.046 205.481C363.753 205.987 364.199 206.769 364.655 207.508C366.187 209.993 368.066 212.264 370.221 214.233" stroke="black" stroke-width="2" stroke-miterlimit="10"/>
<path opacity="0.4" d="M370.291 214.666C369.527 214.305 363.716 226.443 360.573 232.399C359.772 233.917 359.144 235.034 358.817 235.44C351.224 244.858 337.927 252.253 325.554 249.775C323.979 249.46 322.439 248.978 320.969 248.329C313.539 245.046 311.169 238.486 306.659 232.441C307.598 233.699 310.527 226.857 310.818 226.056C312.594 221.168 312.809 216.121 313.46 211.024C313.783 208.494 317.177 207.969 319.726 208.056C327.386 208.329 335.08 208.154 342.72 207.52C345.348 207.302 347.164 206.373 349.557 205.493C352.729 204.327 356.614 204.552 359.935 204.7C361.019 204.748 362.164 204.85 363.046 205.481C363.753 205.987 364.199 206.769 364.655 207.508C366.187 209.993 368.066 212.264 370.221 214.233" stroke="black" stroke-width="2" stroke-miterlimit="10"/>
<g style="mix-blend-mode:multiply" opacity="0.46">
<path d="M358.225 215.3C357.863 215.628 357.55 215.892 357.307 216.063C353.257 218.893 348.828 221.173 344.185 222.859C337.74 225.198 330.875 226.396 324.017 226.325C319.281 226.276 314.326 226.333 310.411 223.667C310.576 223.779 312.196 217.409 312.31 216.742C312.584 215.138 312.763 213.517 312.845 211.892C312.899 210.83 312.386 208.349 312.877 207.455C313.883 205.626 317.521 205.65 319.295 205.569C330.5 205.06 341.796 204.062 353.023 202.59C354.258 202.434 355.491 202.255 356.723 202.08C357.356 201.99 358.051 201.967 358.667 201.798C359.271 201.632 359.65 201.422 360.27 201.795C360.738 202.077 361.071 202.532 361.377 202.985C361.873 203.721 362.438 204.389 362.941 205.096C363.579 205.991 364.036 207.1 364.561 208.067C364.884 208.663 364.91 208.764 364.475 209.289C364.142 209.692 363.833 210.116 363.473 210.496C362.915 211.084 362.248 211.536 361.651 212.077C360.488 213.131 359.385 214.247 358.222 215.301L358.225 215.3Z" fill="#AD3624"/>
</g>
<path d="M310.828 226.064C310.993 226.176 312.614 219.806 312.728 219.139C313.002 217.535 313.181 215.914 313.263 214.289C313.317 213.227 312.804 210.746 313.295 209.852C314.301 208.023 317.939 208.047 319.713 207.966C330.918 207.457 342.214 206.459 353.441 204.987C355.987 204.665 361.098 203.692 361.491 203.738C361.999 203.797 367.738 214.183 370.289 214.667" stroke="black" stroke-width="2" stroke-miterlimit="10"/>
<path d="M280.599 48.2242C278.766 45.6322 276.753 43.1622 274.683 40.8462C263.069 27.8502 253.587 14.4742 243.151 0.63916C244.277 1.99416 239.823 9.65215 239.171 11.0432C236.736 16.2422 234.512 21.3791 233.059 26.9561C229.509 40.5781 229.898 54.8501 233.716 68.3681C236.56 78.4401 241.796 88.5601 250.969 93.5981C258.203 97.5711 267.387 97.7611 274.779 94.0891C282.171 90.4181 287.569 82.9861 288.775 74.8211C290.172 65.3571 286.243 56.2072 280.599 48.2252V48.2242Z" fill="#E14F25" stroke="black" stroke-width="2" stroke-miterlimit="10"/>
<path opacity="0.4" d="M280.599 48.2242C278.766 45.6322 276.753 43.1622 274.683 40.8462C263.069 27.8502 253.587 14.4742 243.151 0.63916C244.277 1.99416 239.823 9.65215 239.171 11.0432C236.736 16.2422 234.512 21.3791 233.059 26.9561C229.509 40.5781 229.898 54.8501 233.716 68.3681C236.56 78.4401 241.796 88.5601 250.969 93.5981C258.203 97.5711 267.387 97.7611 274.779 94.0891C282.171 90.4181 287.569 82.9861 288.775 74.8211C290.172 65.3571 286.243 56.2072 280.599 48.2252V48.2242Z" stroke="black" stroke-width="2" stroke-miterlimit="10"/>
<path d="M282.063 61.2481C270.255 48.8511 258.943 34.3291 245.761 23.4551C240.671 28.0871 240.701 42.8771 240.606 49.6851C240.466 59.6941 241.974 69.7301 245.127 79.2331C246.132 82.2601 247.698 85.6151 250.775 86.4551C253.598 87.2261 256.455 85.5241 258.826 83.8101C267.604 77.4611 275.458 69.8361 282.063 61.2481Z" fill="#F48D83" stroke="black" stroke-width="2" stroke-miterlimit="10"/>
<path d="M392.785 45.3141C395.227 43.2861 397.812 41.4231 400.413 39.7231C415 30.1841 427.628 19.7261 441.295 9.07214C439.856 10.0891 442.171 18.6402 442.44 20.1522C443.443 25.8052 444.258 31.3431 444.215 37.1061C444.11 51.1831 440.031 64.8651 432.837 76.9301C427.477 85.9191 419.796 94.3351 409.63 96.8211C401.613 98.7821 392.696 96.5821 386.509 91.1191C380.322 85.6561 377.036 77.0782 377.989 68.8802C379.094 59.3772 385.264 51.5602 392.785 45.3152V45.3141Z" fill="#E14F25" stroke="black" stroke-width="2" stroke-miterlimit="10"/>
<path opacity="0.4" d="M392.785 45.3141C395.227 43.2861 397.812 41.4231 400.413 39.7231C415 30.1841 427.628 19.7261 441.295 9.07214C439.856 10.0891 442.171 18.6402 442.44 20.1522C443.443 25.8052 444.258 31.3431 444.215 37.1061C444.11 51.1831 440.031 64.8651 432.837 76.9301C427.477 85.9191 419.796 94.3351 409.63 96.8211C401.613 98.7821 392.696 96.5821 386.509 91.1191C380.322 85.6561 377.036 77.0782 377.989 68.8802C379.094 59.3772 385.264 51.5602 392.785 45.3152V45.3141Z" stroke="black" stroke-width="2" stroke-miterlimit="10"/>
<path d="M387.993 57.5132C402.612 48.6032 417.305 37.5132 432.856 30.4312C436.57 36.2252 432.705 50.5001 431.031 57.1011C428.57 66.8031 424.51 76.1051 419 84.4651C417.245 87.1282 414.862 89.9622 411.672 89.9752C408.746 89.9872 406.428 87.6032 404.583 85.3322C397.752 76.9232 392.145 67.5212 387.993 57.5132Z" fill="#F48D83" stroke="black" stroke-width="2" stroke-miterlimit="10"/>
<path d="M460.583 138.575C455.741 141.605 449.098 139.719 444.916 135.757C440.734 131.795 438.449 126.23 436.315 120.836C430.465 106.052 425.087 91.8251 416.429 78.3951C412.492 72.2891 407.486 66.4851 402.119 61.6141C396.841 56.8241 390.149 54.3311 385.508 48.5561C378.819 40.2321 378.716 27.8531 386.184 19.9091C371.089 21.0041 356.432 27.4051 345.37 37.7341C345.36 35.4871 344.609 33.6691 344.333 31.4871C343.251 22.9301 347.438 17.9981 352.375 11.5831C341.605 15.2661 331.036 19.5391 320.732 24.3751C316.196 26.5041 311.565 28.4541 307.789 31.8211C305.415 33.9381 301.294 38.2111 301.68 41.6371C296.09 37.4671 298.049 26.1961 304.37 23.6301C296.18 26.9541 289.439 33.4431 285.982 41.6111C285.79 42.0641 285.608 42.5211 285.393 42.9631C284.555 44.6801 283.231 46.1121 281.821 47.4011C275.526 53.1531 268.069 57.5741 261.708 63.3531C258.349 66.4041 254.029 69.6281 251.751 73.6101C245.979 83.7031 245.839 96.5311 239.398 106.192C237.587 108.909 235.331 111.282 233.046 113.596C230.821 115.849 228.524 118.085 225.801 119.673C222.857 121.389 220.055 121.612 216.766 121.747C214.71 121.831 209.181 122.976 207.427 121.7C215.612 127.654 226.479 142.383 237.255 142.227C240.094 142.186 242.845 141.301 245.548 140.424C239.562 142.367 233.775 146.185 227.978 148.75C226.558 149.378 217.46 154.69 216.741 154.24C227.218 160.804 238.688 165.079 248.974 172.155C256.437 177.289 263.463 183.057 269.947 189.382C276.527 195.8 283.306 200.759 291.792 204.637C313.889 214.734 339.738 212.278 362.6 204.405C377.806 199.168 392.121 191.697 406.299 184.126C412.798 180.655 419.98 175.309 427.098 173.427C429.584 172.77 447.35 168.013 448.503 169.129C440.091 160.983 431.515 153.012 422.783 145.224C435.671 147.063 449.083 144.705 460.586 138.576L460.583 138.575Z" fill="#E14F25" stroke="black" stroke-width="2" stroke-miterlimit="10"/>
<path opacity="0.4" d="M460.583 138.575C455.741 141.605 449.098 139.719 444.916 135.757C440.734 131.795 438.449 126.23 436.315 120.836C430.465 106.052 425.087 91.8251 416.429 78.3951C412.492 72.2891 407.486 66.4851 402.119 61.6141C396.841 56.8241 390.149 54.3311 385.508 48.5561C378.819 40.2321 378.716 27.8531 386.184 19.9091C371.089 21.0041 356.432 27.4051 345.37 37.7341C345.36 35.4871 344.609 33.6691 344.333 31.4871C343.251 22.9301 347.438 17.9981 352.375 11.5831C341.605 15.2661 331.036 19.5391 320.732 24.3751C316.196 26.5041 311.565 28.4541 307.789 31.8211C305.415 33.9381 301.294 38.2111 301.68 41.6371C296.09 37.4671 298.049 26.1961 304.37 23.6301C296.18 26.9541 289.439 33.4431 285.982 41.6111C285.79 42.0641 285.608 42.5211 285.393 42.9631C284.555 44.6801 283.231 46.1121 281.821 47.4011C275.526 53.1531 268.069 57.5741 261.708 63.3531C258.349 66.4041 254.029 69.6281 251.751 73.6101C245.979 83.7031 245.839 96.5311 239.398 106.192C237.587 108.909 235.331 111.282 233.046 113.596C230.821 115.849 228.524 118.085 225.801 119.673C222.857 121.389 220.055 121.612 216.766 121.747C214.71 121.831 209.181 122.976 207.427 121.7C215.612 127.654 226.479 142.383 237.255 142.227C240.094 142.186 242.845 141.301 245.548 140.424C239.562 142.367 233.775 146.185 227.978 148.75C226.558 149.378 217.46 154.69 216.741 154.24C227.218 160.804 238.688 165.079 248.974 172.155C256.437 177.289 263.463 183.057 269.947 189.382C276.527 195.8 283.306 200.759 291.792 204.637C313.889 214.734 339.738 212.278 362.6 204.405C377.806 199.168 392.121 191.697 406.299 184.126C412.798 180.655 419.98 175.309 427.098 173.427C429.584 172.77 447.35 168.013 448.503 169.129C440.091 160.983 431.515 153.012 422.783 145.224C435.671 147.063 449.083 144.705 460.586 138.576L460.583 138.575Z" stroke="black" stroke-width="2" stroke-miterlimit="10"/>
<path d="M371.347 96.6283C371.514 83.3072 363.682 72.4079 353.852 72.2842C344.022 72.1605 335.917 82.8592 335.749 96.1804C335.582 109.502 343.415 120.401 353.245 120.524C363.074 120.648 371.179 109.95 371.347 96.6283Z" fill="white" stroke="black" stroke-width="2" stroke-miterlimit="10"/>
<path d="M358.389 100.652C358.46 95.0054 356.058 90.3969 353.024 90.3587C349.99 90.3205 347.473 94.8671 347.402 100.514C347.331 106.16 349.733 110.769 352.767 110.807C355.801 110.845 358.318 106.299 358.389 100.652Z" fill="#AEBB61" stroke="black" stroke-width="2" stroke-miterlimit="10"/>
<path d="M352.079 109.3C353.563 109.186 354.561 106.422 354.309 103.125C354.056 99.829 352.648 97.2491 351.164 97.3629C349.68 97.4767 348.682 100.241 348.934 103.537C349.187 106.834 350.595 109.414 352.079 109.3Z" fill="black"/>
<path opacity="0.78" d="M349.785 101.438C349.795 100.64 349.48 99.9892 349.08 99.9842C348.681 99.9792 348.349 100.622 348.339 101.42C348.329 102.218 348.645 102.869 349.044 102.874C349.443 102.879 349.775 102.236 349.785 101.438Z" fill="white"/>
<path d="M307.678 100.014C307.846 86.6927 300.013 75.7935 290.183 75.6698C280.353 75.5461 272.249 86.2447 272.081 99.5659C271.913 112.887 279.746 123.786 289.576 123.91C299.406 124.034 307.511 113.335 307.678 100.014Z" fill="white" stroke="black" stroke-width="2" stroke-miterlimit="10"/>
<path d="M294.72 104.039C294.791 98.3919 292.389 93.7834 289.355 93.7452C286.321 93.707 283.803 98.2537 283.732 103.9C283.661 109.547 286.063 114.155 289.097 114.194C292.131 114.232 294.649 109.685 294.72 104.039Z" fill="#AEBB61" stroke="black" stroke-width="2" stroke-miterlimit="10"/>
<path d="M288.41 112.685C289.894 112.571 290.892 109.807 290.639 106.51C290.386 103.214 288.978 100.634 287.494 100.748C286.01 100.862 285.012 103.626 285.265 106.923C285.518 110.219 286.925 112.799 288.41 112.685Z" fill="black"/>
<path opacity="0.78" d="M286.116 104.825C286.126 104.027 285.81 103.376 285.411 103.371C285.012 103.366 284.68 104.009 284.67 104.807C284.66 105.605 284.975 106.256 285.375 106.261C285.774 106.266 286.106 105.623 286.116 104.825Z" fill="white"/>
<path d="M262.627 150.454C261.458 151.371 262.613 153.822 264.374 157.096C266.762 161.535 270.012 165.447 272.919 169.543C277.952 176.635 283.717 183.257 290.545 188.679C302.297 198.012 317.74 203.588 332.476 200.752C358.152 195.812 373.756 168.235 398.506 159.803C388.444 147.937 376.596 136.15 361.343 133.085C350.068 130.82 338.376 133.681 327.629 137.776C316.882 141.871 306.582 147.222 295.485 150.242C285.531 152.95 276.664 152.612 266.74 150.402C264.535 149.911 263.251 149.965 262.627 150.454Z" fill="#FFF6D6"/>
<path d="M275.03 79.9802C275.005 70.6402 287.757 67.7142 295.058 70.1842C292.984 70.4282 290.993 70.6482 289.042 71.0022C283.465 72.1312 277.222 74.0502 275.03 79.9812V79.9802Z" fill="black"/>
<path d="M348.932 68.2712C355.792 61.9322 366.575 69.3402 369.698 76.3862C368.115 75.0252 366.605 73.7082 365.025 72.5102C360.42 69.1682 354.782 65.8712 348.932 68.2702V68.2712Z" fill="black"/>
<path d="M291.529 136.124C307.451 128.78 322.244 109.678 316.046 91.5962C314.011 85.8342 309.979 80.8492 305.233 76.7312C310.596 80.1892 315.222 84.9802 317.666 90.9762C325.144 109.907 309.123 130.183 291.529 136.124Z" fill="black"/>
<path d="M279.8 144.745C279.702 145.155 279.649 145.576 279.649 146.004C279.652 149.361 282.714 151.814 285.533 153.636C290.161 156.628 294.947 159.374 299.866 161.859C300.849 162.355 301.993 162.85 303.01 162.43C304.124 161.97 304.554 160.644 304.83 159.471C305.985 154.547 308.288 136.298 306.512 132.872C304.712 129.398 300.657 130.994 297.836 132.486C292.968 135.061 286.776 137.26 282.502 140.717C281.224 141.751 280.175 143.169 279.798 144.746L279.8 144.745Z" fill="#62220D" stroke="black" stroke-width="2" stroke-miterlimit="10"/>
<path d="M310.24 163.207C310.775 167.193 311.303 171.3 310.283 175.19C309.263 179.08 306.3 182.745 302.321 183.326C309.069 184.22 316.38 185.012 322.286 181.629C328.434 178.107 331.456 170.937 333.193 164.068C334.32 159.611 335.087 155.064 335.484 150.484L335.877 150.042C327.532 157.954 314.032 165.229 302.156 164.144" fill="#F48D83"/>
<path d="M310.24 163.207C310.963 167.177 311.614 171.261 310.706 175.283C309.778 179.353 306.788 183.306 302.427 184.057L302.417 182.592C311.107 183.746 321.342 184.109 326.828 176.128C331.996 168.769 333.46 159.209 334.536 150.401L334.569 150.077L334.773 149.852L335.171 149.414L336.524 150.725C334.188 152.896 331.653 154.829 328.989 156.55C321.105 161.595 311.635 165.298 302.154 164.142C308.443 164.399 314.543 162.552 320.1 159.89C325.658 157.179 330.791 153.605 335.226 149.356L336.578 150.667L336.19 151.113L336.427 150.564C335.496 159.862 334.086 169.544 328.497 177.379C322.395 186.054 311.491 185.676 302.222 184.058L296.653 183.256L302.212 182.593C306.012 182.118 308.801 178.607 309.865 175.064C311 171.244 310.572 167.143 310.238 163.207H310.24Z" fill="black"/>
<path d="M325.163 100.667C320.86 99.9551 316.056 100.49 311.987 102.136L311.228 99.9831C315.612 98.2111 320.785 97.6351 325.422 98.4021L325.163 100.667Z" fill="#DBC945" stroke="black" stroke-miterlimit="10"/>
<path d="M427.937 87.7402L425.377 80.1542C425.354 80.0862 425.323 80.0222 425.291 79.9612C425.302 79.8542 425.304 79.7452 425.286 79.6342C425.184 79.0102 424.674 78.5982 424.078 78.6772L390.984 84.3402C390.419 84.4372 390.044 85.0222 390.145 85.6472C390.245 86.2562 390.762 86.6791 391.311 86.6101C391.324 86.6081 391.338 86.6062 391.352 86.6042L423.497 81.1032L425.991 88.4902C426.165 89.0062 426.635 89.3122 427.107 89.2532C427.181 89.2442 427.256 89.2252 427.33 89.1972C427.868 88.9892 428.139 88.3372 427.937 87.7402Z" fill="#DBC945" stroke="black" stroke-miterlimit="10"/>
<path d="M364.553 124.905C363.401 125.051 362.237 125.152 361.06 125.207C341.411 126.135 324.811 113.893 324.055 97.9161C323.686 90.1091 327.093 82.6151 333.647 76.8121C340.104 71.0961 348.869 67.7021 358.32 67.2551C367.775 66.8081 376.818 69.3601 383.785 74.4411C390.857 79.5991 394.955 86.7401 395.325 94.5461C395.694 102.353 392.288 109.847 385.733 115.65C380.08 120.655 372.659 123.88 364.553 124.905ZM355.225 70.7351C347.756 71.6791 340.94 74.6321 335.769 79.2101C329.955 84.3571 326.931 90.9471 327.253 97.7661C327.925 111.98 343.023 122.856 360.908 122.01C369.634 121.6 377.699 118.488 383.611 113.254C389.425 108.107 392.449 101.517 392.126 94.6991C391.804 87.8801 388.171 81.6051 381.898 77.0291C375.518 72.3761 367.199 70.0411 358.47 70.4541C357.377 70.5061 356.293 70.5991 355.224 70.7351H355.225Z" fill="#DBC945" stroke="black" stroke-width="0.5" stroke-miterlimit="10"/>
<path d="M391.307 88.0808C392.959 87.8719 394.112 86.2225 393.881 84.3968C393.65 82.5711 392.124 81.2605 390.471 81.4694C388.819 81.6783 387.666 83.3277 387.897 85.1533C388.128 86.979 389.654 88.2897 391.307 88.0808Z" fill="#DBC945" stroke="black" stroke-miterlimit="10"/>
<path d="M281.926 132.019C262.41 134.486 244.901 123.583 242.895 107.714C240.889 91.8451 255.134 76.9281 274.649 74.4601C294.165 71.9931 311.674 82.8961 313.68 98.7651C315.686 114.634 301.441 129.551 281.926 132.019ZM275.051 77.6371C257.287 79.8831 244.286 93.1961 246.071 107.313C247.856 121.43 263.76 131.089 281.525 128.843C299.289 126.597 312.29 113.284 310.505 99.1671C308.72 85.0501 292.816 75.3911 275.051 77.6371Z" fill="#DBC945" stroke="black" stroke-width="0.5" stroke-miterlimit="10"/>
<path d="M244.26 100.701C245.912 100.492 247.065 98.8424 246.834 97.0167C246.603 95.191 245.077 93.8804 243.424 94.0893C241.772 94.2982 240.619 95.9475 240.85 97.7732C241.081 99.5989 242.607 100.91 244.26 100.701Z" fill="#DBC945" stroke="black" stroke-miterlimit="10"/>
<g opacity="0.4">
<path d="M271.325 116.85L289.684 99.6321" stroke="white" stroke-linecap="round" stroke-linejoin="round"/>
<path d="M280.365 118.873L295.972 105.057" stroke="white" stroke-linecap="round" stroke-linejoin="round"/>
</g>
<g opacity="0.4">
<path d="M339.614 110.308L357.972 93.0901" stroke="white" stroke-linecap="round" stroke-linejoin="round"/>
<path d="M348.653 112.331L364.26 98.5151" stroke="white" stroke-linecap="round" stroke-linejoin="round"/>
</g>
<path d="M323.176 334.086L309.635 335.124C309.035 330.198 309.151 324.977 308.496 320.082C308.1 317.118 307.582 312.654 303.684 312.739C296.806 312.889 300.317 325.037 300.222 329.365C300.034 337.92 289.298 339.832 286.771 331.745L284.672 304.149L296.726 303.225C297.352 303.177 298.252 303.693 298.15 304.474C297.936 306.105 295.375 309.434 294.723 311.69C294.196 313.515 294.036 315.158 293.968 317.056C294.301 316.976 295.137 317.075 295.266 316.939C295.449 316.745 295.811 312.717 296.151 311.681C298.508 304.502 305.012 300.22 312.566 301.664C316.721 302.458 319.42 306.054 320.62 309.901C320.907 310.82 321.581 313.297 321.643 314.105L323.176 334.086Z" fill="#EC1C24"/>
<path d="M374.851 314.842L349.752 316.767C349.654 317.786 350.085 317.252 350.583 317.398C351.01 317.523 352.61 317.815 352.755 317.942C352.997 318.154 353.052 319.122 353.359 319.574C355.249 322.348 358.386 322.464 361.509 321.759C364.152 321.163 366.832 318.185 369.596 319.711C372.97 321.574 372.845 326.147 370.025 328.446C365.191 332.387 355.404 332.77 349.703 330.677C330.117 323.486 338.806 293.822 361.863 298.146C366.775 299.067 374.051 304.426 374.458 309.724L374.851 314.843V314.842ZM363.674 312.045C362.637 305.516 352.359 306.345 352.114 312.931L363.674 312.045Z" fill="#EC1C24"/>
<path d="M335.861 300.225L338.052 328.793C338.08 329.16 336.5 331.648 336.091 332.048C331.869 336.19 324.943 333.177 324.366 327.48C323.655 320.467 323.626 313.11 323.034 306.012C322.937 304.853 322.493 303.239 322.451 302.008C322.441 301.722 322.582 301.243 322.817 301.225L335.861 300.225Z" fill="#EC1C24"/>
<path d="M397.364 281.302C405.774 301.133 409.221 323.22 407.22 344.669C406.243 323.214 402.961 302.038 397.364 281.302Z" fill="black"/>
<path d="M225.359 296.4C238.525 295.066 252.817 298.037 262.972 306.893C257.075 303.942 251.077 301.47 244.707 299.879C238.362 298.196 231.876 297.394 225.358 296.399L225.359 296.4Z" fill="black"/>
<path d="M242.352 428.784C273.19 445.361 359.489 439.689 393.611 429.761C397.113 428.749 400.573 427.568 403.876 426.032C407.079 424.442 410.521 422.604 412.237 419.312C409.145 425.603 400.121 428.451 393.922 430.759C379.89 435.231 365.291 437.581 350.685 439.156C336.073 440.734 321.369 441.405 306.674 441.134C287.336 440.641 258.865 439.068 242.352 428.784Z" fill="black"/>
<path d="M340.148 446.021C341.805 455.44 341.698 465.053 341.908 474.579C341.947 479.345 341.966 484.11 341.889 488.877C341.816 493.614 341.798 498.583 340.076 503.072C341.167 498.396 340.759 493.651 340.612 488.892C340.428 484.128 340.34 479.363 340.272 474.598C340.114 465.062 340.523 455.557 340.148 446.021Z" fill="black"/>
<path d="M586.517 445.668L489.931 336.494L314.706 491.515L411.292 600.689L586.517 445.668Z" fill="#8C8E93" stroke="black" stroke-miterlimit="10"/>
<path d="M583.977 444.997L487.391 335.822L312.165 490.843L408.752 600.018L583.977 444.997Z" fill="#BAB0B1" stroke="black" stroke-miterlimit="10"/>
<path d="M580.891 444.808L484.304 335.634L309.079 490.655L405.665 599.829L580.891 444.808Z" fill="#8C8E93" stroke="black" stroke-miterlimit="10"/>
<path d="M578.35 444.136L481.764 334.961L306.539 489.982L403.125 599.157L578.35 444.136Z" fill="#BAB0B1" stroke="black" stroke-miterlimit="10"/>
<path d="M575.263 443.948L478.677 334.773L303.452 489.794L400.038 598.969L575.263 443.948Z" fill="#F1F0F2" stroke="black" stroke-miterlimit="10"/>
<path d="M524.641 402.126L474.899 345.901L471.078 349.281L520.82 405.506L524.641 402.126Z" stroke="#BFC4D8" stroke-width="0.895" stroke-miterlimit="10"/>
<path d="M441.606 375.358L529.5 474.706" stroke="#BFC4D8" stroke-width="0.895" stroke-miterlimit="10"/>
<path d="M439.15 377.531L527.044 476.879" stroke="#BFC4D8" stroke-width="0.895" stroke-miterlimit="10"/>
<path d="M460.173 411.201L436.299 384.216C435.29 383.076 433.548 382.969 432.408 383.978L365.301 443.347C364.161 444.356 364.054 446.098 365.063 447.239L388.937 474.224C389.945 475.364 391.688 475.471 392.828 474.462L459.935 415.093C461.075 414.084 461.182 412.342 460.173 411.201Z" fill="#BAB0B1"/>
<path d="M518.656 476.757L470.601 422.439C468.269 419.802 464.24 419.556 461.603 421.889L437.308 443.382C434.671 445.715 434.424 449.744 436.757 452.381L484.812 506.699C487.145 509.336 491.174 509.583 493.811 507.25L518.106 485.756C520.743 483.423 520.989 479.394 518.656 476.757Z" stroke="#BFC4D8" stroke-width="0.895" stroke-miterlimit="10"/>
<path d="M512.907 475.759L466.063 422.809L463.325 425.232L510.169 478.182L512.907 475.759Z" stroke="#E4E4E4" stroke-width="0.895" stroke-miterlimit="10"/>
<path d="M498.71 469.829L461.042 427.25L458.304 429.673L495.972 472.251L498.71 469.829Z" fill="#BAB0B1"/>
<path d="M481.135 460.077L456.022 431.692L453.284 434.114L478.396 462.5L481.135 460.077Z" fill="#BAB0B1"/>
<path d="M497.846 489.083L451.002 436.133L448.264 438.555L495.108 491.505L497.846 489.083Z" fill="#E4E4E4"/>
<path d="M483.65 483.153L445.982 440.574L443.244 442.997L480.912 485.575L483.65 483.153Z" fill="#BAB0B1"/>
<path d="M466.074 473.401L440.962 445.016L438.224 447.439L463.336 475.824L466.074 473.401Z" fill="#BAB0B1"/>
<path d="M480.991 510.08L432.936 455.762C430.603 453.125 426.575 452.879 423.938 455.211L399.643 476.705C397.006 479.038 396.759 483.067 399.092 485.704L447.147 540.022C449.48 542.659 453.509 542.905 456.146 540.573L480.441 519.079C483.078 516.746 483.324 512.717 480.991 510.08Z" stroke="#BFC4D8" stroke-width="0.895" stroke-miterlimit="10"/>
<path d="M475.242 509.081L428.397 456.131L425.659 458.553L472.503 511.503L475.242 509.081Z" stroke="#E4E4E4" stroke-width="0.895" stroke-miterlimit="10"/>
<path d="M461.045 503.15L423.377 460.572L420.639 462.995L458.307 505.573L461.045 503.15Z" fill="#BAB0B1"/>
<path d="M443.469 493.4L418.357 465.015L415.619 467.437L440.731 495.822L443.469 493.4Z" fill="#BAB0B1"/>
<path d="M460.181 522.406L413.337 469.456L410.599 471.879L457.443 524.828L460.181 522.406Z" fill="#E4E4E4"/>
<path d="M405.031 508.916L358.187 455.967L355.449 458.389L402.293 511.339L405.031 508.916Z" fill="#E4E4E4"/>
<path d="M390.836 502.986L353.167 460.408L350.429 462.831L388.097 505.409L390.836 502.986Z" fill="#BAB0B1"/>
<path d="M373.258 493.234L348.146 464.849L345.408 467.272L370.52 495.657L373.258 493.234Z" fill="#BAB0B1"/>
<path d="M389.971 522.24L343.126 469.29L340.388 471.713L387.233 524.662L389.971 522.24Z" stroke="#E4E4E4" stroke-width="0.895" stroke-miterlimit="10"/>
<path d="M428.409 506.723L403.297 478.338L400.558 480.76L425.671 509.146L428.409 506.723Z" fill="#BAB0B1"/>
<path d="M456.136 525.983L438.268 505.785L428.442 514.478L446.311 534.676L456.136 525.983Z" fill="#BAB0B1"/>
<path d="M438.909 547.208L410.271 514.839C409.778 514.281 408.925 514.229 408.367 514.722L392.374 528.872C391.816 529.365 391.764 530.218 392.257 530.776L420.894 563.145C421.388 563.703 422.241 563.756 422.799 563.262L438.792 549.113C439.35 548.619 439.402 547.766 438.909 547.208Z" fill="#BAB0B1"/>
<path d="M383.218 527.156L337.907 475.94C337.35 475.311 336.388 475.252 335.759 475.809L323.3 486.831C322.67 487.388 322.611 488.35 323.168 488.98L368.479 540.196C369.036 540.825 369.998 540.884 370.627 540.327L383.086 529.304C383.716 528.747 383.775 527.786 383.218 527.156Z" fill="#BAB0B1"/>
<path d="M441.11 544.196L361.857 454.613C359.471 451.916 355.35 451.664 352.653 454.05L319.842 483.079C317.145 485.465 316.893 489.585 319.279 492.282L398.532 581.864C400.918 584.561 405.038 584.814 407.735 582.428L440.547 553.399C443.244 551.013 443.496 546.893 441.11 544.196Z" stroke="#BFC4D8" stroke-width="0.895" stroke-miterlimit="10"/>
<path d="M420.12 566.119L393.559 536.095L390.283 538.993L416.845 569.016L420.12 566.119Z" fill="#BAB0B1"/>
<path d="M414.083 571.946L393.317 548.473L390.042 551.371L410.808 574.843L414.083 571.946Z" fill="#BAB0B1"/>
<path d="M460.097 369.835L458.261 367.824C458.984 367.109 459.843 366.469 460.555 365.749C460.986 365.313 461.644 364.669 461.15 364.063C460.278 362.994 458.745 365.079 458.033 365.61C456.626 366.658 454.993 365.2 455.99 363.782L460.197 359.974L461.832 361.765C461.917 361.858 461.944 362.065 461.805 362.148C461.515 362.32 460.66 362.334 460.215 362.515C459.855 362.661 459.569 362.843 459.254 363.071C459.308 363.114 459.395 363.258 459.433 363.262C459.487 363.267 460.183 362.817 460.393 362.74C461.845 362.209 463.339 362.698 464.037 364.075C464.42 364.832 464.171 365.712 463.697 366.387C463.584 366.548 463.266 366.967 463.143 367.078L460.098 369.837L460.097 369.835Z" fill="#EC1C24"/>
<path d="M469.578 375.586L466.174 371.858C465.997 371.971 466.137 371.972 466.174 372.069C466.206 372.152 466.356 372.442 466.354 372.481C466.35 372.546 466.2 372.677 466.164 372.782C465.948 373.43 466.316 373.941 466.814 374.346C467.236 374.689 468.048 374.738 468.142 375.367C468.256 376.135 467.501 376.692 466.781 376.535C465.548 376.267 464.28 374.767 463.916 373.601C462.666 369.597 468.537 367.235 470.678 371.427C471.134 372.32 471.164 374.146 470.356 374.878L469.576 375.585L469.578 375.586ZM468.654 373.465C469.583 372.479 468.182 370.957 467.086 371.748L468.654 373.465Z" fill="#EC1C24"/>
<path d="M467.139 367.576L462.786 371.521C462.73 371.572 462.133 371.635 462.018 371.621C460.828 371.475 460.462 370 461.312 369.191C462.359 368.195 463.546 367.264 464.622 366.276C464.798 366.115 465.004 365.841 465.198 365.679C465.243 365.641 465.338 365.603 465.37 365.638L467.139 367.576Z" fill="#EC1C24"/>
<path d="M472.103 383.281C471.507 383.809 472.576 384.415 472.346 384.619C472.232 384.72 472.151 384.629 472.029 384.491C471.663 384.078 471.484 383.829 471.017 383.301C470.55 382.773 470.325 382.565 469.959 382.151C469.838 382.014 469.78 381.902 469.871 381.821C470.1 381.619 470.573 382.753 471.169 382.225L476.259 377.722C475.468 376.828 474.02 376.761 473.004 377.045C472.717 377.136 472.562 377.191 472.522 377.145C472.461 377.076 472.507 377.036 472.53 377.016C472.644 376.915 472.891 376.778 473.093 376.681L474.78 375.678C474.826 375.638 474.96 375.559 475.021 375.628C475.061 375.674 475.036 375.737 475.054 375.803C475.049 375.889 475.107 376.001 475.269 376.184L478.615 379.967C478.777 380.15 478.883 380.178 478.967 380.227C479.053 380.232 479.096 380.235 479.137 380.281C479.198 380.35 479.104 380.474 479.058 380.514L477.856 382.066C477.736 382.253 477.569 382.483 477.455 382.584C477.409 382.624 477.366 382.622 477.326 382.576C477.286 382.53 477.359 382.383 477.484 382.11C477.891 381.138 478.001 379.692 477.209 378.797L472.119 383.3L472.103 383.281Z" fill="black"/>
<path d="M477.998 385.095L475.614 387.204C475.018 387.732 475.966 388.201 475.735 388.405C475.621 388.506 475.58 388.46 475.459 388.323C475.196 388.026 475.015 387.775 474.549 387.249C474.083 386.723 473.857 386.513 473.594 386.215C473.473 386.078 473.455 386.012 473.546 385.931C473.775 385.729 474.126 386.725 474.723 386.198L479.399 382.061C479.995 381.533 479.047 381.064 479.278 380.86C479.392 380.759 479.433 380.805 479.554 380.942C479.817 381.239 479.998 381.49 480.464 382.016C480.931 382.544 481.156 382.752 481.419 383.05C481.54 383.187 481.558 383.253 481.467 383.334C481.238 383.536 480.887 382.54 480.29 383.067L478.226 384.893L480.456 387.414L482.52 385.588C483.116 385.06 482.168 384.591 482.399 384.387C482.513 384.286 482.554 384.332 482.675 384.469C482.938 384.766 483.119 385.017 483.585 385.543C484.051 386.069 484.277 386.279 484.54 386.577C484.661 386.714 484.679 386.78 484.588 386.861C484.359 387.063 484.008 386.067 483.411 386.594L478.735 390.731C478.139 391.259 479.087 391.728 478.856 391.932C478.742 392.033 478.701 391.987 478.58 391.85C478.317 391.553 478.136 391.302 477.67 390.776C477.204 390.25 476.978 390.04 476.715 389.742C476.594 389.605 476.576 389.539 476.667 389.458C476.896 389.256 477.247 390.252 477.844 389.725L480.228 387.616L477.998 385.095Z" fill="black"/>
<path d="M484.872 388.291C485.468 387.763 484.52 387.294 484.751 387.09C484.865 386.989 484.906 387.035 485.027 387.172C485.29 387.469 485.471 387.72 485.937 388.246C487.641 390.172 488.231 390.793 488.799 391.435L487.537 393.288C487.443 393.412 487.394 393.496 487.349 393.536C487.28 393.597 487.237 393.594 487.197 393.548C487.096 393.434 487.365 393.277 487.575 392.313C487.865 391.116 487.355 390.218 486.443 389.187L486.22 388.935L483.653 391.206L483.815 391.389C484.484 392.146 485.289 392.456 486.162 391.684C486.299 391.563 486.363 391.588 486.423 391.657C486.483 391.726 486.478 391.812 486.364 391.913L483.75 394.226C483.613 394.347 483.549 394.322 483.489 394.253C483.429 394.184 483.411 394.118 483.548 393.997C484.465 393.186 484.256 392.348 483.587 391.591L483.425 391.408L481.155 393.416C480.835 393.699 480.855 394.048 481.322 394.576C482.762 396.203 484.447 395.939 485.519 395.439C485.697 395.363 485.763 395.346 485.823 395.414C485.883 395.482 485.838 395.523 485.792 395.564C485.746 395.605 485.655 395.685 485.52 395.764L483.223 397.141C482.574 396.407 481.948 395.653 480.021 393.475C479.554 392.947 479.329 392.739 479.066 392.441C478.945 392.304 478.927 392.238 479.018 392.157C479.247 391.955 479.598 392.951 480.195 392.424L484.871 388.29L484.872 388.291Z" fill="black"/>
<path d="M488.896 402.263C488.3 402.791 489.369 403.397 489.139 403.601C489.025 403.702 488.944 403.611 488.822 403.473C488.456 403.06 488.277 402.811 487.81 402.283C487.343 401.755 487.118 401.547 486.752 401.133C486.631 400.996 486.572 400.884 486.664 400.803C486.893 400.601 487.366 401.735 487.962 401.207L493.052 396.704C492.261 395.81 490.813 395.743 489.797 396.027C489.51 396.118 489.355 396.173 489.315 396.127C489.254 396.058 489.3 396.018 489.323 395.998C489.437 395.897 489.684 395.76 489.886 395.663L491.573 394.66C491.619 394.62 491.753 394.541 491.814 394.61C491.854 394.656 491.829 394.719 491.847 394.785C491.842 394.871 491.9 394.983 492.062 395.166L495.408 398.949C495.57 399.132 495.676 399.16 495.76 399.209C495.846 399.214 495.889 399.217 495.93 399.263C495.991 399.332 495.897 399.456 495.851 399.496L494.649 401.048C494.529 401.235 494.362 401.465 494.248 401.566C494.202 401.606 494.159 401.604 494.119 401.558C494.079 401.512 494.152 401.365 494.277 401.092C494.684 400.12 494.793 398.672 494.002 397.779L488.896 402.263Z" fill="black"/>
<path d="M496.209 401.106C496.805 400.578 495.857 400.109 496.088 399.905C496.202 399.804 496.243 399.85 496.364 399.987C496.627 400.284 496.808 400.535 497.274 401.061C497.74 401.587 497.966 401.797 498.229 402.095C498.35 402.232 498.368 402.298 498.277 402.379C498.048 402.581 497.697 401.585 497.1 402.112L492.424 406.249C491.828 406.777 492.776 407.246 492.545 407.45C492.431 407.551 492.39 407.505 492.269 407.368C492.006 407.071 491.825 406.82 491.359 406.294C490.892 405.766 490.667 405.558 490.404 405.26C490.283 405.123 490.265 405.057 490.356 404.976C490.585 404.774 490.936 405.77 491.533 405.243L496.209 401.106Z" fill="black"/>
<path d="M497.29 410.042L503.424 407.968L503.79 408.381C504.257 408.909 504.482 409.117 504.745 409.415C504.866 409.552 504.884 409.618 504.793 409.699C504.564 409.901 504.213 408.905 503.616 409.432L498.94 413.569C498.344 414.097 499.292 414.566 499.061 414.77C498.947 414.871 498.906 414.825 498.785 414.688C498.522 414.391 498.341 414.14 497.875 413.614C497.41 413.088 497.183 412.878 496.92 412.58C496.799 412.443 496.781 412.377 496.872 412.296C497.101 412.094 497.452 413.09 498.049 412.563L502.588 408.547L502.568 408.524L495.764 410.905C495.655 410.92 495.52 410.998 495.46 410.93C495.42 410.884 495.491 410.78 495.542 410.654L498.707 404.298L498.687 404.275L495.019 407.52C494.285 408.169 494.142 408.744 494.331 409.192C494.465 409.481 494.569 409.553 494.454 409.654C494.385 409.715 494.322 409.689 494.201 409.552C493.978 409.3 493.797 409.05 493.494 408.707C493.007 408.156 492.782 407.948 492.66 407.811C492.559 407.697 492.478 407.605 492.569 407.524C492.706 407.403 492.741 407.535 493.012 407.703C493.743 408.16 494.469 407.641 495.524 406.707L498.481 404.091C499.26 403.401 498.195 402.751 498.401 402.568C498.515 402.467 498.556 402.513 498.677 402.65C498.94 402.947 499.121 403.198 499.587 403.724L500.074 404.275L497.29 410.044V410.042Z" fill="black"/>
<path d="M505.033 411.079C505.629 410.551 504.681 410.082 504.912 409.878C505.026 409.777 505.067 409.823 505.188 409.96C505.451 410.257 505.632 410.508 506.098 411.034C507.802 412.96 508.392 413.581 508.96 414.223L507.698 416.076C507.604 416.2 507.555 416.284 507.51 416.324C507.441 416.385 507.398 416.382 507.358 416.336C507.257 416.222 507.526 416.065 507.736 415.101C508.026 413.904 507.516 413.006 506.604 411.975L506.381 411.723L503.814 413.994L503.976 414.177C504.645 414.934 505.45 415.244 506.323 414.472C506.46 414.351 506.524 414.376 506.584 414.445C506.644 414.514 506.639 414.6 506.525 414.701L503.911 417.014C503.774 417.135 503.71 417.11 503.65 417.041C503.59 416.972 503.572 416.906 503.709 416.785C504.626 415.974 504.417 415.136 503.748 414.379L503.586 414.196L501.316 416.204C500.996 416.487 501.016 416.836 501.483 417.364C502.923 418.991 504.608 418.727 505.68 418.227C505.858 418.151 505.924 418.134 505.984 418.202C506.044 418.27 505.999 418.311 505.953 418.352C505.907 418.393 505.816 418.473 505.681 418.552L503.384 419.929C502.735 419.195 502.109 418.441 500.182 416.263C499.715 415.735 499.49 415.527 499.227 415.229C499.106 415.092 499.088 415.026 499.179 414.945C499.408 414.743 499.759 415.739 500.356 415.212L505.032 411.078L505.033 411.079Z" fill="black"/>
<path d="M506.465 418.519C506.534 418.458 506.62 418.464 506.66 418.509C506.741 418.601 506.672 418.661 506.53 418.869C505.595 419.982 504.94 421.461 506.016 422.677C506.847 423.617 507.741 423.563 508.337 423.035C510.102 421.474 506.328 418.64 508.483 416.734C509.4 415.923 510.947 416.148 511.901 417.226C512.631 418.051 512.573 418.677 512.896 419.043C513.139 419.318 513.312 418.96 513.454 419.12C513.515 419.189 513.489 419.252 513.398 419.333C512.284 420.523 511.706 421.115 511.59 421.218C511.498 421.299 511.435 421.273 511.395 421.228C511.334 421.159 511.428 421.035 511.5 420.931C512.202 419.739 512.603 418.484 511.669 417.428C511.04 416.717 510.284 416.649 509.735 417.135C508.13 418.555 511.721 421.55 509.612 423.416C508.695 424.227 507.125 424.349 505.787 422.836C505.178 422.148 504.951 421.246 504.728 420.994C504.383 420.603 504.208 421.005 504.065 420.844C504.025 420.798 504.007 420.732 504.098 420.651L506.465 418.519Z" fill="black"/>
<path d="M518.638 431.169C516.689 432.894 514.083 432.257 512.765 430.766C511.467 429.299 511.134 426.611 513.081 424.888C515.028 423.165 517.636 423.8 518.954 425.291C520.294 426.759 520.61 429.425 518.638 431.169ZM518.747 425.471C517.732 424.324 516.065 424.287 514.093 426.032C512.121 427.777 511.954 429.436 512.969 430.583C513.984 431.73 515.651 431.767 517.623 430.022C519.595 428.277 519.762 426.618 518.747 425.471Z" fill="black"/>
<path d="M521.827 430.063C522.423 429.535 521.475 429.066 521.706 428.862C521.82 428.761 521.861 428.807 521.982 428.944C522.245 429.241 522.426 429.492 522.892 430.018C524.596 431.944 525.187 432.566 525.693 433.138L524.431 434.991C524.337 435.115 524.288 435.199 524.243 435.239C524.174 435.3 524.131 435.297 524.091 435.251C523.99 435.137 524.259 434.98 524.469 434.016C524.759 432.819 524.249 431.921 523.337 430.89L523.175 430.707L520.608 432.978L520.77 433.161C521.439 433.918 522.244 434.228 523.117 433.456C523.254 433.335 523.318 433.36 523.378 433.429C523.438 433.498 523.433 433.584 523.319 433.685L520.705 435.998C520.568 436.119 520.504 436.094 520.444 436.025C520.384 435.956 520.366 435.89 520.503 435.769C521.42 434.958 521.211 434.12 520.542 433.363L520.38 433.18L518.065 435.228C517.469 435.756 518.417 436.225 518.186 436.429C518.072 436.53 518.031 436.484 517.91 436.347C517.647 436.05 517.466 435.799 517 435.273C516.534 434.747 516.308 434.537 516.045 434.239C515.924 434.102 515.906 434.036 515.997 433.955C516.226 433.753 516.577 434.749 517.174 434.222L521.827 430.063Z" fill="black"/>
<path d="M528.053 437.1C528.649 436.572 527.701 436.103 527.932 435.899C528.046 435.798 528.087 435.844 528.208 435.981C528.471 436.278 528.652 436.529 529.118 437.055C529.585 437.583 529.81 437.791 530.073 438.089C530.194 438.226 530.212 438.292 530.121 438.373C529.892 438.575 529.541 437.579 528.944 438.106L524.268 442.243C523.672 442.771 524.62 443.24 524.389 443.444C524.275 443.545 524.234 443.499 524.113 443.362C523.85 443.065 523.669 442.814 523.203 442.288C522.737 441.762 522.511 441.552 522.248 441.254C522.127 441.117 522.109 441.051 522.2 440.97C522.429 440.768 522.78 441.764 523.377 441.237L528.053 437.1Z" fill="black"/>
<path d="M533.316 444.666C534.05 444.017 534.134 443.371 533.943 442.925C533.809 442.636 533.705 442.564 533.82 442.463C533.889 442.402 533.952 442.428 534.073 442.565C534.356 442.885 534.537 443.136 534.861 443.502C535.185 443.868 535.412 444.078 535.695 444.398C535.816 444.535 535.834 444.601 535.765 444.662C535.651 444.763 535.572 444.629 535.322 444.483C534.924 444.264 534.275 444.224 533.518 444.893L529.025 448.868C528.956 448.929 528.87 448.923 528.809 448.855C528.748 448.787 528.71 448.698 528.739 448.591L530.383 440.516L530.363 440.493L526.924 443.536C526.19 444.185 526.108 444.829 526.297 445.277C526.431 445.566 526.535 445.638 526.42 445.739C526.351 445.8 526.288 445.774 526.167 445.637C525.884 445.317 525.703 445.066 525.379 444.7C525.055 444.334 524.828 444.124 524.545 443.804C524.424 443.667 524.406 443.601 524.475 443.54C524.589 443.439 524.668 443.573 524.918 443.719C525.316 443.938 525.965 443.978 526.722 443.309L530.459 440.003C530.746 438.849 530.069 438.591 530.229 438.45C530.321 438.369 530.404 438.417 530.505 438.532C530.687 438.738 530.828 438.943 531.07 439.217L531.78 440.019L530.275 447.234L530.295 447.257L533.316 444.666Z" fill="black"/>
<path d="M535.619 445.652C536.215 445.124 535.267 444.655 535.498 444.451C535.612 444.35 535.653 444.396 535.774 444.533C536.037 444.83 536.218 445.081 536.684 445.607C537.008 445.973 537.376 446.343 537.803 446.825C539.629 448.889 539.549 451.248 537.762 452.83C536.135 454.27 533.913 454.438 532.168 452.466C531.64 451.87 531.218 451.346 530.771 450.841C530.304 450.313 530.079 450.105 529.816 449.807C529.695 449.67 529.677 449.604 529.768 449.523C529.997 449.321 530.348 450.317 530.945 449.79L535.621 445.653V445.651L535.619 445.652ZM532.243 450.521C531.692 451.008 531.747 451.531 532.315 452.173C533.187 453.158 534.499 453.716 536.722 451.749C538.395 450.269 539 448.548 537.823 447.218L537.032 446.324L532.264 450.542L532.244 450.519H532.242L532.243 450.521Z" fill="black"/>
<path d="M541.157 451.912C541.753 451.384 540.805 450.915 541.036 450.711C541.15 450.61 541.191 450.656 541.312 450.793C541.575 451.09 541.756 451.341 542.222 451.867C542.688 452.393 542.914 452.603 543.177 452.901C543.298 453.038 543.316 453.104 543.225 453.185C542.996 453.387 542.645 452.391 542.048 452.918L537.372 457.055C536.776 457.583 537.724 458.052 537.493 458.256C537.379 458.357 537.338 458.311 537.217 458.174C536.954 457.877 536.773 457.626 536.307 457.1C535.841 456.574 535.615 456.364 535.352 456.066C535.231 455.929 535.213 455.863 535.304 455.782C535.533 455.58 535.884 456.576 536.481 456.049L541.157 451.912Z" fill="black"/>
<path d="M540.853 457.942C539.986 458.302 539.633 458.41 539.38 458.634C538.509 459.404 539.364 459.956 539.158 460.138C539.066 460.219 539.026 460.173 538.945 460.082C538.783 459.899 538.622 459.671 538.096 459.076C537.833 458.779 537.566 458.523 537.282 458.202C537.201 458.11 537.227 458.047 537.295 457.986C537.455 457.844 537.667 458.268 538.097 458.34C538.482 458.407 539.209 458.257 540.028 457.981C543.575 456.722 544.018 456.578 544.109 456.497C544.178 456.436 544.156 456.089 544.247 456.008C544.384 455.887 544.483 456.044 545.212 455.851C545.764 455.689 545.838 455.542 545.94 455.656C546.042 455.77 545.744 456.033 545.043 457.553L542.559 463.062C542.256 463.737 542.875 463.927 542.668 464.11C542.576 464.191 542.493 464.143 542.432 464.074C542.128 463.731 541.846 463.366 541.522 463C541.218 462.657 540.891 462.332 540.567 461.966C540.486 461.874 540.468 461.809 540.56 461.728C540.789 461.526 541.062 462.388 541.544 461.961C541.613 461.9 541.806 461.566 541.905 461.397L542.605 459.877L540.852 457.941L540.853 457.942ZM544.005 456.747L541.12 457.829L542.681 459.594L544.005 456.747Z" fill="black"/>
<path d="M450.578 358.305L471.521 505.732C472.329 509.71 469.399 513.694 465.01 514.585L456.07 515.202C451.681 516.093 447.429 513.568 446.621 509.59L408.634 366.822C402.395 342.062 444.098 332.621 450.578 358.305Z" fill="#CF4727" stroke="black" stroke-width="2" stroke-miterlimit="10"/>
<path opacity="0.4" d="M450.578 358.305L471.521 505.732C472.329 509.71 469.399 513.694 465.01 514.585L456.07 515.202C451.681 516.093 447.429 513.568 446.621 509.59L408.634 366.822C402.395 342.062 444.098 332.621 450.578 358.305Z" stroke="black" stroke-width="2" stroke-miterlimit="10"/>
<path d="M414.772 383.529C419.54 389.618 432.636 385.446 438.289 382.864C443.873 380.313 448.774 375.421 449.638 369.343C450.459 363.566 448.422 357.216 447.203 351.62C446.826 349.889 446.426 348.109 445.601 346.527C445.245 345.843 444.749 344.873 444.093 344.427C443.328 343.907 442.73 344.131 441.836 343.915C440.122 343.5 438.584 342.898 436.769 342.71C435.1 342.536 433.422 342.497 431.751 342.343C427.618 341.962 423.285 343.474 419.357 344.599C416.899 345.303 414.451 346.147 412.148 347.243C409.467 348.519 407.697 349.146 407.311 352.193C406.964 354.936 407.073 357.777 407.504 360.504C407.957 363.375 408.809 366.166 409.658 368.946C410.773 372.599 411.887 376.252 413.002 379.904C413.466 381.425 414.055 382.612 414.772 383.529Z" fill="#CF4727"/>
<path d="M449.697 316.364C435.935 313.612 421.945 312.717 408.033 314.877C421.299 309.763 436.749 310.727 449.697 316.364Z" fill="black"/>
<path d="M230.165 375.108L170.716 249.32C169.355 245.773 164.518 244.299 159.966 246.045L151.911 249.421C147.36 251.167 144.748 255.498 146.109 259.045L186.669 391.795C194.014 414.547 237.777 398.714 230.165 375.108Z" fill="#E14F25" stroke="black" stroke-width="2" stroke-miterlimit="10"/>
<g opacity="0.4">
<path d="M230.165 375.108L170.716 249.32C169.355 245.773 164.518 244.299 159.966 246.045L151.911 249.421C147.36 251.167 144.748 255.498 146.109 259.045L186.669 391.795C194.014 414.547 237.777 398.714 230.165 375.108Z" fill="#E14F25" stroke="black" stroke-width="2" stroke-miterlimit="10"/>
<path d="M230.165 375.108L170.716 249.32C169.355 245.773 164.518 244.299 159.966 246.045L151.911 249.421C147.36 251.167 144.748 255.498 146.109 259.045L186.669 391.795C194.014 414.547 237.777 398.714 230.165 375.108Z" stroke="black" stroke-width="2" stroke-miterlimit="10"/>
</g>
<path d="M446.889 570.613C446.764 573.356 445.155 576.076 442.768 577.451C444.374 575.202 445.635 573.075 446.889 570.613Z" fill="black"/>
<path d="M457.407 535.789C457.188 536.241 457.612 538.468 457.694 539.041C458.313 543.342 459.411 547.566 460.359 551.802C460.576 553.518 461.362 555.048 461.613 556.778C461.652 557.048 461.689 557.333 461.586 557.585C461.352 558.159 460.594 558.232 459.997 558.4C459.4 558.568 458.797 559.303 459.247 559.729C461.699 560.297 465.171 559.213 467.198 557.777C471.433 554.779 471.169 548.786 470.373 544.357C469.663 540.405 470.738 535.03 468.643 531.477C469.753 533.359 471.085 535.227 472.003 537.263C472.715 538.842 473.706 540.518 473.786 542.291C473.872 544.22 473.602 546.02 473.951 547.986C473.335 547.897 472.748 548.58 472.928 549.175C476.213 548.004 480.71 547.062 482.425 543.735C486.586 535.662 478.972 522.071 475.747 514.77C474.212 511.296 471.574 507.738 471.421 503.926C471.375 502.775 470.052 491.35 470.325 491.234C466.925 492.679 463.988 495.265 462.077 498.496C460.781 491.836 460.551 484.95 461.399 478.198C456.879 481.887 453.53 487.069 451.982 492.768C448.797 488.609 446.649 483.616 445.794 478.386C438.933 486.011 439.933 496.141 442.515 505.256C443.511 508.774 444.261 512.389 444.755 516.046C445.002 517.877 445.327 519.862 445.313 521.71C445.303 522.95 444.968 524.072 444.883 525.311C444.371 532.84 444.103 540.424 443.713 547.972C443.42 553.639 443.128 559.306 442.835 564.972C442.729 567.017 442.14 569.648 443.053 571.491C443.972 573.346 446.101 574.09 447.663 574.041C450.593 573.949 454.535 541.714 457.404 535.79L457.407 535.789Z" fill="#62220D" stroke="black" stroke-width="2" stroke-miterlimit="10"/>
<path d="M440.268 492.416C442.81 488.902 446.838 486.678 451.03 485.567C454.096 484.755 457.273 484.487 460.434 484.415C463.503 484.345 467.155 483.993 469.995 485.406" stroke="black" stroke-width="7" stroke-linecap="round" stroke-linejoin="round"/>
<path d="M455.13 495.193C460.257 495.193 464.414 491.037 464.414 485.909C464.414 480.782 460.257 476.625 455.13 476.625C450.002 476.625 445.846 480.782 445.846 485.909C445.846 491.037 450.002 495.193 455.13 495.193Z" fill="white" stroke="black" stroke-width="2" stroke-miterlimit="10"/>
<path d="M451.755 490.236L456.666 487.128L448.607 482.937" stroke="black" stroke-linecap="round" stroke-linejoin="round"/>
<path d="M131.938 234.694C131.676 232.644 131.779 230.313 132.316 227.459C133.369 221.857 136.577 216.576 141.408 213.602C147.159 210.062 153.949 210.787 159.718 213.874C167.201 217.879 168.107 232.358 169.285 239.679C169.846 243.163 169.567 247.295 171.407 250.306C171.963 251.216 176.785 260.7 177.063 260.644C173.6 261.333 169.922 260.899 166.731 259.426C169.122 265.233 172.482 270.649 176.635 275.392C171.122 274.948 165.778 272.736 161.606 269.174C161.2 274.058 162.051 279.034 164.06 283.508C154.649 281.277 150.236 272.959 147.609 264.584C146.595 261.352 145.334 258.175 143.847 255.102C143.102 253.563 142.341 251.865 141.378 250.452C140.732 249.504 139.887 248.819 139.181 247.911C135.283 242.891 132.565 239.592 131.937 234.693L131.938 234.694Z" fill="#62220D" stroke="black" stroke-width="2" stroke-miterlimit="10"/>
<path d="M24.3335 168.223C23.5535 171.486 22.5655 175.565 24.7845 178.484C27.0905 181.525 31.7445 182.433 34.9995 184.079C35.0455 184.102 35.1696 184.15 35.2196 184.183C36.2026 176.255 37.4825 168.353 39.0445 160.509C36.1815 160.607 33.3065 160.577 30.4575 160.898C29.0665 161.052 27.8146 161.15 26.8776 162.272C25.4596 163.969 24.8375 166.112 24.3335 168.222V168.223Z" fill="white"/>
<path d="M35.6416 180.929C35.4956 182.013 35.3546 183.098 35.2196 184.184C35.1686 184.151 35.0445 184.102 34.9995 184.08C31.7445 182.434 27.0906 181.526 24.7846 178.485C22.9046 176.012 23.3266 172.709 23.9746 169.773C25.5796 176.163 31.2036 179.367 35.6416 180.929Z" fill="#E5E5E4"/>
<path d="M128.682 244.053C131.711 245.381 134.727 246.975 137.832 248.086C139.609 248.722 141.968 249.302 143.456 247.739C144.292 246.862 144.831 245.59 145.383 244.531C148.11 239.318 149.77 233.776 151.661 228.226C153.899 221.664 155.384 215.015 156.561 208.195C149.436 207.86 142.324 207.284 135.236 206.477C133.459 213.695 131.326 220.754 127.952 227.402C127.157 228.967 126.328 230.518 125.445 232.033C124.437 233.753 122.754 235.438 122.297 237.417C121.424 241.192 125.993 242.871 128.682 244.053Z" fill="white"/>
<path d="M42.9386 227.981C43.4416 227.778 43.9296 227.574 44.4026 227.385C49.9176 225.216 55.3805 222.911 60.8275 220.569C69.8115 216.708 78.7796 212.724 88.1576 209.892C98.4616 206.782 109.108 205.258 119.854 204.881C122.517 204.787 125.184 204.768 127.847 204.789C130.132 190.914 132.293 177.018 133.927 163.05C113.36 156.85 95.2706 143.882 78.6416 130.666C75.6476 128.284 72.6875 125.861 69.6996 123.475C67.8365 121.985 65.9565 120.512 63.9195 119.259C63.1755 118.796 62.3725 118.326 61.5335 117.9C58.9925 123.229 57.6325 129.247 56.1545 134.931C54.1485 142.624 52.3605 150.379 50.6755 158.15C49.5565 163.313 48.3905 168.496 47.5605 173.716C46.2295 182.117 45.3385 190.608 44.5305 199.075C43.6185 208.641 42.6676 218.354 42.9386 227.981Z" fill="white"/>
<path d="M8.71154 172.323C5.93554 172.935 3.13754 173.438 0.383538 174.137C-0.197462 174.285 -0.0864203 175.221 0.50158 175.072C3.25658 174.374 6.05358 173.87 8.82958 173.258C9.41658 173.127 9.30154 172.191 8.71154 172.323Z" fill="#333333"/>
<path d="M12.0236 156.057C9.66659 154.28 7.30561 152.5 4.94461 150.719C4.45961 150.355 3.88159 151.1 4.36759 151.463C6.72859 153.243 9.08957 155.023 11.4466 156.801C11.9326 157.168 12.5096 156.424 12.0236 156.057Z" fill="#333333"/>
<path d="M18.3255 188.333C16.1405 190.627 14.1635 193.099 12.2575 195.625C11.8935 196.11 12.6385 196.688 13.0015 196.202C14.9075 193.675 16.8845 191.204 19.0695 188.91C19.4855 188.468 18.7375 187.895 18.3255 188.333Z" fill="#333333"/>
<path d="M23.9785 136.906C24.6795 140.471 25.3065 144.049 26.0105 147.61C26.1255 148.206 27.0605 148.088 26.9425 147.492C26.2425 143.93 25.6146 140.352 24.9146 136.787C24.8006 136.194 23.8645 136.309 23.9795 136.905L23.9785 136.906Z" fill="#333333"/>
<path d="M155.121 184.144C156.129 184.32 157.143 184.46 158.163 184.563C158.626 184.608 159.244 184.783 159.693 184.687C161.251 184.354 160.777 183.318 159.484 182.835C157.793 182.199 155.77 182.13 154.001 181.785C152.912 181.558 151.822 181.3 150.718 181.161C150.221 181.099 148.72 180.871 148.401 181.168C147.267 182.229 148.581 182.677 149.146 182.881C151.006 183.557 153.17 183.804 155.12 184.144H155.121ZM159.619 181.9C160.614 182.174 161.405 182.492 161.636 183.588C162.32 186.852 156.736 185.372 155.229 185.116C153.361 184.802 151.444 184.47 149.609 184.001C148.583 183.738 147.331 183.328 146.954 182.212C145.814 178.82 152.977 180.611 154.136 180.854C155.956 181.21 157.825 181.413 159.619 181.9Z" fill="#333333"/>
<path d="M149.779 175.619C150.075 175.814 150.515 175.901 150.845 175.999C151.932 176.322 153.058 176.523 154.174 176.71C156.166 177.044 158.184 177.296 160.202 177.441C160.422 177.456 160.825 177.569 161.03 177.49C161.632 177.253 161.704 176.523 161.188 176.088C160.009 175.094 157.601 174.974 156.137 174.752C154.258 174.386 151.845 173.577 149.939 173.978C149.747 174.017 149.201 174.1 149.073 174.277C148.711 174.773 149.494 175.43 149.779 175.619ZM162.042 175.554C163.002 176.422 162.923 178 161.524 178.38C160.768 178.586 159.785 178.357 159.03 178.285C157.36 178.128 155.691 177.918 154.038 177.641C152.845 177.442 146.381 176.545 147.956 173.999C149.341 171.763 154.423 173.456 156.273 173.819C158.028 174.086 160.638 174.278 162.043 175.554H162.042Z" fill="#333333"/>
<path d="M129.415 204.816C136.807 205.796 144.232 206.529 151.677 206.991C153.498 207.104 155.318 207.202 157.14 207.286C159.08 207.373 162.154 208.099 163.58 206.468C165.621 204.138 167.074 200.965 168.304 198.149C170.976 192.022 172.36 185.311 172.275 178.621C172.233 175.576 172.423 170.98 169.851 168.856C167.35 166.786 163.125 166.82 160.06 166.387C151.674 165.204 143.274 164.159 134.857 163.241C133.229 177.147 131.078 190.981 128.803 204.798C128.928 204.8 129.057 204.798 129.182 204.8C129.221 204.795 129.26 204.797 129.304 204.802C129.343 204.801 129.38 204.807 129.417 204.816H129.415ZM137.832 248.086C139.609 248.722 141.968 249.302 143.456 247.739C144.292 246.862 144.831 245.59 145.383 244.531C148.11 239.318 149.77 233.776 151.661 228.226C153.899 221.664 155.384 215.015 156.561 208.195C149.436 207.86 142.324 207.284 135.236 206.477C133.459 213.695 131.326 220.754 127.952 227.402C127.157 228.967 126.328 230.518 125.445 232.033C124.437 233.753 122.754 235.438 122.297 237.417C121.424 241.192 125.994 242.871 128.683 244.053C131.712 245.381 134.727 246.975 137.832 248.086ZM60.8276 220.569C69.8116 216.708 78.7796 212.724 88.1576 209.892C98.4616 206.782 109.109 205.258 119.855 204.881C122.518 204.787 125.184 204.768 127.847 204.789C130.132 190.914 132.294 177.018 133.928 163.05C113.361 156.85 95.2706 143.882 78.6416 130.666C75.6476 128.284 72.6876 125.861 69.6996 123.475C67.8366 121.985 65.9566 120.512 63.9196 119.259C63.1756 118.796 62.3726 118.326 61.5336 117.9C58.9926 123.229 57.6326 129.247 56.1546 134.931C54.1486 142.624 52.3606 150.379 50.6756 158.15C49.5566 163.313 48.3906 168.496 47.5606 173.716C46.2296 182.117 45.3386 190.608 44.5306 199.075C43.6186 208.641 42.6676 218.354 42.9386 227.981C43.4416 227.778 43.9296 227.574 44.4026 227.385C49.9176 225.216 55.3806 222.911 60.8276 220.569ZM35.2196 184.183C36.2026 176.255 37.4826 168.353 39.0446 160.509C36.1816 160.607 33.3066 160.577 30.4576 160.898C29.0666 161.052 27.8146 161.15 26.8776 162.272C25.4596 163.969 24.8375 166.112 24.3335 168.222C23.5535 171.485 22.5656 175.564 24.7846 178.483C27.0906 181.524 31.7446 182.432 34.9996 184.078C35.0456 184.101 35.1696 184.15 35.2196 184.183ZM23.3986 168.088C24.1426 164.987 25.2366 160.905 28.7896 160.192C32.1956 159.504 35.7696 159.692 39.2326 159.565C40.8546 151.517 42.7736 143.534 44.9656 135.668C46.5596 129.945 48.0766 123.692 51.0086 118.464C53.1736 114.601 57.4686 115.094 61.0226 116.652C65.3026 118.529 68.9116 121.623 72.5166 124.535C89.1466 137.962 106.385 151.416 126.401 159.421C129.068 160.484 131.777 161.434 134.527 162.255C143.099 163.189 151.655 164.251 160.194 165.457C163.31 165.895 167.169 165.932 169.895 167.724C172.629 169.518 172.895 172.924 173.101 175.905C173.574 182.753 172.535 189.677 170.144 196.105C168.921 199.399 167.327 202.558 165.407 205.501C164.719 206.556 164.017 207.759 162.757 208.186C161.216 208.709 159.195 208.315 157.614 208.247C157.578 208.247 157.546 208.245 157.51 208.242C156.376 214.836 154.987 221.312 152.846 227.657C150.816 233.689 149.013 239.742 146.003 245.373C144.799 247.629 143.632 249.759 140.715 249.681C137.041 249.578 133.575 247.134 130.264 245.752C127.673 244.665 124.023 243.537 122.23 241.217C119.996 238.321 122.126 235.394 123.784 232.913C129.106 224.951 132.026 215.585 134.297 206.372C132.586 206.17 130.877 205.961 129.166 205.735C117.077 205.574 104.959 206.452 93.2166 209.455C83.2526 212 73.7745 216.024 64.3545 220.079C58.9415 222.41 53.5296 224.741 48.0646 226.942C45.6046 227.939 43.0176 229.309 40.3716 229.715C38.9216 229.941 37.4056 229.758 36.1976 228.878C32.9456 226.518 33.0495 221.383 33.0625 217.838C33.0885 212.17 33.2037 206.523 33.5997 200.869C33.9667 195.637 34.4696 190.405 35.1016 185.178C34.9876 185.153 34.7136 184.991 34.6296 184.948C31.1236 183.177 26.1887 182.197 23.8237 178.774C21.6727 175.66 22.5826 171.491 23.3986 168.088ZM37.7646 228.639C39.1636 229.112 40.6186 228.814 42.0076 228.331C41.7606 219.99 42.4746 211.596 43.2006 203.3C44.0036 194.116 44.9966 184.936 46.3006 175.807C47.0356 170.66 48.1315 165.568 49.2135 160.484C50.8675 152.714 52.6336 144.965 54.5856 137.264C56.2536 130.685 57.7396 123.647 60.6866 117.492C59.1076 116.781 57.4266 116.286 55.7626 116.368C52.4476 116.533 51.3036 119.746 50.2536 122.375C49.1036 125.256 48.1425 128.221 47.2395 131.192C41.2795 150.804 37.4806 171.295 35.3516 191.666C34.7666 197.262 34.3366 202.877 34.1296 208.5C34.0186 211.432 33.9966 214.367 34.0026 217.302C34.0066 219.766 33.9416 222.271 34.6366 224.661C35.1186 226.325 36.0216 228.047 37.7646 228.637V228.639Z" fill="#333333"/>
<path d="M149.073 174.276C148.711 174.772 149.494 175.43 149.779 175.619C150.075 175.814 150.515 175.901 150.845 175.999C151.932 176.322 153.058 176.523 154.174 176.71C156.166 177.044 158.184 177.296 160.202 177.441C160.422 177.456 160.825 177.569 161.03 177.49C161.632 177.253 161.704 176.523 161.188 176.088C160.009 175.094 157.601 174.974 156.137 174.752C154.258 174.386 151.845 173.577 149.939 173.978C149.747 174.017 149.201 174.099 149.073 174.276Z" fill="#F48D83"/>
<path d="M148.401 181.168C147.267 182.229 148.581 182.677 149.146 182.881C151.006 183.557 153.17 183.804 155.12 184.144C156.128 184.32 157.142 184.46 158.162 184.563C158.625 184.608 159.243 184.783 159.692 184.687C161.25 184.354 160.776 183.318 159.483 182.835C157.792 182.199 155.769 182.13 154 181.785C152.911 181.558 151.821 181.3 150.717 181.161C150.22 181.099 148.72 180.871 148.401 181.168Z" fill="#F48D83"/>
<path d="M34.0026 217.303C34.0066 219.767 33.9416 222.272 34.6366 224.662C35.1186 226.326 36.0216 228.048 37.7646 228.638C39.1636 229.111 40.6186 228.813 42.0076 228.33C41.7606 219.989 42.4746 211.595 43.2006 203.299C44.0036 194.115 44.9966 184.935 46.3006 175.806C47.0356 170.659 48.1315 165.567 49.2135 160.483C50.8675 152.713 52.6336 144.964 54.5856 137.263C56.2536 130.684 57.7396 123.646 60.6866 117.491C59.1076 116.78 57.4266 116.285 55.7626 116.367C52.4476 116.532 51.3036 119.745 50.2536 122.374C49.1036 125.255 48.1425 128.22 47.2395 131.191C41.2795 150.803 37.4806 171.294 35.3516 191.665C34.7666 197.261 34.3366 202.876 34.1296 208.499C34.0186 211.431 33.9966 214.366 34.0026 217.301V217.303Z" fill="#EC1C24" stroke="black" stroke-width="2" stroke-linecap="round" stroke-linejoin="round"/>
<path d="M134.856 163.24C143.272 164.158 151.673 165.203 160.059 166.386C163.125 166.82 167.349 166.786 169.85 168.855C172.422 170.98 172.232 175.576 172.274 178.62C172.359 185.31 170.974 192.021 168.302 198.148C167.072 200.964 165.62 204.137 163.578 206.467C162.152 208.097 159.079 207.372 157.139 207.285C155.318 207.201 153.498 207.102 151.676 206.99C144.231 206.528 136.806 205.795 129.414 204.815C129.377 204.805 129.341 204.799 129.301 204.801C129.257 204.796 129.218 204.794 129.179 204.799C129.054 204.797 128.925 204.799 128.8 204.797C131.075 190.98 133.226 177.147 134.854 163.24H134.856ZM149.609 184.001C151.443 184.469 153.36 184.802 155.229 185.116C156.736 185.372 162.321 186.852 161.637 183.588C161.406 182.492 160.615 182.174 159.62 181.9C157.826 181.412 155.958 181.209 154.137 180.854C152.978 180.611 145.815 178.82 146.955 182.212C147.332 183.329 148.583 183.738 149.609 184.001ZM159.03 178.285C159.786 178.357 160.768 178.587 161.524 178.38C162.922 178 163.002 176.422 162.042 175.554C160.638 174.278 158.028 174.086 156.272 173.819C154.422 173.456 149.34 171.763 147.955 173.999C146.38 176.545 152.843 177.442 154.036 177.641C155.689 177.918 157.36 178.128 159.03 178.285Z" fill="#EC1C24" stroke="black" stroke-width="2" stroke-linecap="round" stroke-linejoin="round"/>
<g style="mix-blend-mode:multiply">
<path d="M42.0075 228.331C40.6185 228.814 39.1635 229.112 37.7645 228.639C36.0215 228.049 35.1186 226.327 34.6366 224.663C33.9416 222.272 34.0065 219.767 34.0025 217.304C33.9985 215.446 34.0086 213.588 34.0426 211.73C36.8836 210.124 39.8276 208.653 42.8556 207.307C42.2696 214.293 41.7995 221.33 42.0075 228.331Z" fill="#E5E5E4"/>
</g>
<path d="M129.499 194.581C128.96 197.985 128.407 201.388 127.847 204.789C125.184 204.769 122.517 204.788 119.854 204.881C109.108 205.257 98.4616 206.782 88.1576 209.892C78.7796 212.724 69.8115 216.708 60.8275 220.569C55.3805 222.911 49.9186 225.216 44.4026 227.385C43.9296 227.573 43.4416 227.778 42.9386 227.981C42.7416 220.965 43.1935 213.903 43.8065 206.886C69.6965 195.671 101.622 193.472 129.499 194.581Z" fill="#E5E5E4"/>
<g style="mix-blend-mode:multiply">
<path d="M163.578 206.468C162.152 208.098 159.079 207.373 157.139 207.286C155.318 207.202 153.498 207.103 151.676 206.991C144.231 206.529 136.806 205.796 129.414 204.816C129.377 204.806 129.341 204.8 129.301 204.802C129.257 204.797 129.218 204.795 129.179 204.8C129.054 204.798 128.925 204.8 128.8 204.798C129.358 201.407 129.909 198.015 130.446 194.621C144.578 195.223 157.631 196.664 168.281 198.195C167.055 201 165.608 204.152 163.577 206.47L163.578 206.468Z" fill="#E5E5E4"/>
</g>
<path d="M149.509 217.541C149.104 212.569 140.238 210.532 134.404 209.728C134.691 208.648 134.968 207.564 135.236 206.476C142.324 207.284 149.437 207.859 156.561 208.194C155.384 215.015 153.899 221.663 151.661 228.225C149.77 233.775 148.11 239.317 145.383 244.53C144.831 245.589 144.292 246.861 143.456 247.738C142.078 249.185 139.954 248.795 138.236 248.224C142.221 239.958 149.96 223.077 149.509 217.54V217.541Z" fill="#E5E5E4"/>
<path d="M134.824 211.401C135.101 210.827 156.881 220.586 158.867 221.445C159.544 221.738 160.233 222.038 160.793 222.52C161.353 223.002 161.776 223.703 161.746 224.444C161.703 225.491 160.759 226.321 159.749 226.577C158.739 226.833 157.676 226.647 156.651 226.46C152.96 225.786 149.202 224.813 145.485 224.373C143.895 224.185 142.305 223.997 140.715 223.808C141.643 223.918 143.002 225.111 143.79 225.585C145.251 226.463 146.7 227.36 148.15 228.256C151.273 230.187 154.333 232.222 157.323 234.356C157.753 234.663 158.193 234.983 158.481 235.428C158.769 235.873 158.875 236.477 158.606 236.933C158.255 237.527 157.458 237.639 156.771 237.649C153.195 237.703 149.702 236.75 146.354 235.565C143.217 234.455 140.076 232.888 136.703 232.733C137.316 232.761 138.27 233.569 138.786 233.887C140.676 235.05 142.035 237.035 143.429 238.724C144.967 240.587 146.457 242.495 147.798 244.508C148.622 245.745 151.503 250.664 148.085 250.165C146.372 249.915 144.789 248.963 143.269 248.186C138.243 245.616 133.622 242.111 129.831 237.909C129.224 237.236 128.637 236.544 128.072 235.835C127.481 235.094 126.441 233.966 126.331 232.978C126.278 232.509 126.568 231.921 126.694 231.468C126.868 230.843 127.045 230.22 127.235 229.6C129.164 223.305 131.97 217.314 134.824 211.401Z" fill="#62220D" stroke="black" stroke-width="2" stroke-miterlimit="10"/>
<path d="M148.888 246.779C149.949 248.852 150.768 250.716 151.848 252.78C149.903 251.495 148.818 249.078 148.888 246.779Z" fill="black"/>
<path d="M157.606 235.068C159.145 235.743 160.23 236.385 161.768 237.062C160.149 237.579 158.295 236.567 157.606 235.068Z" fill="black"/>
<path d="M159.541 224.099C160.962 224.368 161.816 224.58 163.267 224.617C162.286 225.75 160.226 225.376 159.541 224.099Z" fill="black"/>
</svg>
